<?xml version="1.0" encoding="UTF-8"?>
<svg version="1.1" xmlns="http://www.w3.org/2000/svg" width="1917" height="471">
<path d="M0 0 C1.99349538 -0.00240977 3.98699076 -0.00482276 5.98048586 -0.00746042 C12.22503092 -0.01548849 18.46956168 -0.01805579 24.71411133 -0.01733398 C30.31277347 -0.01680341 35.91136545 -0.02382902 41.51000977 -0.0378418 C74.36710973 -0.11819045 107.14048967 0.16532783 139.95449448 2.04670334 C143.05814716 2.22295821 146.16250694 2.385412 149.2668457 2.54907227 C154.75195194 2.84584308 160.23360593 3.18219792 165.71484375 3.54296875 C166.65991791 3.60421936 167.60499207 3.66546997 168.57870483 3.72857666 C197.53824243 5.62007195 226.39375252 8.40515269 255.21484375 11.79296875 C256.10902008 11.89720154 257.00319641 12.00143433 257.92446899 12.10882568 C260.46208596 12.40669667 262.99873262 12.71168044 265.53515625 13.01953125 C266.63855095 13.14905182 266.63855095 13.14905182 267.76423645 13.28118896 C273.01526243 13.93232626 277.86564619 15.00703596 283.08984375 16.16796875 C283.08984375 99.98796875 283.08984375 183.80796875 283.08984375 270.16796875 C-349.52015625 270.16796875 -982.13015625 270.16796875 -1633.91015625 270.16796875 C-1633.91015625 245.08796875 -1633.91015625 220.00796875 -1633.91015625 194.16796875 C-1629.75778204 194.86003112 -1626.42969286 195.5440893 -1622.52734375 196.84765625 C-1559.64435417 217.36294508 -1493.65989831 228.88361346 -1427.91015625 235.16796875 C-1427.18586426 235.23737671 -1426.46157227 235.30678467 -1425.71533203 235.3782959 C-1363.70187021 241.28319884 -1301.15062622 243.22693825 -1238.91015625 240.16796875 C-1238.01244507 240.12414062 -1237.11473389 240.0803125 -1236.18981934 240.03515625 C-1206.0123413 238.54410196 -1175.95395689 236.37181912 -1145.91015625 233.16796875 C-1144.41845723 233.01057752 -1142.92675802 232.85318815 -1141.43505859 232.69580078 C-1046.22951008 222.58366282 -952.1117881 204.20842253 -793.97314453 159.43408203 C-790.64719243 158.39516279 -787.31681598 157.37148448 -783.98422241 156.35409546 C-753.87628478 147.16151802 -724.1283917 136.93614582 -694.6262207 125.95916748 C-681.68014517 121.14429507 -668.6644737 116.63215374 -655.52978516 112.35449219 C-650.6631838 110.75920805 -645.807561 109.13185231 -640.95159912 107.50453186 C-634.00712507 105.17771684 -627.0575128 102.86659748 -620.10595703 100.56103516 C-617.54059686 99.71011503 -614.976611 98.85548335 -612.41357422 97.99755859 C-573.47707462 84.98302021 -533.72692387 74.13393813 -493.91015625 64.16796875 C-492.97310852 63.93311768 -492.03606079 63.6982666 -491.07061768 63.45629883 C-379.4411055 35.53779928 -265.54313348 16.87069717 -84.59765625 2.48046875 C-83.51940582 2.41953033 -82.4411554 2.35859192 -81.33023071 2.29580688 C-54.22377635 0.78299623 -27.14749289 0.00796083 0 0 Z " fill="#065F46" transform="translate(1633.91015625,200.83203125)"/>
<path d="M0 0 C1.99349538 -0.00240977 3.98699076 -0.00482276 5.98048586 -0.00746042 C12.22503092 -0.01548849 18.46956168 -0.01805579 24.71411133 -0.01733398 C30.31277347 -0.01680341 35.91136545 -0.02382902 41.51000977 -0.0378418 C74.36710973 -0.11819045 107.14048967 0.16532783 139.95449448 2.04670334 C143.05814716 2.22295821 146.16250694 2.385412 149.2668457 2.54907227 C154.75195194 2.84584308 160.23360593 3.18219792 165.71484375 3.54296875 C166.65991791 3.60421936 167.60499207 3.66546997 168.57870483 3.72857666 C197.53824243 5.62007195 226.39375252 8.40515269 255.21484375 11.79296875 C256.10902008 11.89720154 257.00319641 12.00143433 257.92446899 12.10882568 C260.46208596 12.40669667 262.99873262 12.71168044 265.53515625 13.01953125 C266.63855095 13.14905182 266.63855095 13.14905182 267.76423645 13.28118896 C273.01526243 13.93232626 277.86564619 15.00703596 283.08984375 16.16796875 C283.08984375 53.78796875 283.08984375 91.40796875 283.08984375 130.16796875 C258.08984375 123.16796875 258.08984375 123.16796875 249.71484375 120.60546875 C241.202333 118.06840672 232.56197287 116.20912856 223.88378906 114.33007812 C218.02832979 113.05879468 212.23186705 111.73072077 206.46484375 110.10546875 C197.87992688 107.7235265 189.13974244 106.11146448 180.3984375 104.4140625 C176.10021197 103.57883684 171.82281626 102.67674324 167.546875 101.734375 C158.52373823 99.78606356 149.43457369 98.23856524 140.33984375 96.66796875 C138.62886545 96.37002589 136.91792776 96.07184968 135.20703125 95.7734375 C130.98216502 95.03786938 126.75609776 94.30955859 122.5291748 93.58590698 C120.93695791 93.31310747 119.34490852 93.03932801 117.75305176 92.76443481 C106.31189358 90.79135124 94.84999733 89.12096832 83.33984375 87.60546875 C80.19907566 87.18857264 77.05851859 86.77009909 73.91796875 86.3515625 C73.16168182 86.25109619 72.4053949 86.15062988 71.62619019 86.04711914 C66.95139622 85.42404216 62.28132379 84.77377077 57.61328125 84.1015625 C34.16596102 80.72764135 10.6012379 78.67705511 -12.98876953 76.60253906 C-17.05578436 76.24456173 -21.12184131 75.87701113 -25.1875 75.50390625 C-27.11587256 75.32928499 -29.0442564 75.15478836 -30.97265625 74.98046875 C-31.7404541 74.90884521 -32.50825195 74.83722168 -33.29931641 74.76342773 C-48.52232932 73.41656258 -63.74873842 73.01904896 -79.0234375 73.03857422 C-80.84760574 73.03721437 -82.6717737 73.0354312 -84.49594116 73.03326416 C-89.38850471 73.02875914 -94.28104684 73.03045044 -99.17361069 73.03364325 C-104.33229371 73.0362031 -109.49097509 73.03381933 -114.6496582 73.03225708 C-123.3071322 73.03044586 -131.96459762 73.03281407 -140.62207031 73.03759766 C-150.58262857 73.04303824 -160.54316634 73.04127484 -170.5037241 73.03577125 C-179.10815638 73.03121014 -187.71258255 73.03060416 -196.31701565 73.03320992 C-201.43307772 73.03475628 -206.54913022 73.03501208 -211.66519165 73.03167343 C-216.47854174 73.02875083 -221.29186584 73.03084963 -226.10521317 73.03656769 C-227.85493553 73.03787204 -229.60466014 73.03754165 -231.35438156 73.03530502 C-246.57303152 73.0176688 -261.75191859 73.57326822 -276.91015625 74.98046875 C-277.81854248 75.06248535 -278.72692871 75.14450195 -279.6628418 75.22900391 C-281.79930928 75.4229349 -283.93560992 75.61870924 -286.07177734 75.81591797 C-288.91037073 76.07626981 -291.74915471 76.33314216 -294.58837891 76.58642578 C-322.91461276 79.11418495 -351.15891696 82.0088344 -379.34765625 85.79296875 C-380.17499268 85.90390869 -381.0023291 86.01484863 -381.85473633 86.12915039 C-385.92258803 86.69334794 -389.95896464 87.34786974 -393.99609375 88.1015625 C-398.53159649 88.94242527 -403.07865244 89.67142713 -407.640625 90.3515625 C-408.32613937 90.45380127 -409.01165375 90.55604004 -409.71794128 90.66137695 C-412.54768459 91.08180883 -415.37777813 91.4997978 -418.20825195 91.9152832 C-428.49407456 93.42871222 -438.70435553 95.18779734 -448.91015625 97.16796875 C-450.35125927 97.44472517 -451.79242267 97.72116738 -453.23364258 97.99731445 C-484.45855531 103.79616437 -484.45855531 103.79616437 -515.3125 111.23828125 C-518.93341258 112.17397853 -522.54822498 112.91188575 -526.22265625 113.60546875 C-532.64708108 114.83938751 -538.88283661 116.47516197 -545.171875 118.26806641 C-549.83674338 119.5970803 -554.50829561 120.83482842 -559.22265625 121.98046875 C-584.15951525 128.0862013 -608.76747514 135.50676941 -633.21875 143.31005859 C-636.27106534 144.2830118 -639.32501371 145.25075915 -642.37890625 146.21875 C-644.61855507 146.93078364 -646.858139 147.64302141 -649.09765625 148.35546875 C-650.6748645 148.85506104 -650.6748645 148.85506104 -652.28393555 149.36474609 C-657.21636334 150.93834444 -662.10306582 152.5646755 -666.93676758 154.41967773 C-670.81703447 155.89103961 -674.74226575 157.23822947 -678.66015625 158.60546875 C-679.53978027 158.91331299 -680.4194043 159.22115723 -681.32568359 159.53833008 C-686.04890228 161.18672211 -690.78053292 162.7994102 -695.53515625 164.35546875 C-699.93517445 165.80154215 -704.19749187 167.47602826 -708.48046875 169.234375 C-711.70385078 170.47294141 -714.98916406 171.40360814 -718.30615234 172.35571289 C-720.64346646 173.08478134 -722.83087502 173.93031158 -725.08203125 174.88671875 C-732.16289502 177.75365619 -739.43566508 180.03797678 -746.70361328 182.37695312 C-749.14240356 183.16225232 -751.57911586 183.95374904 -754.015625 184.74609375 C-762.27306304 187.42098531 -770.54387665 189.96017366 -778.90185547 192.30395508 C-782.18554565 193.2470633 -785.41514834 194.29981974 -788.64746094 195.40380859 C-802.87339037 200.20820643 -817.30193623 204.39028242 -831.8515625 208.08691406 C-837.45510064 209.5131628 -843.00337097 211.04840017 -848.53515625 212.73046875 C-856.5252593 215.14822048 -864.61152923 217.07477189 -872.7421875 218.95703125 C-876.41356163 219.80802606 -880.07172317 220.70167886 -883.7265625 221.62109375 C-916.42356735 229.83767835 -949.44629167 236.98378677 -982.59765625 243.10546875 C-983.37077148 243.24903809 -984.14388672 243.39260742 -984.94042969 243.54052734 C-993.84391517 245.18627681 -1002.74005382 246.62171098 -1011.72485352 247.74658203 C-1015.44966139 248.2393404 -1019.12158888 248.9096858 -1022.8125 249.60546875 C-1049.32319105 254.41951605 -1076.12936252 257.34670876 -1102.91015625 260.16796875 C-1103.58326843 260.23929016 -1104.25638062 260.31061157 -1104.94989014 260.38409424 C-1161.18572934 266.32577526 -1217.40353411 267.579366 -1273.91015625 267.16796875 C-1274.77983032 267.16172485 -1275.64950439 267.15548096 -1276.54553223 267.14904785 C-1296.33676883 266.98656162 -1316.0460602 265.64629205 -1335.78515625 264.29296875 C-1337.57750702 264.17133362 -1337.57750702 264.17133362 -1339.40606689 264.04724121 C-1356.63122083 262.86412568 -1373.76729958 261.22212685 -1390.91015625 259.16796875 C-1392.13964996 259.02104584 -1392.13964996 259.02104584 -1393.39398193 258.87115479 C-1397.90268934 258.32814921 -1402.40717339 257.75682746 -1406.91015625 257.16796875 C-1408.20993408 256.99845703 -1409.50971191 256.82894531 -1410.84887695 256.65429688 C-1425.96586348 254.66064142 -1440.90716768 252.25693745 -1455.84375 249.1953125 C-1459.9937829 248.34649648 -1464.15116083 247.54690188 -1468.31469727 246.76733398 C-1477.84219898 244.98305101 -1487.34936564 243.10153415 -1496.84765625 241.16796875 C-1498.03157959 240.93094238 -1499.21550293 240.69391602 -1500.43530273 240.44970703 C-1507.58451994 238.98148857 -1514.56180939 237.18832087 -1521.5637207 235.13183594 C-1526.51930618 233.70448849 -1531.52342937 232.5045997 -1536.53515625 231.29296875 C-1553.36315926 227.1320766 -1569.77708482 221.93440865 -1586.22265625 216.48046875 C-1587.31185867 216.12017075 -1587.31185867 216.12017075 -1588.42306519 215.75259399 C-1590.52025006 215.05743315 -1592.61583505 214.35765894 -1594.7109375 213.65625 C-1595.92950439 213.24930908 -1597.14807129 212.84236816 -1598.40356445 212.4230957 C-1601.98560414 211.14096342 -1605.43021426 209.70195103 -1608.91015625 208.16796875 C-1608.91015625 207.50796875 -1608.91015625 206.84796875 -1608.91015625 206.16796875 C-1609.71453125 206.01328125 -1609.71453125 206.01328125 -1610.53515625 205.85546875 C-1612.91015625 205.16796875 -1612.91015625 205.16796875 -1615.6015625 203.78125 C-1620.23413676 201.52239147 -1625.06757102 200.04454826 -1629.9609375 198.44921875 C-1630.93417969 198.02640625 -1631.90742187 197.60359375 -1632.91015625 197.16796875 C-1633.24015625 196.17796875 -1633.57015625 195.18796875 -1633.91015625 194.16796875 C-1629.96295382 194.75335587 -1626.31002617 195.58406357 -1622.52734375 196.84765625 C-1559.64435417 217.36294508 -1493.65989831 228.88361346 -1427.91015625 235.16796875 C-1427.18586426 235.23737671 -1426.46157227 235.30678467 -1425.71533203 235.3782959 C-1363.70187021 241.28319884 -1301.15062622 243.22693825 -1238.91015625 240.16796875 C-1238.01244507 240.12414062 -1237.11473389 240.0803125 -1236.18981934 240.03515625 C-1206.0123413 238.54410196 -1175.95395689 236.37181912 -1145.91015625 233.16796875 C-1144.41845723 233.01057752 -1142.92675802 232.85318815 -1141.43505859 232.69580078 C-1046.22951008 222.58366282 -952.1117881 204.20842253 -793.97314453 159.43408203 C-790.64719243 158.39516279 -787.31681598 157.37148448 -783.98422241 156.35409546 C-753.87628478 147.16151802 -724.1283917 136.93614582 -694.6262207 125.95916748 C-681.68014517 121.14429507 -668.6644737 116.63215374 -655.52978516 112.35449219 C-650.6631838 110.75920805 -645.807561 109.13185231 -640.95159912 107.50453186 C-634.00712507 105.17771684 -627.0575128 102.86659748 -620.10595703 100.56103516 C-617.54059686 99.71011503 -614.976611 98.85548335 -612.41357422 97.99755859 C-573.47707462 84.98302021 -533.72692387 74.13393813 -493.91015625 64.16796875 C-492.97310852 63.93311768 -492.03606079 63.6982666 -491.07061768 63.45629883 C-379.4411055 35.53779928 -265.54313348 16.87069717 -84.59765625 2.48046875 C-83.51940582 2.41953033 -82.4411554 2.35859192 -81.33023071 2.29580688 C-54.22377635 0.78299623 -27.14749289 0.00796083 0 0 Z " fill="#069668" transform="translate(1633.91015625,200.83203125)"/>
<path d="M0 0 C1.99349538 -0.00240977 3.98699076 -0.00482276 5.98048586 -0.00746042 C12.22503092 -0.01548849 18.46956168 -0.01805579 24.71411133 -0.01733398 C30.31277347 -0.01680341 35.91136545 -0.02382902 41.51000977 -0.0378418 C74.36710973 -0.11819045 107.14048967 0.16532783 139.95449448 2.04670334 C143.05814716 2.22295821 146.16250694 2.385412 149.2668457 2.54907227 C154.75195194 2.84584308 160.23360593 3.18219792 165.71484375 3.54296875 C166.65991791 3.60421936 167.60499207 3.66546997 168.57870483 3.72857666 C197.53824243 5.62007195 226.39375252 8.40515269 255.21484375 11.79296875 C256.10902008 11.89720154 257.00319641 12.00143433 257.92446899 12.10882568 C260.46208596 12.40669667 262.99873262 12.71168044 265.53515625 13.01953125 C266.63855095 13.14905182 266.63855095 13.14905182 267.76423645 13.28118896 C273.01526243 13.93232626 277.86564619 15.00703596 283.08984375 16.16796875 C283.08984375 34.31796875 283.08984375 52.46796875 283.08984375 71.16796875 C275.21479354 69.95642256 267.58033005 68.69521871 259.83984375 66.98046875 C213.51267088 57.11854056 166.25343362 51.00918421 119.14306641 46.37115479 C117.12759217 46.17170432 115.11257756 45.96813817 113.09765625 45.76318359 C81.94922872 42.61181449 50.73337886 40.3247937 19.44921875 39.09375 C17.80092072 39.02883488 17.80092072 39.02883488 16.11932373 38.96260834 C-9.66703131 37.97508266 -35.44369779 37.8608215 -61.24609375 37.90722656 C-67.63116835 37.91861976 -74.01607604 37.91182798 -80.40114498 37.90034294 C-136.16110717 37.81554411 -191.50389113 40.35887248 -247.03515625 45.23046875 C-247.97342255 45.31246521 -248.91168884 45.39446167 -249.87838745 45.47894287 C-260.54830527 46.41788716 -271.16750978 47.51819201 -281.79003906 48.89871216 C-285.83052229 49.41185678 -289.87650344 49.87881114 -293.921875 50.3515625 C-295.68815717 50.55919265 -297.45443316 50.76687544 -299.22070312 50.97460938 C-301.90049311 51.28940618 -304.58036074 51.60345646 -307.26049805 51.9152832 C-327.68800429 54.29476747 -347.99301807 57.27012927 -368.28515625 60.60546875 C-369.22204285 60.75892761 -370.15892944 60.91238647 -371.12420654 61.07049561 C-393.47040938 64.73093225 -415.73082308 68.59250511 -437.91015625 73.16796875 C-438.68840759 73.32821533 -439.46665894 73.48846191 -440.26849365 73.65356445 C-474.21525023 80.64552176 -507.94366405 88.18807014 -541.47265625 96.98046875 C-542.30364838 97.1982901 -543.1346405 97.41611145 -543.99081421 97.64053345 C-554.70135147 100.4549353 -565.35109575 103.38741249 -575.91992188 106.70117188 C-581.53860375 108.4613899 -587.17787277 110.08726975 -592.859375 111.6328125 C-606.34975534 115.30585206 -619.58294444 119.60630805 -632.81745911 124.10588074 C-637.74540207 125.77972863 -642.68286707 127.42325339 -647.625 129.0546875 C-666.90407371 135.42457547 -686.07912018 142.04907681 -705.20898438 148.85302734 C-731.2676885 158.11108674 -757.47471505 167.0412055 -783.91015625 175.16796875 C-785.05258789 175.52181641 -786.19501953 175.87566406 -787.37207031 176.24023438 C-806.79350224 182.25261133 -826.29944985 187.83356761 -845.93798828 193.09179688 C-849.44065404 194.03524646 -852.93355814 195.01154606 -856.42585754 195.99256897 C-866.62742036 198.85515621 -876.87729807 201.48941435 -887.16015625 204.04296875 C-888.0252179 204.25829254 -888.89027954 204.47361633 -889.78155518 204.69546509 C-961.00582555 222.41144865 -1033.00757283 235.66175857 -1105.91015625 244.16796875 C-1107.07901367 244.30589844 -1108.24787109 244.44382812 -1109.45214844 244.5859375 C-1127.74361131 246.73599598 -1146.05945987 248.54615328 -1164.42095947 249.97076416 C-1166.91867367 250.16864354 -1169.4151043 250.37889697 -1171.91162109 250.59130859 C-1205.98538358 253.43817634 -1240.05440285 253.43941287 -1274.22265625 253.41796875 C-1275.96812681 253.41746836 -1275.96812681 253.41746836 -1277.74885941 253.41695786 C-1284.57926337 253.4143435 -1291.40958255 253.40347505 -1298.23995209 253.38136101 C-1300.34028527 253.37466596 -1302.44062257 253.36913355 -1304.54096222 253.36493111 C-1325.96009385 253.31395993 -1347.30560811 252.44581819 -1368.66015625 250.79296875 C-1369.93462112 250.69592651 -1369.93462112 250.69592651 -1371.23483276 250.59692383 C-1393.21764477 248.91666327 -1415.10626362 246.57320049 -1436.94921875 243.57275391 C-1438.96425868 243.29728093 -1440.97991575 243.02629332 -1442.99609375 242.75927734 C-1475.56641208 238.44410833 -1507.7732662 232.42229059 -1539.70318604 224.70050049 C-1541.95536727 224.15705954 -1544.20874341 223.61882045 -1546.46240234 223.08154297 C-1569.24172914 217.63889792 -1591.57936092 211.33691302 -1613.7902832 203.87841797 C-1615.25213813 203.38849538 -1616.71562807 202.90343375 -1618.18041992 202.42236328 C-1620.42781894 201.68272509 -1622.66918127 200.92681742 -1624.91015625 200.16796875 C-1626.05291016 199.79671875 -1626.05291016 199.79671875 -1627.21875 199.41796875 C-1629.14884661 198.75740093 -1631.03509525 197.97156632 -1632.91015625 197.16796875 C-1633.24015625 196.17796875 -1633.57015625 195.18796875 -1633.91015625 194.16796875 C-1629.96295382 194.75335587 -1626.31002617 195.58406357 -1622.52734375 196.84765625 C-1559.64435417 217.36294508 -1493.65989831 228.88361346 -1427.91015625 235.16796875 C-1427.18586426 235.23737671 -1426.46157227 235.30678467 -1425.71533203 235.3782959 C-1363.70187021 241.28319884 -1301.15062622 243.22693825 -1238.91015625 240.16796875 C-1238.01244507 240.12414062 -1237.11473389 240.0803125 -1236.18981934 240.03515625 C-1206.0123413 238.54410196 -1175.95395689 236.37181912 -1145.91015625 233.16796875 C-1144.41845723 233.01057752 -1142.92675802 232.85318815 -1141.43505859 232.69580078 C-1046.22951008 222.58366282 -952.1117881 204.20842253 -793.97314453 159.43408203 C-790.64719243 158.39516279 -787.31681598 157.37148448 -783.98422241 156.35409546 C-753.87628478 147.16151802 -724.1283917 136.93614582 -694.6262207 125.95916748 C-681.68014517 121.14429507 -668.6644737 116.63215374 -655.52978516 112.35449219 C-650.6631838 110.75920805 -645.807561 109.13185231 -640.95159912 107.50453186 C-634.00712507 105.17771684 -627.0575128 102.86659748 -620.10595703 100.56103516 C-617.54059686 99.71011503 -614.976611 98.85548335 -612.41357422 97.99755859 C-573.47707462 84.98302021 -533.72692387 74.13393813 -493.91015625 64.16796875 C-492.97310852 63.93311768 -492.03606079 63.6982666 -491.07061768 63.45629883 C-379.4411055 35.53779928 -265.54313348 16.87069717 -84.59765625 2.48046875 C-83.51940582 2.41953033 -82.4411554 2.35859192 -81.33023071 2.29580688 C-54.22377635 0.78299623 -27.14749289 0.00796083 0 0 Z " fill="#FCA03B" transform="translate(1633.91015625,200.83203125)"/>
</svg>
