<?xml version="1.0" standalone="no"?>
<!DOCTYPE svg PUBLIC "-//W3C//DTD SVG 20010904//EN"
 "http://www.w3.org/TR/2001/REC-SVG-20010904/DTD/svg10.dtd">
<svg version="1.0" xmlns="http://www.w3.org/2000/svg"
 width="512.000000pt" height="512.000000pt" viewBox="0 0 512.000000 512.000000"
 preserveAspectRatio="xMidYMid meet">

<g transform="translate(0.000000,512.000000) scale(0.100000,-0.100000)"
fill="#000000" stroke="none">
<path d="M810 3900 c-405 -391 -665 -648 -665 -659 0 -14 756 -934 1417 -1725
17 -20 17 -6 18 380 l0 400 -376 453 -377 453 34 34 c19 18 212 204 429 413
l395 381 857 0 856 0 426 -411 c234 -226 426 -414 426 -418 0 -3 -169 -209
-375 -456 l-374 -450 -1 -398 c0 -219 4 -396 8 -393 10 6 1436 1724 1440 1735
1 4 -299 299 -668 654 l-671 647 -1067 0 -1067 0 -665 -640z"/>
</g>
</svg>
