<svg version="1.1" id="Layer_1" xmlns="http://www.w3.org/2000/svg" xmlns:xlink="http://www.w3.org/1999/xlink" x="0px" y="0px"
	 width="100%" viewBox="0 0 192 192" enable-background="new 0 0 192 192" xml:space="preserve">
<path fill="#084E3B" opacity="1.000000" stroke="none" 
	d="
M87.000000,0.999999 
	C93.354401,1.000000 99.708794,1.000000 106.692032,1.387049 
	C118.535240,2.275722 129.026474,5.782930 138.920959,10.608456 
	C152.260300,17.114044 163.657028,26.341274 172.715515,38.233727 
	C180.101639,47.930614 185.853104,58.489960 188.987305,70.337608 
	C190.447998,75.859169 191.669876,81.443901 193.000000,87.000000 
	C193.000000,93.354401 193.000000,99.708794 192.609375,106.697266 
	C192.036758,109.796333 192.139679,112.322456 191.626038,114.716286 
	C188.542572,129.087189 183.035004,142.379700 174.009949,154.135437 
	C162.342896,169.332535 148.013107,180.955307 129.656052,186.981171 
	C122.244133,189.414200 114.560173,191.018555 107.000000,193.000000 
	C100.645599,193.000000 94.291206,193.000000 87.303802,192.610123 
	C75.433022,191.813644 64.987915,188.202209 55.071922,183.400467 
	C42.488022,177.306824 31.795931,168.730438 22.932730,157.657990 
	C14.618940,147.271927 8.011137,136.209900 4.698051,123.292534 
	C3.395242,118.213005 2.228634,113.098549 1.000000,108.000000 
	C1.000000,100.979050 1.000000,93.958107 1.403815,86.345879 
	C4.043070,77.176231 5.334794,68.208122 8.687036,60.090973 
	C19.706148,33.409203 39.275497,15.351817 66.643188,6.074519 
	C73.243706,3.837027 80.204750,2.663051 87.000000,0.999999 
M52.489902,76.573914 
	C51.692879,76.830727 50.588268,76.837250 50.145035,77.381950 
	C43.652241,85.361130 46.432812,94.788673 56.268658,97.816544 
	C65.592117,100.686676 75.063789,99.930359 84.434402,98.079048 
	C104.556206,94.103676 122.974434,86.324661 137.830475,71.839806 
	C141.318497,68.438934 143.761780,63.434830 145.305450,58.716709 
	C146.944336,53.707573 143.493622,49.810928 137.968979,49.212872 
	C141.886337,52.876320 141.352783,56.939148 138.665985,60.357918 
	C135.415588,64.493820 131.871887,68.652184 127.678162,71.748505 
	C112.258095,83.133507 94.854019,90.000351 75.784912,92.005188 
	C70.124069,92.600357 64.086426,92.247971 58.566399,90.908356 
	C50.899822,89.047813 49.220531,83.255325 52.823654,75.960350 
	C53.069462,75.752846 53.315273,75.545341 53.561085,75.337845 
	C53.433300,75.614197 53.305519,75.890549 52.489902,76.573914 
M129.023773,58.412895 
	C129.018433,53.920071 129.039032,49.427032 129.001404,44.934479 
	C128.949738,38.765598 126.110130,35.286545 120.139244,35.217937 
	C103.667961,35.028667 87.191109,35.038265 70.720222,35.254765 
	C64.996712,35.329998 62.008991,38.850605 61.981731,44.605175 
	C61.927338,56.086655 61.966244,67.568581 61.966572,79.050316 
	C61.966660,82.157036 61.966591,85.263748 61.966591,88.715385 
	C64.452423,88.851204 66.337936,88.954224 68.681992,89.082298 
	C68.681992,77.580925 68.638176,66.635498 68.701256,55.690689 
	C68.730919,50.543266 70.458557,48.815899 75.648216,48.791653 
	C88.793633,48.730232 101.939682,48.733665 115.085136,48.790142 
	C120.207588,48.812149 121.994987,50.604839 122.072220,55.654320 
	C122.149811,60.726757 122.089287,65.801308 122.089287,71.005997 
	C129.066513,69.321159 129.568222,64.634056 129.023773,58.412895 
M69.413399,139.110458 
	C68.176781,135.217300 65.141289,135.943436 62.232258,135.941467 
	C62.108154,136.789795 61.979141,137.270554 61.976795,137.751938 
	C61.959751,141.244934 61.920822,144.738876 61.979324,148.230988 
	C62.077377,154.084213 64.852921,157.445404 70.729179,157.526260 
	C87.193085,157.752838 103.664253,157.753784 120.128090,157.524078 
	C126.194656,157.439438 128.950333,154.041183 128.982025,147.842300 
	C129.024567,139.525604 129.001312,131.208466 128.974640,122.891617 
	C128.969742,121.364578 128.814056,119.838013 128.724991,118.258453 
	C123.244545,119.775101 121.354012,122.998863 122.058495,128.036865 
	C122.355247,130.158981 122.142296,132.354996 122.129868,134.517227 
	C122.098267,140.015305 120.222916,141.972137 114.621246,141.997162 
	C101.813438,142.054382 89.003563,142.115265 76.198761,141.910248 
	C74.085098,141.876404 71.992905,140.502426 69.413399,139.110458 
M66.871346,126.113800 
	C65.718300,125.953056 64.561562,125.814995 63.412788,125.627991 
	C53.912891,124.081505 48.849407,117.450638 53.640549,109.023849 
	C53.905327,108.558144 53.737598,107.846527 53.825680,106.280602 
	C49.034603,110.683273 46.658951,115.177795 47.271938,120.856514 
	C47.815804,125.894890 51.201630,128.927902 55.678856,130.468155 
	C59.260902,131.700455 63.074490,132.828049 66.816254,132.936722 
	C93.902092,133.723328 117.528419,124.748093 137.321976,106.374725 
	C141.163177,102.809120 143.582016,97.510223 146.018433,92.688217 
	C148.501373,87.774117 145.950500,83.710243 142.390198,80.263367 
	C139.986282,77.936028 137.605133,77.474411 135.420395,80.599663 
	C141.026276,86.007858 141.461319,89.911308 136.784119,96.227409 
	C134.917816,98.747665 132.770081,101.201874 130.306900,103.115082 
	C111.922707,117.394554 91.429695,126.093575 66.871346,126.113800 
M65.109360,102.647636 
	C64.053856,103.214493 62.105206,103.746368 62.081417,104.353645 
	C61.850750,110.241898 61.942860,116.142792 61.942860,122.279678 
	C64.561043,122.279678 66.543999,122.279678 68.624359,122.279678 
	C68.624359,116.473465 68.773071,111.173149 68.502129,105.894371 
	C68.446205,104.804939 66.826981,103.795738 65.109360,102.647636 
M122.114319,97.385208 
	C122.114319,99.760162 122.114319,102.135117 122.114319,104.920052 
	C133.276871,100.127228 127.408257,91.274185 129.200180,84.111137 
	C122.123932,86.632980 122.123932,86.632980 122.114319,97.385208 
z"/>
<path fill="#FFFFFF" opacity="1.000000" stroke="none" 
	d="
M193.000000,86.531342 
	C191.669876,81.443901 190.447998,75.859169 188.987305,70.337608 
	C185.853104,58.489960 180.101639,47.930614 172.715515,38.233727 
	C163.657028,26.341274 152.260300,17.114044 138.920959,10.608456 
	C129.026474,5.782930 118.535240,2.275722 107.160439,1.387049 
	C135.593567,1.000000 164.187134,1.000000 193.000000,1.000000 
	C193.000000,29.353851 193.000000,57.708267 193.000000,86.531342 
z"/>
<path fill="#FFFFFF" opacity="1.000000" stroke="none" 
	d="
M107.468658,193.000000 
	C114.560173,191.018555 122.244133,189.414200 129.656052,186.981171 
	C148.013107,180.955307 162.342896,169.332535 174.009949,154.135437 
	C183.035004,142.379700 188.542572,129.087189 191.626038,114.716286 
	C192.139679,112.322456 192.036758,109.796333 192.609375,107.165672 
	C193.000000,135.593567 193.000000,164.187134 193.000000,193.000000 
	C164.646149,193.000000 136.291733,193.000000 107.468658,193.000000 
z"/>
<path fill="#FFFFFF" opacity="1.000000" stroke="none" 
	d="
M1.000000,108.468658 
	C2.228634,113.098549 3.395242,118.213005 4.698051,123.292534 
	C8.011137,136.209900 14.618940,147.271927 22.932730,157.657990 
	C31.795931,168.730438 42.488022,177.306824 55.071922,183.400467 
	C64.987915,188.202209 75.433022,191.813644 86.835396,192.610123 
	C58.406860,193.000000 29.813721,193.000000 1.000000,193.000000 
	C1.000000,164.979492 1.000000,136.958405 1.000000,108.468658 
z"/>
<path fill="#FFFFFF" opacity="1.000000" stroke="none" 
	d="
M86.531342,0.999999 
	C80.204750,2.663051 73.243706,3.837027 66.643188,6.074519 
	C39.275497,15.351817 19.706148,33.409203 8.687036,60.090973 
	C5.334794,68.208122 4.043070,77.176231 1.403815,85.877304 
	C1.000000,57.739334 1.000000,29.478668 1.000000,1.000000 
	C29.353855,1.000000 57.708271,1.000000 86.531342,0.999999 
z"/>
<path fill="#E7EBE8" opacity="1.000000" stroke="none" 
	d="
M129.026367,58.896027 
	C129.568222,64.634056 129.066513,69.321159 122.089287,71.005997 
	C122.089287,65.801308 122.149811,60.726757 122.072220,55.654320 
	C121.994987,50.604839 120.207588,48.812149 115.085136,48.790142 
	C101.939682,48.733665 88.793633,48.730232 75.648216,48.791653 
	C70.458557,48.815899 68.730919,50.543266 68.701256,55.690689 
	C68.638176,66.635498 68.681992,77.580925 68.681992,89.082298 
	C66.337936,88.954224 64.452423,88.851204 61.966591,88.715385 
	C61.966591,85.263748 61.966660,82.157036 61.966572,79.050316 
	C61.966244,67.568581 61.927338,56.086655 61.981731,44.605175 
	C62.008991,38.850605 64.996712,35.329998 70.720222,35.254765 
	C87.191109,35.038265 103.667961,35.028667 120.139244,35.217937 
	C126.110130,35.286545 128.949738,38.765598 129.001404,44.934479 
	C129.039032,49.427032 129.018433,53.920071 129.026367,58.896027 
M98.177826,43.913155 
	C99.399529,43.709793 100.621239,43.506435 101.842941,43.303074 
	C101.782898,42.948807 101.722855,42.594536 101.662804,42.240265 
	C97.456520,42.240265 93.250237,42.240265 89.043945,42.240265 
	C89.023170,42.796707 89.002396,43.353153 88.981613,43.909595 
	C91.743690,43.909595 94.505760,43.909595 98.177826,43.913155 
z"/>
<path fill="#E97623" opacity="1.000000" stroke="none" 
	d="
M69.652092,139.429123 
	C71.992905,140.502426 74.085098,141.876404 76.198761,141.910248 
	C89.003563,142.115265 101.813438,142.054382 114.621246,141.997162 
	C120.222916,141.972137 122.098267,140.015305 122.129868,134.517227 
	C122.142296,132.354996 122.355247,130.158981 122.058495,128.036865 
	C121.354012,122.998863 123.244545,119.775101 128.724991,118.258453 
	C128.814056,119.838013 128.969742,121.364578 128.974640,122.891617 
	C129.001312,131.208466 129.024567,139.525604 128.982025,147.842300 
	C128.950333,154.041183 126.194656,157.439438 120.128090,157.524078 
	C103.664253,157.753784 87.193085,157.752838 70.729179,157.526260 
	C64.852921,157.445404 62.077377,154.084213 61.979324,148.230988 
	C61.920822,144.738876 61.959751,141.244934 61.976795,137.751938 
	C61.979141,137.270554 62.108154,136.789795 62.232258,135.941467 
	C65.141289,135.943436 68.176781,135.217300 69.652092,139.429123 
M92.505203,151.937408 
	C94.375656,152.010651 96.279205,152.286896 98.089600,151.991745 
	C98.467453,151.930130 99.077881,149.230652 98.567924,148.672485 
	C97.636940,147.653519 95.350769,146.453186 94.703262,146.896454 
	C93.437302,147.763107 92.909988,149.708725 92.505203,151.937408 
z"/>
<path fill="#E77523" opacity="1.000000" stroke="none" 
	d="
M67.326492,126.134262 
	C91.429695,126.093575 111.922707,117.394554 130.306900,103.115082 
	C132.770081,101.201874 134.917816,98.747665 136.784119,96.227409 
	C141.461319,89.911308 141.026276,86.007858 135.420395,80.599663 
	C137.605133,77.474411 139.986282,77.936028 142.390198,80.263367 
	C145.950500,83.710243 148.501373,87.774117 146.018433,92.688217 
	C143.582016,97.510223 141.163177,102.809120 137.321976,106.374725 
	C117.528419,124.748093 93.902092,133.723328 66.816254,132.936722 
	C63.074490,132.828049 59.260902,131.700455 55.678856,130.468155 
	C51.201630,128.927902 47.815804,125.894890 47.271938,120.856514 
	C46.658951,115.177795 49.034603,110.683273 53.825680,106.280602 
	C53.737598,107.846527 53.905327,108.558144 53.640549,109.023849 
	C48.849407,117.450638 53.912891,124.081505 63.412788,125.627991 
	C64.561562,125.814995 65.718300,125.953056 67.326492,126.134262 
z"/>
<path fill="#E8EBE8" opacity="1.000000" stroke="none" 
	d="
M53.293419,76.103310 
	C49.220531,83.255325 50.899822,89.047813 58.566399,90.908356 
	C64.086426,92.247971 70.124069,92.600357 75.784912,92.005188 
	C94.854019,90.000351 112.258095,83.133507 127.678162,71.748505 
	C131.871887,68.652184 135.415588,64.493820 138.665985,60.357918 
	C141.352783,56.939148 141.886337,52.876320 137.968979,49.212872 
	C143.493622,49.810928 146.944336,53.707573 145.305450,58.716709 
	C143.761780,63.434830 141.318497,68.438934 137.830475,71.839806 
	C122.974434,86.324661 104.556206,94.103676 84.434402,98.079048 
	C75.063789,99.930359 65.592117,100.686676 56.268658,97.816544 
	C46.432812,94.788673 43.652241,85.361130 50.145035,77.381950 
	C50.588268,76.837250 51.692879,76.830727 52.857529,76.345024 
	C53.225155,76.116135 53.293419,76.103310 53.293419,76.103310 
z"/>
<path fill="#DE7425" opacity="1.000000" stroke="none" 
	d="
M65.518822,102.698593 
	C66.826981,103.795738 68.446205,104.804939 68.502129,105.894371 
	C68.773071,111.173149 68.624359,116.473465 68.624359,122.279678 
	C66.543999,122.279678 64.561043,122.279678 61.942860,122.279678 
	C61.942860,116.142792 61.850750,110.241898 62.081417,104.353645 
	C62.105206,103.746368 64.053856,103.214493 65.518822,102.698593 
z"/>
<path fill="#DF7425" opacity="1.000000" stroke="none" 
	d="
M122.114288,96.922676 
	C122.123932,86.632980 122.123932,86.632980 129.200180,84.111137 
	C127.408257,91.274185 133.276871,100.127228 122.114319,104.920052 
	C122.114319,102.135117 122.114319,99.760162 122.114288,96.922676 
z"/>
<path fill="#E8EBE8" opacity="1.000000" stroke="none" 
	d="
M53.201447,76.141518 
	C53.305519,75.890549 53.433300,75.614197 53.561081,75.337845 
	C53.315273,75.545341 53.069462,75.752846 53.058537,76.031830 
	C53.293419,76.103310 53.225155,76.116135 53.201447,76.141518 
z"/>
<path fill="#276454" opacity="1.000000" stroke="none" 
	d="
M97.722832,43.911377 
	C94.505760,43.909595 91.743690,43.909595 88.981613,43.909595 
	C89.002396,43.353153 89.023170,42.796707 89.043945,42.240265 
	C93.250237,42.240265 97.456520,42.240265 101.662804,42.240265 
	C101.722855,42.594536 101.782898,42.948807 101.842941,43.303074 
	C100.621239,43.506435 99.399529,43.709793 97.722832,43.911377 
z"/>
<path fill="#15503A" opacity="1.000000" stroke="none" 
	d="
M92.291046,151.572540 
	C92.909988,149.708725 93.437302,147.763107 94.703262,146.896454 
	C95.350769,146.453186 97.636940,147.653519 98.567924,148.672485 
	C99.077881,149.230652 98.467453,151.930130 98.089600,151.991745 
	C96.279205,152.286896 94.375656,152.010651 92.291046,151.572540 
z"/>
</svg>