<?xml version="1.0" encoding="utf-8" ?>
<svg baseProfile="tiny" height="100%" version="1.2" width="100%" xmlns="http://www.w3.org/2000/svg" xmlns:ev="http://www.w3.org/2001/xml-events" xmlns:xlink="http://www.w3.org/1999/xlink"><defs /><path d="M 367,0 L 367,1 L 367,2 L 367,3 L 367,4 L 367,5 L 367,6 L 367,7 L 367,8 L 367,9 L 367,10 L 367,11 L 367,12 L 367,13 L 367,14 L 367,15 L 367,16 L 367,17 L 367,18 L 367,19 L 367,20 L 367,21 L 367,22 L 367,23 L 367,24 L 368,24 L 369,24 L 370,24 L 371,24 L 372,24 L 373,24 L 374,24 L 375,24 L 376,24 L 377,24 L 378,24 L 379,24 L 380,24 L 381,24 L 382,24 L 383,24 L 384,24 L 385,24 L 386,24 L 387,24 L 388,24 L 389,24 L 390,24 L 391,24 L 392,24 L 393,24 L 394,24 L 395,24 L 396,24 L 397,24 L 398,24 L 399,24 L 400,24 L 401,24 L 402,24 L 403,24 L 404,24 L 405,24 L 406,24 L 407,24 L 408,24 L 409,24 L 410,24 L 411,24 L 412,24 L 413,24 L 414,24 L 415,24 L 416,24 L 417,24 L 418,24 L 419,24 L 420,24 L 421,24 L 422,24 L 423,24 L 424,24 L 425,24 L 426,24 L 427,24 L 428,24 L 429,24 L 430,24 L 431,24 L 432,24 L 433,24 L 434,24 L 435,24 L 436,24 L 437,24 L 438,24 L 439,24 L 440,24 L 441,24 L 442,24 L 443,24 L 444,24 L 445,24 L 446,24 L 447,24 L 448,24 L 449,24 L 450,24 L 451,24 L 452,24 L 453,24 L 454,24 L 455,24 L 456,24 L 457,24 L 458,24 L 459,24 L 460,24 L 461,24 L 462,24 L 463,24 L 464,24 L 465,24 L 466,24 L 467,24 L 468,24 L 469,24 L 470,24 L 471,24 L 472,24 L 473,24 L 474,24 L 475,24 L 476,24 L 477,24 L 478,24 L 479,24 L 480,24 L 481,24 L 482,24 L 483,24 L 484,24 L 485,24 L 486,24 L 487,24 L 488,24 L 489,24 L 490,24 L 491,24 L 492,24 L 493,24 L 494,24 L 495,24 L 496,24 L 497,24 L 498,24 L 499,24 L 500,24 L 501,24 L 502,24 L 503,24 L 504,24 L 505,24 L 506,24 L 507,24 L 508,24 L 509,24 L 510,24 L 511,24 Z" fill="orange" stroke="none" /><path d="M 186,239 L 186,238 L 186,237 L 186,236 L 186,235 L 186,234 L 186,233 L 186,232 L 186,231 L 186,230 L 186,229 L 186,228 L 186,227 L 186,226 L 186,225 L 186,224 L 186,223 L 186,222 L 186,221 L 186,220 L 186,219 L 186,218 L 186,217 L 186,216 L 186,215 L 186,214 L 186,213 L 186,212 L 186,211 L 186,210 L 186,209 L 186,208 L 186,207 L 186,206 L 186,205 L 186,204 L 186,203 L 186,202 L 186,201 L 186,200 L 186,199 L 186,198 L 186,197 L 186,196 L 186,195 L 186,194 L 186,193 L 186,192 L 186,191 L 186,190 L 186,189 L 186,188 L 186,187 L 186,186 L 186,185 L 186,184 L 186,183 L 186,182 L 186,181 L 186,180 L 186,179 L 186,178 L 186,177 L 186,176 L 186,175 L 186,174 L 186,173 L 186,172 L 186,171 L 186,170 L 186,169 L 186,168 L 186,167 L 186,166 L 186,165 L 186,164 L 186,163 L 186,162 L 186,161 L 186,160 L 186,159 L 186,158 L 186,157 L 186,156 L 186,155 L 186,154 L 186,153 L 186,152 L 186,151 L 186,150 L 187,149 L 187,149 L 187,148 L 187,147 L 188,146 L 188,146 L 189,145 L 189,145 L 190,144 L 190,144 L 191,143 L 191,143 L 192,142 L 192,142 L 193,141 L 193,141 L 194,140 L 194,140 L 195,139 L 196,139 L 196,139 L 197,138 L 198,138 L 199,138 L 200,138 L 201,138 L 202,138 L 203,138 L 204,138 L 205,138 L 206,138 L 207,138 L 208,138 L 209,138 L 210,138 L 211,138 L 212,138 L 213,138 L 214,138 L 215,138 L 216,138 L 217,138 L 218,138 L 219,138 L 220,138 L 221,138 L 222,138 L 223,138 L 224,138 L 225,138 L 226,138 L 227,138 L 228,138 L 229,138 L 230,138 L 231,138 L 232,138 L 233,138 L 234,138 L 235,138 L 236,138 L 237,138 L 238,138 L 239,138 L 240,138 L 241,138 L 242,138 L 243,138 L 244,138 L 245,138 L 246,138 L 247,138 L 248,138 L 249,138 L 250,138 L 251,138 L 252,138 L 253,138 L 254,138 L 255,138 L 256,138 L 257,138 L 258,138 L 259,138 L 260,138 L 261,138 L 262,138 L 263,138 L 264,138 L 265,138 L 266,138 L 267,138 L 268,138 L 269,138 L 270,138 L 271,138 L 272,138 L 273,138 L 274,138 L 275,138 L 276,138 L 277,138 L 278,138 L 279,138 L 280,138 L 281,138 L 282,138 L 283,138 L 284,138 L 285,138 L 286,138 L 287,138 L 288,138 L 289,138 L 290,138 L 291,138 L 292,138 L 293,138 L 294,138 L 295,138 L 296,138 L 297,138 L 298,138 L 299,138 L 300,138 L 301,138 L 302,138 L 303,138 L 304,138 L 305,138 L 306,138 L 307,138 L 308,138 L 309,138 L 310,138 L 311,138 L 312,138 L 313,138 L 313,139 L 314,139 L 315,139 L 315,140 L 316,140 L 317,140 L 317,141 L 318,141 L 318,142 L 319,142 L 319,143 L 320,143 L 320,144 L 321,144 L 321,145 L 321,146 L 322,146 L 322,147 L 322,148 L 323,148 L 323,149 L 323,150 L 323,151 L 323,152 L 323,153 L 323,154 L 323,155 L 323,156 L 323,157 L 323,158 L 323,159 L 323,160 L 323,161 L 323,162 L 323,163 L 323,164 L 323,165 L 323,166 L 323,167 L 323,168 L 323,169 L 323,170 L 323,171 L 323,172 L 323,173 L 323,174 L 323,175 L 323,176 L 323,177 L 323,178 L 323,179 L 323,180 L 323,181 L 323,182 L 323,183 L 323,184 L 323,185 L 323,186 L 323,187 L 323,188 L 323,189 L 323,190 L 323,191 L 323,192 L 323,193 L 324,193 L 324,194 L 324,195 L 325,195 L 326,195 L 326,195 L 327,194 L 327,194 L 328,193 L 328,193 L 329,192 L 330,192 L 330,192 L 331,191 L 331,191 L 332,190 L 332,190 L 333,189 L 334,189 L 334,189 L 335,188 L 335,188 L 336,187 L 336,187 L 337,186 L 338,186 L 338,186 L 339,185 L 339,185 L 339,184 L 339,183 L 339,182 L 339,181 L 339,180 L 339,179 L 339,178 L 339,177 L 339,176 L 339,175 L 339,174 L 339,173 L 339,172 L 339,171 L 339,170 L 339,169 L 339,168 L 339,167 L 339,166 L 339,165 L 339,164 L 339,163 L 339,162 L 339,161 L 339,160 L 339,159 L 339,158 L 339,157 L 339,156 L 339,155 L 339,154 L 339,153 L 339,152 L 339,151 L 339,150 L 339,149 L 339,148 L 339,147 L 339,146 L 339,145 L 339,144 L 339,143 L 339,142 L 339,141 L 339,140 L 339,139 L 339,138 L 339,137 L 339,136 L 339,135 L 339,134 L 339,133 L 339,132 L 339,131 L 339,130 L 339,129 L 339,128 L 339,127 L 339,126 L 339,125 L 339,124 L 339,123 L 339,122 L 339,121 L 339,120 L 338,120 L 338,119 L 338,118 L 338,117 L 337,117 L 337,116 L 336,116 L 336,115 L 336,114 L 335,114 L 335,113 L 334,113 L 334,112 L 333,112 L 333,111 L 332,111 L 332,110 L 331,110 L 330,110 L 330,109 L 329,109 L 329,108 L 328,108 L 327,108 L 326,108 L 326,107 L 325,107 L 324,107 L 323,107 L 322,107 L 321,107 L 321,106 L 320,106 L 319,106 L 318,106 L 317,106 L 316,106 L 315,106 L 314,106 L 313,106 L 312,106 L 311,106 L 310,106 L 309,106 L 308,106 L 307,106 L 306,106 L 305,106 L 304,106 L 303,106 L 302,106 L 301,106 L 300,106 L 299,106 L 298,106 L 297,106 L 296,106 L 295,106 L 294,106 L 293,106 L 292,106 L 291,106 L 290,106 L 289,106 L 288,106 L 287,106 L 286,106 L 285,106 L 284,106 L 283,106 L 282,106 L 281,106 L 280,106 L 279,106 L 278,106 L 277,106 L 276,106 L 275,106 L 274,106 L 273,106 L 272,106 L 271,106 L 270,106 L 269,106 L 268,106 L 267,106 L 266,106 L 265,106 L 264,106 L 263,106 L 262,106 L 261,106 L 260,106 L 259,106 L 258,106 L 257,106 L 256,106 L 255,106 L 254,106 L 253,106 L 252,106 L 251,106 L 250,106 L 249,106 L 248,106 L 247,106 L 246,106 L 245,106 L 244,106 L 243,106 L 242,106 L 241,106 L 240,106 L 239,106 L 238,106 L 237,106 L 236,106 L 235,106 L 234,106 L 233,106 L 232,106 L 231,106 L 230,106 L 229,106 L 228,106 L 227,106 L 226,106 L 225,106 L 224,106 L 223,106 L 222,106 L 221,106 L 220,106 L 219,106 L 218,106 L 217,106 L 216,106 L 215,106 L 214,106 L 213,106 L 212,106 L 211,106 L 210,106 L 209,106 L 208,106 L 207,106 L 206,106 L 205,106 L 204,106 L 203,106 L 202,106 L 201,106 L 200,106 L 199,106 L 198,106 L 197,106 L 196,106 L 195,106 L 194,106 L 193,106 L 192,106 L 191,106 L 190,106 L 189,107 L 189,107 L 188,107 L 187,107 L 186,107 L 185,107 L 184,108 L 184,108 L 183,108 L 182,109 L 182,109 L 181,109 L 180,110 L 180,110 L 179,110 L 178,111 L 178,111 L 177,112 L 177,112 L 176,113 L 176,113 L 175,114 L 175,114 L 174,115 L 174,116 L 174,116 L 173,117 L 173,118 L 173,118 L 172,119 L 172,120 L 172,120 L 171,121 L 171,122 L 171,123 L 171,124 L 171,125 L 171,126 L 171,127 L 171,128 L 171,129 L 171,130 L 171,131 L 171,132 L 171,133 L 171,134 L 171,135 L 171,136 L 171,137 L 171,138 L 171,139 L 171,140 L 171,141 L 171,142 L 171,143 L 171,144 L 171,145 L 171,146 L 171,147 L 171,148 L 171,149 L 171,150 L 171,151 L 171,152 L 171,153 L 171,154 L 171,155 L 171,156 L 171,157 L 171,158 L 171,159 L 171,160 L 171,161 L 171,162 L 171,163 L 171,164 L 171,165 L 171,166 L 171,167 L 171,168 L 171,169 L 171,170 L 171,171 L 171,172 L 171,173 L 171,174 L 171,175 L 171,176 L 171,177 L 171,178 L 171,179 L 171,180 L 171,181 L 171,182 L 171,183 L 171,184 L 171,185 L 171,186 L 171,187 L 171,188 L 171,189 L 171,190 L 171,191 L 171,192 L 171,193 L 171,194 L 171,195 L 171,196 L 171,197 L 171,198 L 171,199 L 171,200 L 171,201 L 171,202 L 171,203 L 171,204 L 171,205 L 171,206 L 171,207 L 171,208 L 171,209 L 171,210 L 171,211 L 171,212 L 171,213 L 171,214 L 171,215 L 171,216 L 171,217 L 171,218 L 171,219 L 171,220 L 171,221 L 171,222 L 171,223 L 171,224 L 171,225 L 171,226 L 171,227 L 171,228 L 171,229 L 171,230 L 171,231 L 171,232 L 171,233 L 171,234 L 171,235 L 171,236 L 171,237 L 171,238 L 172,238 L 173,238 L 173,239 L 174,239 L 175,239 L 176,239 L 177,239 L 178,239 L 179,239 L 180,239 L 181,239 L 182,239 L 183,239 L 184,239 L 185,239 L 186,239 L 186,239 Z" fill="orange" stroke="none" /><path d="M 271,127 L 270,127 L 269,127 L 268,127 L 267,127 L 266,127 L 265,127 L 264,127 L 263,127 L 262,127 L 261,127 L 260,127 L 259,127 L 258,127 L 257,127 L 256,127 L 255,127 L 254,127 L 253,127 L 252,127 L 251,127 L 250,127 L 249,127 L 248,127 L 247,127 L 246,127 L 245,127 L 244,127 L 243,127 L 242,127 L 241,127 L 240,127 L 239,127 L 238,127 L 238,126 L 237,126 L 237,125 L 237,124 L 237,123 L 238,122 L 238,122 L 239,121 L 240,121 L 241,121 L 242,121 L 243,121 L 244,121 L 245,121 L 246,121 L 246,121 L 247,120 L 248,120 L 249,120 L 250,120 L 251,120 L 252,120 L 253,120 L 254,120 L 255,120 L 256,120 L 257,120 L 258,120 L 259,120 L 260,120 L 260,121 L 261,121 L 262,121 L 263,121 L 264,121 L 265,121 L 266,121 L 267,121 L 268,121 L 269,121 L 270,121 L 271,121 L 271,122 L 272,122 L 272,123 L 272,124 L 272,125 L 272,126 L 272,126 L 271,127 L 271,127 Z" fill="orange" stroke="none" /><path d="M 359,137 L 359,136 L 358,137 L 359,137 L 359,137 Z" fill="orange" stroke="none" /><path d="M 205,266 L 206,265 L 207,265 L 208,265 L 209,265 L 210,265 L 211,265 L 212,265 L 213,265 L 214,265 L 214,265 L 215,264 L 216,264 L 217,264 L 218,264 L 219,264 L 220,264 L 221,264 L 221,264 L 222,263 L 223,263 L 224,263 L 225,263 L 226,263 L 227,263 L 227,263 L 228,262 L 229,262 L 230,262 L 231,262 L 232,262 L 233,262 L 233,262 L 234,261 L 235,261 L 236,261 L 237,261 L 237,261 L 238,260 L 239,260 L 240,260 L 241,260 L 242,260 L 242,260 L 243,259 L 244,259 L 245,259 L 246,259 L 246,259 L 247,258 L 248,258 L 249,258 L 249,258 L 250,257 L 251,257 L 252,257 L 253,257 L 253,257 L 254,256 L 255,256 L 256,256 L 256,256 L 257,255 L 258,255 L 259,255 L 259,255 L 260,254 L 261,254 L 261,254 L 262,253 L 263,253 L 264,253 L 264,253 L 265,252 L 266,252 L 266,252 L 267,251 L 268,251 L 269,251 L 269,251 L 270,250 L 271,250 L 272,250 L 272,250 L 273,249 L 274,249 L 275,249 L 275,249 L 276,248 L 277,248 L 277,248 L 278,247 L 279,247 L 280,247 L 280,247 L 281,246 L 282,246 L 283,246 L 283,246 L 284,245 L 285,245 L 285,245 L 286,244 L 287,244 L 288,244 L 288,244 L 289,243 L 290,243 L 290,243 L 291,242 L 292,242 L 292,242 L 293,241 L 294,241 L 295,241 L 295,241 L 296,240 L 297,240 L 297,240 L 298,239 L 299,239 L 299,239 L 300,238 L 301,238 L 301,238 L 302,237 L 303,237 L 303,237 L 304,236 L 305,236 L 305,236 L 306,235 L 307,235 L 307,235 L 308,234 L 309,234 L 309,234 L 310,233 L 311,233 L 311,233 L 312,232 L 313,232 L 313,232 L 314,231 L 315,231 L 315,231 L 316,230 L 317,230 L 317,230 L 318,229 L 319,229 L 319,229 L 320,228 L 321,228 L 321,228 L 322,227 L 322,227 L 323,226 L 324,226 L 324,226 L 325,225 L 326,225 L 326,225 L 327,224 L 327,224 L 328,223 L 329,223 L 329,223 L 330,222 L 330,222 L 331,221 L 332,221 L 332,221 L 333,220 L 333,220 L 334,219 L 335,219 L 335,219 L 336,218 L 336,218 L 337,217 L 338,217 L 338,217 L 339,216 L 339,216 L 340,215 L 341,215 L 341,215 L 342,214 L 342,214 L 343,213 L 344,213 L 344,213 L 345,212 L 345,212 L 346,211 L 346,211 L 347,210 L 348,210 L 348,210 L 349,209 L 349,209 L 350,208 L 350,208 L 351,207 L 352,207 L 352,207 L 353,206 L 353,206 L 354,205 L 354,205 L 355,204 L 355,204 L 356,203 L 357,203 L 357,203 L 358,202 L 358,202 L 359,201 L 359,201 L 360,200 L 360,200 L 361,199 L 361,199 L 362,198 L 362,198 L 363,197 L 363,197 L 364,196 L 364,196 L 365,195 L 365,195 L 365,194 L 366,193 L 366,193 L 367,192 L 367,192 L 368,191 L 368,191 L 369,190 L 369,190 L 370,189 L 370,189 L 370,188 L 371,187 L 371,187 L 372,186 L 372,186 L 372,185 L 373,184 L 373,184 L 374,183 L 374,183 L 374,182 L 375,181 L 375,181 L 375,180 L 376,179 L 376,179 L 376,178 L 377,177 L 377,177 L 377,176 L 378,175 L 378,175 L 378,174 L 379,173 L 379,173 L 379,172 L 379,171 L 380,170 L 380,170 L 380,169 L 380,168 L 380,167 L 380,166 L 381,165 L 381,165 L 381,164 L 381,163 L 381,162 L 381,161 L 381,160 L 381,159 L 381,158 L 381,157 L 381,156 L 381,155 L 380,155 L 380,154 L 380,153 L 380,152 L 379,152 L 379,151 L 379,150 L 378,150 L 378,149 L 378,148 L 377,148 L 377,147 L 376,147 L 376,146 L 375,146 L 375,145 L 374,145 L 374,144 L 373,144 L 373,143 L 372,143 L 372,142 L 371,142 L 370,142 L 370,141 L 369,141 L 369,140 L 368,140 L 367,140 L 367,139 L 366,139 L 365,139 L 365,138 L 364,138 L 363,138 L 362,138 L 362,137 L 361,137 L 360,138 L 361,138 L 362,138 L 362,139 L 363,139 L 363,140 L 364,140 L 364,141 L 365,141 L 365,142 L 366,142 L 366,143 L 367,143 L 367,144 L 368,144 L 368,145 L 368,146 L 369,146 L 369,147 L 369,148 L 370,148 L 370,149 L 370,150 L 370,151 L 370,152 L 370,153 L 370,154 L 370,155 L 370,156 L 370,157 L 370,158 L 370,159 L 370,160 L 370,160 L 369,161 L 369,162 L 369,163 L 369,163 L 368,164 L 368,165 L 368,165 L 367,166 L 367,167 L 367,167 L 366,168 L 366,169 L 366,169 L 365,170 L 365,170 L 364,171 L 364,172 L 364,172 L 363,173 L 363,174 L 363,174 L 362,175 L 362,175 L 361,176 L 361,176 L 360,177 L 360,177 L 359,178 L 359,179 L 359,179 L 358,180 L 358,180 L 357,181 L 357,181 L 356,182 L 356,182 L 355,183 L 355,183 L 354,184 L 354,184 L 353,185 L 353,185 L 352,186 L 352,186 L 351,187 L 351,187 L 350,188 L 350,188 L 349,189 L 349,189 L 348,190 L 348,190 L 347,191 L 347,191 L 346,192 L 346,192 L 345,192 L 344,193 L 344,193 L 343,194 L 343,194 L 342,195 L 342,195 L 341,196 L 341,196 L 340,196 L 339,197 L 339,197 L 338,198 L 338,198 L 337,199 L 337,199 L 336,199 L 335,200 L 335,200 L 334,201 L 334,201 L 333,201 L 332,202 L 332,202 L 331,203 L 331,203 L 330,203 L 329,204 L 329,204 L 328,205 L 328,205 L 327,205 L 326,206 L 326,206 L 325,207 L 325,207 L 324,207 L 323,208 L 323,208 L 322,208 L 321,209 L 321,209 L 320,210 L 320,210 L 319,210 L 318,211 L 318,211 L 317,211 L 316,212 L 316,212 L 315,213 L 315,213 L 314,213 L 313,214 L 313,214 L 312,214 L 311,215 L 311,215 L 310,215 L 309,216 L 309,216 L 308,216 L 307,217 L 307,217 L 306,218 L 306,218 L 305,218 L 304,219 L 304,219 L 303,219 L 302,220 L 302,220 L 301,220 L 300,221 L 300,221 L 299,221 L 298,222 L 298,222 L 297,222 L 296,223 L 296,223 L 295,223 L 294,223 L 293,224 L 293,224 L 292,224 L 291,225 L 291,225 L 290,225 L 289,226 L 289,226 L 288,226 L 287,227 L 287,227 L 286,227 L 285,228 L 285,228 L 284,228 L 283,228 L 282,229 L 282,229 L 281,229 L 280,230 L 280,230 L 279,230 L 278,230 L 277,231 L 277,231 L 276,231 L 275,232 L 275,232 L 274,232 L 273,232 L 272,233 L 272,233 L 271,233 L 270,234 L 270,234 L 269,234 L 268,234 L 267,235 L 267,235 L 266,235 L 265,235 L 264,236 L 264,236 L 263,236 L 262,236 L 261,237 L 261,237 L 260,237 L 259,237 L 258,238 L 258,238 L 257,238 L 256,238 L 255,238 L 254,239 L 254,239 L 253,239 L 252,239 L 251,240 L 251,240 L 250,240 L 249,240 L 248,241 L 248,241 L 247,241 L 246,241 L 245,241 L 244,242 L 244,242 L 243,242 L 242,242 L 241,242 L 240,243 L 240,243 L 239,243 L 238,243 L 237,243 L 236,244 L 236,244 L 235,244 L 234,244 L 233,244 L 232,245 L 232,245 L 231,245 L 230,245 L 229,245 L 228,245 L 227,246 L 227,246 L 226,246 L 225,246 L 224,246 L 223,246 L 222,247 L 222,247 L 221,247 L 220,247 L 219,247 L 218,247 L 217,247 L 216,248 L 216,248 L 215,248 L 214,248 L 213,248 L 212,248 L 211,248 L 210,248 L 209,249 L 209,249 L 208,249 L 207,249 L 206,249 L 205,249 L 204,249 L 203,249 L 202,249 L 201,249 L 200,250 L 200,250 L 199,250 L 198,250 L 197,250 L 196,250 L 195,250 L 194,250 L 193,250 L 192,250 L 191,250 L 190,250 L 189,250 L 188,250 L 187,250 L 186,250 L 185,250 L 184,250 L 183,250 L 182,250 L 181,250 L 180,250 L 179,250 L 178,250 L 177,250 L 177,249 L 176,249 L 175,249 L 174,249 L 173,249 L 172,249 L 171,249 L 170,249 L 170,248 L 169,248 L 168,248 L 167,248 L 166,248 L 165,248 L 165,247 L 164,247 L 163,247 L 162,247 L 162,246 L 161,246 L 160,246 L 159,246 L 159,245 L 158,245 L 157,245 L 156,245 L 156,244 L 155,244 L 154,244 L 154,243 L 153,243 L 153,242 L 152,242 L 151,242 L 151,241 L 150,241 L 150,240 L 149,240 L 149,239 L 148,239 L 148,238 L 147,238 L 147,237 L 146,237 L 146,236 L 145,236 L 145,235 L 144,235 L 144,234 L 144,233 L 143,233 L 143,232 L 143,231 L 143,230 L 142,230 L 142,229 L 142,228 L 142,227 L 142,226 L 142,225 L 142,224 L 142,223 L 142,222 L 142,221 L 142,220 L 142,219 L 142,218 L 143,217 L 143,217 L 143,216 L 143,215 L 144,214 L 144,214 L 144,213 L 144,212 L 145,211 L 145,211 L 145,210 L 146,209 L 146,209 L 146,208 L 147,207 L 147,207 L 147,206 L 148,205 L 148,205 L 149,204 L 149,204 L 149,203 L 150,202 L 150,202 L 151,201 L 151,201 L 151,200 L 152,199 L 152,199 L 153,198 L 153,198 L 153,197 L 154,196 L 154,196 L 154,195 L 153,196 L 153,196 L 152,197 L 152,198 L 152,198 L 151,199 L 151,199 L 150,200 L 150,200 L 149,201 L 149,201 L 148,202 L 148,202 L 147,203 L 147,204 L 147,204 L 146,205 L 146,205 L 145,206 L 145,206 L 144,207 L 144,207 L 143,208 L 143,209 L 143,209 L 142,210 L 142,210 L 141,211 L 141,212 L 141,212 L 140,213 L 140,213 L 139,214 L 139,215 L 139,215 L 138,216 L 138,217 L 138,217 L 137,218 L 137,218 L 136,219 L 136,220 L 136,221 L 136,221 L 135,222 L 135,223 L 135,223 L 134,224 L 134,225 L 134,226 L 134,226 L 133,227 L 133,228 L 133,229 L 133,230 L 133,231 L 133,232 L 133,233 L 133,234 L 133,235 L 133,236 L 133,237 L 133,238 L 133,239 L 133,240 L 133,241 L 133,242 L 134,242 L 134,243 L 134,244 L 134,245 L 135,245 L 135,246 L 135,247 L 136,247 L 136,248 L 136,249 L 137,249 L 137,250 L 138,250 L 138,251 L 138,252 L 139,252 L 139,253 L 140,253 L 140,254 L 141,254 L 142,254 L 142,255 L 143,255 L 143,256 L 144,256 L 144,257 L 145,257 L 146,257 L 146,258 L 147,258 L 147,259 L 148,259 L 149,259 L 149,260 L 150,260 L 151,260 L 152,260 L 152,261 L 153,261 L 154,261 L 155,261 L 155,262 L 156,262 L 157,262 L 158,262 L 158,263 L 159,263 L 160,263 L 161,263 L 162,263 L 162,264 L 163,264 L 164,264 L 165,264 L 166,264 L 167,264 L 167,265 L 168,265 L 169,265 L 170,265 L 171,265 L 172,265 L 173,265 L 174,265 L 174,266 L 175,266 L 176,266 L 177,266 L 178,266 L 179,266 L 180,266 L 181,266 L 182,266 L 183,266 L 184,266 L 185,266 L 186,266 L 187,266 L 188,266 L 189,266 L 190,266 L 191,266 L 192,266 L 193,266 L 194,266 L 195,266 L 196,266 L 197,266 L 198,266 L 199,266 L 200,266 L 201,266 L 202,266 L 203,266 L 204,266 L 205,266 L 205,266 Z" fill="orange" stroke="none" /><path d="M 238,245 L 237,245 L 238,244 L 238,245 L 238,245 Z" fill="orange" stroke="none" /><path d="M 23,511 L 23,510 L 23,509 L 23,508 L 23,507 L 23,506 L 23,505 L 23,504 L 23,503 L 23,502 L 23,501 L 23,500 L 23,499 L 23,498 L 23,497 L 23,496 L 23,495 L 23,494 L 23,493 L 23,492 L 23,491 L 23,490 L 23,489 L 23,488 L 23,487 L 23,486 L 23,485 L 23,484 L 23,483 L 23,482 L 23,481 L 23,480 L 23,479 L 23,478 L 23,477 L 23,476 L 23,475 L 23,474 L 23,473 L 23,472 L 23,471 L 23,470 L 23,469 L 23,468 L 23,467 L 23,466 L 23,465 L 23,464 L 23,463 L 23,462 L 23,461 L 23,460 L 23,459 L 23,458 L 23,457 L 23,456 L 23,455 L 23,454 L 23,453 L 23,452 L 23,451 L 23,450 L 23,449 L 23,448 L 23,447 L 23,446 L 23,445 L 23,444 L 23,443 L 23,442 L 23,441 L 23,440 L 23,439 L 23,438 L 23,437 L 23,436 L 23,435 L 23,434 L 23,433 L 23,432 L 23,431 L 23,430 L 23,429 L 23,428 L 23,427 L 23,426 L 23,425 L 23,424 L 23,423 L 23,422 L 23,421 L 23,420 L 23,419 L 23,418 L 23,417 L 23,416 L 23,415 L 23,414 L 23,413 L 23,412 L 23,411 L 23,410 L 23,409 L 23,408 L 23,407 L 23,406 L 23,405 L 23,404 L 23,403 L 23,402 L 23,401 L 23,400 L 23,399 L 23,398 L 23,397 L 23,396 L 23,395 L 23,394 L 23,393 L 23,392 L 23,391 L 23,390 L 23,389 L 23,388 L 23,387 L 23,386 L 23,385 L 23,384 L 23,383 L 23,382 L 23,381 L 23,380 L 23,379 L 23,378 L 23,377 L 23,376 L 23,375 L 23,374 L 23,373 L 23,372 L 23,371 L 23,370 L 23,369 L 23,368 L 23,367 L 23,366 L 23,365 L 22,365 L 21,365 L 20,365 L 19,365 L 18,365 L 17,365 L 16,365 L 15,365 L 14,365 L 13,365 L 12,365 L 11,365 L 10,365 L 9,365 L 8,365 L 7,365 L 6,365 L 5,365 L 4,365 L 3,365 L 2,365 L 1,365 L 0,365 Z" fill="orange" stroke="none" /><path d="M 511,365 L 510,365 L 509,365 L 508,365 L 507,365 L 506,365 L 505,365 L 504,365 L 503,365 L 502,365 L 501,365 L 500,365 L 499,365 L 498,365 L 497,365 L 496,365 L 495,365 L 494,365 L 493,365 L 492,365 L 491,365 L 490,365 L 489,365 L 488,365 L 487,366 L 487,367 L 487,368 L 487,369 L 487,370 L 487,371 L 487,372 L 487,373 L 487,374 L 487,375 L 487,376 L 487,377 L 487,378 L 487,379 L 487,380 L 487,381 L 487,382 L 487,383 L 487,384 L 487,385 L 487,386 L 487,387 L 487,388 L 487,389 L 487,390 L 487,391 L 487,392 L 487,393 L 487,394 L 487,395 L 487,396 L 487,397 L 487,398 L 487,399 L 487,400 L 487,401 L 487,402 L 487,403 L 487,404 L 487,405 L 487,406 L 487,407 L 487,408 L 487,409 L 487,410 L 487,411 L 487,412 L 487,413 L 487,414 L 487,415 L 487,416 L 487,417 L 487,418 L 487,419 L 487,420 L 487,421 L 487,422 L 487,423 L 487,424 L 487,425 L 487,426 L 487,427 L 487,428 L 487,429 L 487,430 L 487,431 L 487,432 L 487,433 L 487,434 L 487,435 L 487,436 L 487,437 L 487,438 L 487,439 L 487,440 L 487,441 L 487,442 L 487,443 L 487,444 L 487,445 L 487,446 L 487,447 L 487,448 L 487,449 L 487,450 L 487,451 L 487,452 L 487,453 L 487,454 L 487,455 L 487,456 L 487,457 L 487,458 L 487,459 L 487,460 L 487,461 L 487,462 L 487,463 L 487,464 L 487,465 L 487,466 L 487,467 L 487,468 L 487,469 L 487,470 L 487,471 L 487,472 L 487,473 L 487,474 L 487,475 L 487,476 L 487,477 L 487,478 L 487,479 L 487,480 L 487,481 L 487,482 L 487,483 L 487,484 L 487,485 L 487,486 L 487,486 L 486,486 L 485,486 L 484,486 L 483,486 L 482,486 L 481,486 L 480,486 L 479,486 L 478,486 L 477,486 L 476,486 L 475,486 L 474,486 L 473,486 L 472,486 L 471,486 L 470,486 L 469,486 L 468,486 L 467,486 L 466,486 L 465,486 L 464,486 L 463,486 L 462,486 L 461,486 L 460,486 L 459,486 L 458,486 L 457,486 L 456,486 L 455,486 L 454,486 L 453,486 L 452,486 L 451,486 L 450,486 L 449,486 L 448,486 L 447,486 L 446,486 L 445,486 L 444,486 L 443,486 L 442,486 L 441,486 L 440,486 L 439,486 L 438,486 L 437,486 L 436,486 L 435,486 L 434,486 L 433,486 L 432,486 L 431,486 L 430,486 L 429,486 L 428,486 L 427,486 L 426,486 L 425,486 L 424,486 L 423,486 L 422,486 L 421,486 L 420,486 L 419,486 L 418,486 L 417,486 L 416,486 L 415,486 L 414,486 L 413,486 L 412,486 L 411,486 L 410,486 L 409,486 L 408,486 L 407,486 L 406,486 L 405,486 L 404,486 L 403,486 L 402,486 L 401,486 L 400,486 L 399,486 L 398,486 L 397,486 L 396,486 L 395,486 L 394,486 L 393,486 L 392,486 L 391,486 L 390,486 L 389,486 L 388,486 L 387,486 L 386,486 L 385,486 L 384,486 L 383,486 L 382,486 L 381,486 L 380,486 L 379,486 L 378,486 L 377,486 L 376,486 L 375,486 L 374,486 L 373,486 L 372,486 L 371,486 L 370,486 L 369,486 L 368,486 L 367,487 L 367,488 L 367,489 L 367,490 L 367,491 L 367,492 L 367,493 L 367,494 L 367,495 L 367,496 L 367,497 L 367,498 L 367,499 L 367,500 L 367,501 L 367,502 L 367,503 L 367,504 L 367,505 L 367,506 L 367,507 L 367,508 L 367,509 L 367,510 L 367,511 Z" fill="orange" stroke="none" /></svg>