<?xml version="1.0" encoding="UTF-8"?>
<!DOCTYPE svg PUBLIC "-//W3C//DTD SVG 1.1//EN" "http://www.w3.org/Graphics/SVG/1.1/DTD/svg11.dtd">
<svg xmlns="http://www.w3.org/2000/svg" version="1.1" width="36px" height="36px" style="shape-rendering:geometricPrecision; text-rendering:geometricPrecision; image-rendering:optimizeQuality; fill-rule:evenodd; clip-rule:evenodd" xmlns:xlink="http://www.w3.org/1999/xlink">
<g><path style="opacity:0.967" fill="#50b281" d="M 11.5,0.5 C 14.5184,0.335374 17.5184,0.50204 20.5,1C 21.8333,2 21.8333,3 20.5,4C 16.1667,4.33333 11.8333,4.66667 7.5,5C 6.69194,5.30762 6.02527,5.80762 5.5,6.5C 4.16667,13.8333 4.16667,21.1667 5.5,28.5C 6.02527,29.1924 6.69194,29.6924 7.5,30C 14.5505,30.7968 21.5505,30.6301 28.5,29.5C 29.1924,28.9747 29.6924,28.3081 30,27.5C 30.3333,23.1667 30.6667,18.8333 31,14.5C 32,13.1667 33,13.1667 34,14.5C 35.0794,20.6506 34.246,26.4839 31.5,32C 24.362,34.4055 17.0286,35.0722 9.5,34C 7.1116,33.6966 4.94493,32.8633 3,31.5C -0.46148,21.8987 -0.294814,12.3987 3.5,3C 6.25069,2.05722 8.91736,1.22389 11.5,0.5 Z"/></g>
<g><path style="opacity:1" fill="#54b284" d="M 26.5,0.5 C 33.3309,0.838482 35.4976,4.17182 33,10.5C 29.1667,14.3333 25.3333,18.1667 21.5,22C 10,27.8333 7.16667,25 13,13.5C 17.3954,8.93568 21.8954,4.60235 26.5,0.5 Z M 26.5,4.5 C 27.8333,4.5 29.1667,4.5 30.5,4.5C 29.7589,9.50276 28.4256,9.50276 26.5,4.5 Z M 22.5,8.5 C 25.0014,8.82558 26.1681,10.1589 26,12.5C 23.0657,16.6232 19.2323,19.2898 14.5,20.5C 14.4914,18.6916 14.9914,17.0249 16,15.5C 18.3722,13.2968 20.5389,10.9635 22.5,8.5 Z"/></g>
</svg>
