<svg width="2500" height="805" viewBox="0 0 2500 805" fill="none" xmlns="http://www.w3.org/2000/svg">
<g clip-path="url(#clip0_5_22)">
<path d="M974.297 424.183C1061.64 405.419 1049.72 300.923 1047.16 278.101C1042.85 242.882 1001.46 181.382 945.288 186.295C874.568 192.595 864.245 294.747 864.245 294.747C854.665 342.047 887.1 443.004 974.297 424.183ZM1136.5 249.013C1184.71 249.013 1223.68 193.452 1223.68 124.806C1223.68 56.1713 1184.71 0.700195 1136.5 0.700195C1088.26 0.700195 1049.19 56.1713 1049.19 124.817C1049.19 193.452 1088.26 249.013 1136.5 249.013ZM1344.36 257.184C1408.89 265.636 1450.25 196.788 1458.53 144.619C1466.98 92.5172 1425.29 31.9182 1379.69 21.516C1333.9 10.9897 1276.74 84.2901 1271.59 132.109C1265.3 190.612 1279.9 248.923 1344.36 257.184ZM1599.95 344.831C1599.95 319.879 1579.3 244.663 1502.35 244.663C1425.28 244.663 1415.08 315.642 1415.08 365.793C1415.08 413.668 1419.07 480.421 1514.8 478.347C1610.43 476.228 1599.95 369.963 1599.95 344.831ZM1502.35 563.864C1502.35 563.864 1402.59 486.71 1344.36 403.255C1265.3 280.209 1153.11 330.326 1115.6 392.808C1078.21 455.446 1020.08 495.004 1011.76 505.508C1003.36 515.786 891.259 576.363 916.132 686.967C941.061 797.504 1028.48 795.407 1028.48 795.407C1028.48 795.407 1092.91 801.707 1167.63 784.994C1242.51 768.325 1306.93 789.085 1306.93 789.085C1306.93 789.085 1481.6 847.655 1529.31 734.955C1577.12 622.356 1502.35 563.864 1502.35 563.864Z" fill="black"/>
<path d="M1151.99 456.292V530.539H1091.49C1091.49 530.539 1031.03 535.554 1009.86 604.076C1002.48 649.832 1016.38 676.779 1018.8 682.549C1021.24 688.297 1040.79 721.758 1089.86 731.574H1203.38V457.092L1151.99 456.292ZM1151.08 686.528H1105.34C1105.34 686.528 1073.48 684.871 1063.78 648.198C1058.77 631.936 1064.52 613.16 1067.05 605.778C1069.36 598.385 1080.05 581.299 1102.11 574.729H1151.06L1151.08 686.528ZM1231.21 537.2V681.715C1231.21 681.715 1233.57 717.701 1284.29 730.796H1414.93V537.2H1358.55V682.549H1304.73C1304.73 682.549 1287.53 680.059 1284.31 666.219V536.343L1231.21 537.2Z" fill="white"/>
<path d="M2037.39 442.317V381.379H1636.04L1635.52 443.207H1808.05L1791.88 480.173H1645.16V785.94H1993.72C2030.16 785.94 2026.93 749.132 2026.93 749.132V480.173H1879.98L1892.89 442.317H2037.39ZM1959.44 720.63C1959.44 720.63 1955.22 730.796 1949.24 730.796H1717.94V659.479H1959.45L1959.44 720.63ZM1959.05 600.593H1717.92V533.728H1959.05V600.593ZM2495.99 383.002H2338.52V352.156H2264.66V381.481H2084.03V785.309H2149.02V433.582H2495.99V383.002ZM2453.52 466.57V443.207H2390.04V466.57H2259.44V444.03H2199.3V466.57H2158.66L2159.46 512.304H2199.3V598.215H2418.98C2449.47 598.215 2453.5 566.062 2453.5 566.062V512.292H2499.99V466.547H2453.51V466.57H2453.52ZM2390.04 543.544C2390.04 543.544 2384.38 553.958 2377.13 553.958H2258.74V511.413H2390.04V543.544ZM2167.53 660.854L2268.65 719.492C2260.65 728.305 2226.1 739.474 2226.1 739.474H2158.69V784.554H2250.22C2277.54 778.964 2328.09 753.268 2328.09 753.268C2349.02 772.484 2389.24 780.486 2389.24 780.486H2493.58V735.518H2414.92C2393.72 732.351 2374.69 720.27 2374.69 720.27L2493.59 651.996V615.019H2167.57V660.843L2167.53 660.854ZM2377.95 660.099L2320.11 690.584L2267.09 660.099H2377.95ZM743.023 447.287H830.625V370.121H743.023V447.287ZM743.023 783.675H830.625V480.917H743.023V783.675ZM600.581 481.187L413.678 480.702V544.333H577.567C577.567 544.333 616.573 553.958 616.573 578.718V601.123H468.27C468.27 601.123 409.948 606.499 391.217 676.181C387.994 708.808 392.288 724.823 394.485 730.796C396.593 736.69 413.678 775.155 464.54 784.791H700.681V567.921C700.681 567.921 689.434 493.516 600.581 481.187ZM616.573 724.857H497.223C481.186 718.388 475.844 707.704 474.717 705.021C473.612 702.384 469.893 692.805 474.221 683.101C483.879 664.404 499.883 660.099 499.883 660.099H616.573V724.857ZM371.957 677.466C374.537 603.749 308.405 578.278 308.405 578.278C364.383 548.988 357.272 475.203 357.272 475.203C351.208 362.265 213.218 367.529 213.218 367.529H0V788.431H240.751C382.133 787.879 371.957 677.466 371.957 677.466ZM235.916 710.206V710.386H91.6931V619.583H235.206L240.063 620.552C240.063 620.552 267.371 625.545 277.266 650.114C277.266 650.114 282.991 673.183 270.628 690.325C270.628 690.325 261.533 706.193 235.916 710.206ZM266.491 515.053C266.491 515.053 256.799 532.871 231.081 536.703H91.6931V449.597H230.484C230.484 449.597 260.642 448.188 270.628 472.16C270.628 472.16 276.623 497.607 266.491 515.053Z" fill="black"/>
</g>
<defs>
<clipPath id="clip0_5_22">
<rect width="2500" height="804" fill="white" transform="translate(0 0.5)"/>
</clipPath>
</defs>
</svg>
