<svg width="2500" height="1425" viewBox="0 0 2500 1425" fill="none" xmlns="http://www.w3.org/2000/svg">
<g clip-path="url(#clip0_5_27)">
<path d="M812.623 1272.97H710.359V867.706H812.623V1272.97Z" fill="black"/>
<mask id="mask0_5_27" style="mask-type:luminance" maskUnits="userSpaceOnUse" x="0" y="0" width="2500" height="1425">
<path d="M0.253906 1424.49H2499.75V0.491499H0.253906V1424.49Z" fill="white"/>
</mask>
<g mask="url(#mask0_5_27)">
<path d="M1637.2 983.826C1632.99 981.688 1600.08 962.189 1551.17 962.189C1485.06 962.189 1439.19 1008.19 1439.19 1070.28C1439.19 1130.5 1483.08 1178.47 1551.17 1178.47C1599.24 1178.47 1632.7 1159.36 1637.2 1156.96V1265.74C1624.38 1269.3 1589.43 1280.15 1544.01 1280.15C1428.99 1280.15 1328.02 1200.86 1328.02 1070.25C1328.02 949.265 1419.37 860.508 1544.01 860.508C1591.95 860.508 1627.52 872.171 1637.2 875.054V983.826ZM569.778 983.826C565.664 981.688 532.786 962.189 483.874 962.189C417.631 962.189 371.796 1008.19 371.796 1070.28C371.796 1130.5 415.72 1178.47 483.874 1178.47C531.944 1178.47 565.373 1159.36 569.778 1156.96V1265.74C557.08 1269.3 522.161 1280.15 476.488 1280.15C361.56 1280.15 260.723 1200.86 260.723 1070.25C260.723 949.265 352.069 860.508 476.521 860.508C524.656 860.508 560.158 872.171 569.778 875.054V983.826ZM1958.89 963.712C1898.22 963.712 1853.16 1011.46 1853.16 1070.28C1853.16 1129.24 1898.22 1176.95 1958.89 1176.95C2019.5 1176.95 2064.69 1129.24 2064.69 1070.28C2064.69 1011.46 2019.5 963.712 1958.89 963.712ZM2173.04 1070.28C2173.04 1186.21 2083.54 1280.15 1958.92 1280.15C1834.25 1280.15 1744.88 1186.21 1744.88 1070.25C1744.88 954.545 1834.28 860.508 1958.89 860.508C2083.54 860.508 2173.04 954.544 2173.04 1070.28ZM1200.43 959.825C1198.9 959.339 1155.85 947.45 1120.48 947.45C1079.5 947.45 1057.22 961.185 1057.22 980.653C1057.22 1005.34 1087.28 1013.95 1104.09 1019.26L1132.3 1028.24C1198.71 1049.36 1228.93 1094.8 1228.93 1144.17C1228.93 1245.98 1139.4 1280.18 1061.14 1280.18C1006.75 1280.18 955.798 1270.14 950.777 1269.11V1175.82C959.782 1178.08 1002.67 1190.91 1047.34 1190.91C1098.23 1190.91 1121.61 1176.01 1121.61 1153.08C1121.61 1132.54 1101.37 1120.68 1076.01 1112.72C1069.85 1110.64 1060.52 1107.73 1054.17 1105.65C997.228 1087.64 949.741 1054.15 949.741 987.098C949.741 911.3 1006.49 860.411 1100.75 860.411C1150.54 860.411 1197.38 872.494 1200.43 873.304V959.791V959.825Z" fill="black"/>
<path d="M152.273 432.184C152.273 404.262 129.469 381.619 101.514 381.619C73.5593 381.619 50.7227 404.261 50.7227 432.151V538.561C51.0572 551.805 56.5536 564.395 66.0393 573.644C75.525 582.893 88.2493 588.069 101.498 588.069C114.746 588.069 127.47 582.893 136.956 573.644C146.442 564.395 151.938 551.805 152.273 538.561V432.184ZM431.139 292.573C431.139 279.107 425.789 266.192 416.267 256.67C406.745 247.147 393.83 241.798 380.364 241.798C366.897 241.798 353.982 247.147 344.46 256.67C334.938 266.192 329.589 279.107 329.589 292.573V538.561C329.589 552.027 334.938 564.942 344.46 574.464C353.982 583.987 366.897 589.336 380.364 589.336C393.83 589.336 406.745 583.987 416.267 574.464C425.789 564.942 431.139 552.027 431.139 538.561V292.54V292.573ZM710.037 101.523C710.037 73.6006 687.233 50.9256 659.278 50.9256C631.291 50.9256 608.487 73.6006 608.487 101.523V639.656C608.821 652.901 614.318 665.49 623.803 674.74C633.289 683.989 646.013 689.166 659.262 689.166C672.51 689.166 685.235 683.989 694.72 674.74C704.206 665.49 709.702 652.901 710.037 639.656V101.523ZM988.903 292.573C988.903 279.107 983.553 266.192 974.031 256.67C964.509 247.147 951.594 241.798 938.128 241.798C924.661 241.798 911.746 247.147 902.224 256.67C892.702 266.192 887.353 279.107 887.353 292.573V538.561C887.353 552.027 892.702 564.942 902.224 574.464C911.746 583.987 924.661 589.336 938.128 589.336C951.594 589.336 964.509 583.987 974.031 574.464C983.553 564.942 988.903 552.027 988.903 538.561V292.54V292.573ZM1267.48 432.184C1267.49 418.788 1262.17 405.936 1252.71 396.455C1243.25 386.973 1230.41 381.636 1217.01 381.619C1203.58 381.61 1190.7 386.925 1181.19 396.397C1171.67 405.869 1166.3 418.725 1166.25 432.151V538.561C1166.25 551.984 1171.58 564.858 1181.07 574.35C1190.57 583.841 1203.44 589.174 1216.86 589.174C1230.29 589.174 1243.16 583.841 1252.65 574.35C1262.14 564.858 1267.48 551.984 1267.48 538.561V432.184ZM1546.47 292.573C1546.14 279.372 1540.66 266.822 1531.2 257.603C1521.75 248.384 1509.07 243.224 1495.86 243.224C1482.65 243.224 1469.97 248.384 1460.51 257.603C1451.06 266.822 1445.58 279.372 1445.25 292.573V538.561C1445.25 551.984 1450.58 564.858 1460.07 574.35C1469.56 583.841 1482.44 589.174 1495.86 589.174C1509.28 589.174 1522.16 583.841 1531.65 574.35C1541.14 564.858 1546.47 551.984 1546.47 538.561V292.54V292.573ZM1825.53 101.523C1825.53 88.0994 1820.2 75.2256 1810.71 65.7339C1801.22 56.2421 1788.34 50.9098 1774.92 50.9098C1761.5 50.9098 1748.62 56.2421 1739.13 65.7339C1729.64 75.2256 1724.31 88.0994 1724.31 101.523V639.656C1724.01 646.49 1725.09 653.312 1727.5 659.714C1729.91 666.115 1733.59 671.963 1738.32 676.904C1743.05 681.846 1748.73 685.778 1755.02 688.464C1761.31 691.151 1768.08 692.537 1774.92 692.537C1781.76 692.537 1788.53 691.151 1794.82 688.464C1801.11 685.778 1806.79 681.846 1811.52 676.904C1816.25 671.963 1819.93 666.115 1822.34 659.714C1824.74 653.312 1825.83 646.49 1825.53 639.656V101.523ZM2104.53 292.573C2104.53 264.619 2081.89 241.911 2053.28 241.911C2039.86 241.919 2026.99 247.257 2017.5 256.751C2008.02 266.245 2002.69 279.118 2002.69 292.54V538.561C2002.69 566.645 2025.36 589.286 2053.28 589.286C2081.89 589.286 2104.53 566.645 2104.53 538.561V292.54V292.573ZM2383.01 432.184C2383.01 418.748 2377.67 405.861 2368.17 396.36C2358.67 386.859 2345.78 381.522 2332.34 381.522C2318.91 381.522 2306.02 386.859 2296.52 396.36C2287.02 405.861 2281.68 418.748 2281.68 432.184V538.561C2281.68 566.645 2304.39 589.318 2332.34 589.318C2360.27 589.318 2382.97 566.645 2382.97 538.561V432.184H2383.01Z" fill="black"/>
<path d="M2324.47 1219.58V1225.93H2306.4V1272.93H2298.95V1225.96H2280.81V1219.58H2324.47ZM2328.26 1219.58H2339.89L2355.86 1263.34H2356.12L2371.57 1219.61H2382.97V1272.93H2375.36V1229.2H2375.1L2358.91 1272.93H2351.88L2336.07 1229.2H2335.71V1272.93H2328.26V1219.58Z" fill="black"/>
</g>
</g>
<defs>
<clipPath id="clip0_5_27">
<rect width="2500" height="1424" fill="white" transform="translate(0 0.5)"/>
</clipPath>
</defs>
</svg>
