<svg width="2500" height="858" viewBox="0 0 2500 858" fill="none" xmlns="http://www.w3.org/2000/svg">
<g clip-path="url(#clip0_5_69)">
<path d="M386.59 416.934H494.101V567.937C460.556 578.715 418.2 584.626 374.171 584.626C195.731 584.626 90.8548 431.821 90.8548 282.586C90.8548 136.219 185.717 33.5513 318.062 33.5513C401.808 33.5513 450.537 61.9224 494.132 101.442V150.709L575.875 68.9652C524.172 33.9848 449.304 0.740234 342.294 0.740234C107.377 0.740234 0 168.803 0 306.919C0 503.514 143.193 621.944 323.139 621.944C410.389 621.944 487.859 608.625 577.346 583.725V427.715C577.346 419.738 580.852 414.264 586.092 409.457L614.33 381.219H422.573L386.59 416.934Z" fill="black"/>
<path d="M868.205 211.724C732.99 211.724 649.211 310.527 649.211 415.401C649.211 505.923 716.705 613.398 853.452 613.398C984.996 613.398 1065.7 514.402 1065.7 407.691C1065.7 308.291 986.832 211.76 868.205 211.76V211.724ZM845.771 240.53C941.103 240.53 983.558 364.73 983.558 453.316C983.558 585.06 884.725 587.664 872.909 587.664C827.681 587.664 796.071 560.33 772.409 524.478C751.581 491.437 731.221 430.052 731.221 370.071C731.221 310.324 750.777 281.151 781.555 259.689C806.723 243.6 830.288 240.53 845.739 240.53H845.771Z" fill="black"/>
<path d="M1752.1 211.69C1634 211.69 1570.12 286.458 1570.12 369.937C1570.12 433.49 1615.64 505.186 1709.57 505.186H1733.33C1733.33 505.186 1726.86 520.907 1726.83 536.095C1726.83 558.495 1734.87 571.074 1751.96 590.434C1590.34 600.28 1525.39 665.469 1525.39 735.53C1525.39 796.882 1584.14 857.264 1707.6 857.264C1853.76 857.264 1929.46 776.117 1929.46 696.48C1929.46 640.338 1901.49 609.563 1830.66 556.492C1809.84 540.303 1805.8 529.993 1805.8 517.877C1805.8 500.52 1816.18 489.034 1819.98 484.698C1826.69 477.622 1838.31 469.544 1842.65 465.673C1866.45 445.512 1900.06 415.675 1900.06 356.125C1900.06 315.27 1883.06 280.123 1844.35 247.212H1891.61L1927.13 211.698H1752.1V211.69ZM1719.52 238.259C1740.95 238.259 1758.84 245.837 1777.73 261.558C1798.69 280.45 1832.17 331.218 1832.17 394.036C1832.17 461.828 1779.5 480.386 1751 480.386C1737.04 480.386 1720.33 476.481 1706.17 466.801C1674.73 446.41 1643.52 392.133 1643.52 327.546C1643.52 269.268 1678.23 238.259 1719.52 238.259ZM1766.28 616.169C1775.29 616.169 1781.77 616.907 1781.77 616.907C1781.77 616.907 1803.03 632.094 1817.89 643.439C1852.47 670.776 1874.03 691.671 1874.03 728.891C1874.03 780.06 1826.56 820.18 1749.69 820.18C1665.31 820.18 1600.83 780.894 1600.83 716.744C1600.83 663.602 1645.02 617.868 1766.28 616.169Z" fill="black"/>
<path d="M1952.7 601.683H2114.82L2139.51 576.987L2093.02 571.179C2080.5 569.644 2073.06 558.829 2073.06 548.348V58.6552C2073.06 49.0089 2077.53 44.0688 2080.8 40.9279L2110.04 11.6885H1971.79L1935.81 47.6704H1989.55V554.92C1989.55 562.13 1987.28 567.036 1982.4 572.076L1952.7 601.683Z" fill="black"/>
<path d="M2334.48 211.724C2243.96 211.724 2147.8 280.717 2147.8 404.583C2147.8 506.885 2216.79 613.398 2345.7 613.398C2377.84 613.398 2404.31 609.263 2429.11 597.881C2455.71 585.631 2481.31 565.737 2500 540.737C2464.72 558.527 2435.95 570.21 2397.73 570.21C2325.1 570.21 2255.07 517.806 2230.57 421.476L2487.15 317.77C2472.33 264.932 2430.54 211.724 2334.51 211.724H2334.48ZM2317.72 240.062C2366.29 240.062 2401.4 280.016 2401.4 311.291C2401.4 321.405 2395.06 326.746 2382.51 331.686L2224.8 395.471C2224.8 395.471 2220.53 375.612 2220.53 354.149C2220.53 264.128 2285.62 240.062 2317.72 240.062Z" fill="black"/>
<path d="M1327.02 211.724C1191.81 211.724 1108.03 310.527 1108.03 415.401C1108.03 505.923 1175.52 613.398 1312.27 613.398C1443.81 613.398 1524.52 514.402 1524.52 407.691C1524.52 308.291 1445.65 211.76 1327.02 211.76V211.724ZM1304.59 240.53C1399.92 240.53 1442.37 364.73 1442.37 453.316C1442.37 585.06 1343.54 587.664 1331.73 587.664C1286.5 587.664 1254.89 560.33 1231.23 524.478C1210.4 491.437 1190.04 430.052 1190.04 370.071C1190.04 310.324 1209.59 281.151 1240.37 259.689C1265.54 243.6 1289.1 240.53 1304.56 240.53H1304.59Z" fill="black"/>
</g>
<defs>
<clipPath id="clip0_5_69">
<rect width="2500" height="857" fill="white" transform="translate(0 0.5)"/>
</clipPath>
</defs>
</svg>
