<svg width="100" height="30" viewBox="0 0 100 30" fill="none" xmlns="http://www.w3.org/2000/svg">
<g clip-path="url(#clip0_5_47)">
<path d="M11.3 1.4993C11.5 1.4993 11.6 1.5993 11.8 1.6993C10.6 2.1993 9.4 3.4993 8.8 6.2993L6.6 6.8993C7.3 4.8993 8.7 1.4993 11.3 1.4993ZM12.4 2.4993C12.6 3.0993 12.8 3.7993 12.8 4.8993C12.8 4.9993 12.8 4.9993 12.8 5.0993L9.9 5.8993C10.5 3.7993 11.5 2.8993 12.4 2.4993ZM15 4.2993L13.7 4.6993C13.7 4.5993 13.7 4.4993 13.7 4.3993C13.7 3.4993 13.6 2.7993 13.4 2.1993C14.1 2.3993 14.7 3.2993 15 4.2993ZM21.5 5.8993C21.5 5.7993 21.4 5.6993 21.3 5.6993C21.1 5.6993 19 5.4993 19 5.4993C19 5.4993 17.5 3.9993 17.3 3.8993C17.1 3.6993 16.8 3.7993 16.7 3.7993C16.7 3.7993 16.4 3.8993 15.9 4.0993C15.4 2.6993 14.5 1.3993 13 1.3993H12.9C12.5 0.799295 11.9 0.599296 11.4 0.599296C7.8 0.499296 6.1 4.9993 5.5 7.2993C4.7 7.4993 3.9 7.7993 3 8.0993C2.2 8.2993 2.2 8.3993 2.1 9.0993C2 9.5993 0 25.3993 0 25.3993L15.9 28.3993L24.5 26.4993C24.5 26.4993 21.5 6.0993 21.5 5.8993Z" fill="black"/>
<path d="M21.1984 5.69883C21.0984 5.69883 18.9984 5.49883 18.9984 5.49883C18.9984 5.49883 17.4984 3.99883 17.2984 3.89883C17.1984 3.79883 17.1984 3.79883 17.0984 3.79883L15.8984 28.3988L24.4984 26.4988C24.4984 26.4988 21.4984 6.09883 21.4984 5.89883C21.4984 5.79883 21.2984 5.69883 21.1984 5.69883Z" fill="black"/>
<path d="M12.9992 10.4992L11.8992 13.6992C11.8992 13.6992 10.9992 13.1992 9.79922 13.1992C8.09922 13.1992 7.99922 14.1992 7.99922 14.4992C7.99922 15.8992 11.7992 16.4992 11.7992 19.8992C11.7992 22.5992 10.0992 24.2992 7.79922 24.2992C5.09922 24.2992 3.69922 22.5992 3.69922 22.5992L4.39922 20.1992C4.39922 20.1992 5.79922 21.3992 6.99922 21.3992C7.79922 21.3992 8.09922 20.7992 8.09922 20.2992C8.09922 18.3992 4.99922 18.2992 4.99922 15.1992C4.99922 12.5992 6.89922 10.0992 10.5992 10.0992C12.2992 9.99916 12.9992 10.4992 12.9992 10.4992Z" fill="#FFFFFE"/>
<path d="M34.6 16.4C33.7 15.9 33.3 15.5 33.3 15C33.3 14.3 33.9 13.9 34.9 13.9C36 13.9 37 14.4 37 14.4L37.8 12C37.8 12 37.1 11.4 35 11.4C32 11.4 30 13.1 30 15.5C30 16.9 31 17.9 32.2 18.6C33.2 19.2 33.6 19.6 33.6 20.2C33.6 20.8 33.1 21.4 32.1 21.4C30.7 21.4 29.3 20.7 29.3 20.7L28.5 23.1C28.5 23.1 29.7 23.9 31.8 23.9C34.8 23.9 37 22.4 37 19.7C37 18.2 35.9 17.1 34.6 16.4ZM46.7 11.3C45.2 11.3 44 12 43.1 13.1L44.4 6.3H41L37.7 23.6H41.1L42.2 17.7C42.6 15.5 43.8 14.1 44.9 14.1C45.7 14.1 46 14.6 46 15.4C46 15.9 46 16.4 45.9 16.9L44.6 23.7H48L49.3 16.7C49.4 16 49.5 15.1 49.5 14.5C49.5 12.5 48.5 11.3 46.7 11.3ZM55.4 21.2C54.2 21.2 53.8 20.2 53.8 19C53.8 17.1 54.8 13.9 56.6 13.9C57.8 13.9 58.2 14.9 58.2 15.9C58.2 18.1 57.2 21.2 55.4 21.2ZM57.1 11.3C53 11.3 50.3 15 50.3 19.1C50.3 21.7 51.9 23.8 55 23.8C59 23.8 61.7 20.2 61.7 16C61.7 13.6 60.3 11.3 57.1 11.3ZM67.1 21.3C66.2 21.3 65.7 20.8 65.7 20.8L66.3 17.6C66.7 15.5 67.8 14.1 69 14.1C70 14.1 70.4 15.1 70.4 16C70.3 18.2 69 21.3 67.1 21.3ZM70.4 11.3C68.1 11.3 66.8 13.3 66.8 13.3L67 11.5H64C63.9 12.7 63.6 14.6 63.3 16L60.9 28.4H64.3L65.2 23.4H65.3C65.3 23.4 66 23.8 67.3 23.8C71.3 23.8 73.9 19.7 73.9 15.6C73.9 13.4 72.9 11.3 70.4 11.3ZM78.7 6.5C77.6 6.5 76.8 7.4 76.8 8.5C76.8 9.5 77.4 10.2 78.4 10.2C79.5 10.2 80.4 9.5 80.4 8.2C80.4 7.2 79.7 6.5 78.7 6.5ZM74 23.6H77.4L79.7 11.6H76.3L74 23.6ZM88.3 11.6H85.9L86 11C86.2 9.8 86.9 8.8 88 8.8C88.6 8.8 89.1 9 89.1 9L89.8 6.3C89.8 6.3 89.2 6 88 6C86.8 6 85.6 6.3 84.7 7.1C83.5 8.1 83 9.5 82.7 10.9L82.6 11.5H81L80.5 14.1H82.1L80.3 23.6H83.7L85.5 14.1H87.8L88.3 11.6ZM96.4 11.6C96.4 11.6 94.3 16.9 93.3 19.8C93.2 18.9 92.5 11.6 92.5 11.6H88.9L90.9 22.6C90.9 22.8 90.9 23 90.8 23.2C90.4 24 89.7 24.7 89 25.2C88.4 25.7 87.6 26 87.1 26.2L88 29.1C88.7 29 90.1 28.4 91.3 27.3C92.8 25.9 94.3 23.6 95.7 20.6L99.8 11.7L96.4 11.6Z" fill="black"/>
</g>
<defs>
<clipPath id="clip0_5_47">
<rect width="100" height="28.6" fill="white" transform="translate(0 0.5)"/>
</clipPath>
</defs>
</svg>
