<svg width="2500" height="778" viewBox="0 0 2500 778" fill="none" xmlns="http://www.w3.org/2000/svg">
<g clip-path="url(#clip0_5_56)">
<path d="M388.478 0.517578C173.923 0.517578 0 174.441 0 389.003C0 603.55 173.923 777.481 388.478 777.481C603.033 777.481 776.956 603.55 776.956 389.003C776.956 174.441 603.033 0.517578 388.478 0.517578ZM565.436 561.903C563.651 564.724 561.327 567.165 558.596 569.086C555.866 571.006 552.783 572.369 549.524 573.095C546.266 573.822 542.896 573.898 539.608 573.319C536.32 572.74 533.179 571.517 530.365 569.721C464.652 527.928 389.886 515.921 326.823 515.95C259.339 515.906 205.981 529.714 194.765 532.908C193.161 533.358 192.595 533.54 192.595 533.54H192.609C186.169 535.526 179.204 534.872 173.245 531.722C167.287 528.573 162.824 523.185 160.838 516.745C158.852 510.304 159.506 503.339 162.655 497.381C165.805 491.423 171.193 486.96 177.633 484.974C179.172 484.538 241.909 465.17 326.83 465.133C396.05 465.162 480.703 478.055 557.625 526.846C563.307 530.461 567.321 536.184 568.786 542.758C570.25 549.331 569.045 556.217 565.436 561.903ZM615.882 454.433C613.822 457.923 611.095 460.972 607.856 463.407C604.617 465.842 600.929 467.614 597.005 468.623C593.08 469.632 588.995 469.857 584.983 469.285C580.971 468.714 577.112 467.357 573.624 465.293C486.844 413.976 397.436 400.037 325.887 400.023C253.437 400.001 199.825 414.462 188.958 417.685C187.404 418.135 186.983 418.28 186.983 418.28C179.235 420.67 170.858 419.914 163.663 416.176C156.468 412.438 151.033 406.018 148.533 398.305C146.033 390.592 146.669 382.205 150.304 374.957C153.938 367.709 160.279 362.183 167.956 359.573C170.018 358.948 233.785 338.368 325.879 338.324C405.255 338.31 506.271 353.802 605.022 412.175C612.065 416.339 617.167 423.13 619.203 431.055C621.24 438.98 620.045 447.389 615.882 454.433ZM639.664 352.364C633.494 352.364 627.243 350.818 621.494 347.573C524.855 292.938 422.206 277.635 338.373 277.649C250.497 277.62 184.021 294.542 170.337 298.353C168.377 298.905 167.796 299.087 167.796 299.087C163.146 300.506 158.262 300.995 153.423 300.527C148.584 300.058 143.885 298.64 139.594 296.355C135.303 294.069 131.505 290.961 128.415 287.207C125.326 283.453 123.007 279.127 121.589 274.477C120.17 269.826 119.68 264.941 120.149 260.101C120.618 255.261 122.035 250.561 124.32 246.269C126.606 241.976 129.714 238.177 133.468 235.086C137.222 231.995 141.548 229.674 146.199 228.256C148.53 227.595 227.208 203.675 338.373 203.61C430.932 203.624 546.655 220.328 657.907 283.101C665.04 287.121 670.638 293.392 673.826 300.933C677.014 308.474 677.613 316.859 675.527 324.776C673.442 332.693 668.791 339.696 662.302 344.688C655.812 349.679 647.851 352.379 639.664 352.364ZM1349.98 291.196C1280.82 291.196 1227.47 354.571 1227.47 432.756C1227.47 510.934 1275.57 574.316 1349.98 574.316C1419.13 574.316 1475.2 510.934 1475.2 432.756C1475.2 354.571 1419.14 291.196 1349.98 291.196ZM1334.1 512.61C1293.11 512.61 1261.96 476.857 1261.96 432.756C1261.96 388.654 1293.1 352.901 1334.1 352.901C1378.39 352.901 1406.25 388.654 1406.25 432.756C1406.25 476.857 1376.92 512.61 1334.1 512.61Z" fill="black"/>
<path d="M1195.26 297.548H1264.23V349.729L1248.8 400.545V471.326L1264.68 529.852V649.184H1194.8L1195.26 297.548ZM1638.54 290.891C1559.03 290.891 1494.56 354.266 1494.56 432.451C1494.56 510.636 1559.03 574.011 1638.54 574.011C1718.06 574.011 1782.52 510.636 1782.52 432.451C1782.52 354.266 1718.06 290.891 1638.54 290.891ZM1638.24 514.12C1595.98 514.12 1561.71 477.823 1561.71 433.054C1561.71 388.291 1595.98 351.994 1638.24 351.994C1680.5 351.994 1714.77 388.291 1714.77 433.054C1714.77 477.823 1680.51 514.12 1638.24 514.12ZM1987 296.945H2057.17V569.779H1987V296.945Z" fill="black"/>
<path d="M2023.3 263.064C2047.02 263.064 2066.25 243.836 2066.25 220.117C2066.25 196.398 2047.02 177.17 2023.3 177.17C1999.58 177.17 1980.35 196.398 1980.35 220.117C1980.35 243.836 1999.58 263.064 2023.3 263.064Z" fill="black"/>
<path d="M2187.23 283.638V568.878H2117.06V291.26C2117.06 291.26 2110.83 190.89 2204.79 192.887C2204.79 192.887 2232.6 193.489 2254.99 201.961V260.516C2254.99 260.516 2237.47 253.591 2213.86 253.388C2213.86 253.388 2186.87 252.516 2187.23 283.638ZM1889.9 483.216V225.54H1819.73V493.271C1819.73 493.271 1814.47 578.744 1907.46 573.053C1907.46 573.053 1934.32 573.053 1957.66 558.272V501.474C1957.66 501.474 1940.14 511.565 1916.53 511.761C1916.53 511.761 1888.91 512.494 1889.9 483.216Z" fill="black"/>
<path d="M2428.07 296.944L2363.28 484.479L2291.19 296.944H2085V357.438H2242.29L2328.8 561.916C2321.58 592.769 2296.73 590.954 2296.73 590.954C2279.19 590.954 2259.83 578.853 2259.83 578.853L2236.24 629.669C2255.19 647.302 2301.58 649.633 2301.58 649.633C2370.54 649.633 2390.5 581.88 2390.5 581.88L2500 296.944H2428.07ZM1786.96 297.104H1959.54V357.561H1786.96V297.104ZM1124.93 306.019C1124.93 306.019 1079.56 269.721 1031.16 269.721C1031.16 269.721 982.175 267.187 979.743 304.204C979.743 304.204 977.246 335.434 1012.8 344.378C1012.8 344.378 1099.98 370.338 1121.88 380.973C1121.88 380.973 1175.32 403.354 1172.12 472.385C1172.12 472.385 1172.5 572.776 1042.05 574.018C1042.05 574.018 952.52 576.442 892.629 512.922L934.974 465.125C934.974 465.125 982.16 511.107 1045.68 511.107C1045.68 511.107 1096.37 512.798 1101.94 474.809C1101.94 474.809 1108.28 441.14 1060.2 430.04C1060.2 430.04 985.79 411.289 961.594 399.187C961.594 399.187 906.27 379.26 908.36 307.841C908.36 307.841 910.952 205.104 1035.4 206.81C1035.4 206.81 1107.43 204.458 1162.44 253.997L1124.93 306.019Z" fill="black"/>
</g>
<defs>
<clipPath id="clip0_5_56">
<rect width="2500" height="777" fill="white" transform="translate(0 0.5)"/>
</clipPath>
</defs>
</svg>
