<?xml version="1.0" encoding="UTF-8"?>
<svg version="1.1" xmlns="http://www.w3.org/2000/svg" width="225" height="225">
<path d="M0 0 C5.7587824 3.09267944 8.8721976 6.80577424 11.375 12.8125 C13.80203316 22.85772059 13.02439784 32.73017027 7.6875 41.625 C3.29762699 45.77758257 -1.22161985 48.02666773 -7.3125 48.25 C-12.25300938 48.02001077 -15.15342909 46.28407091 -18.625 42.8125 C-18.955 48.4225 -19.285 54.0325 -19.625 59.8125 C-23.915 59.8125 -28.205 59.8125 -32.625 59.8125 C-32.625 40.6725 -32.625 21.5325 -32.625 1.8125 C-27.625 1.8125 -22.625 1.8125 -17.625 1.8125 C-16.573125 1.3175 -15.52125 0.8225 -14.4375 0.3125 C-9.33218275 -1.90720315 -5.29311428 -1.73395123 0 0 Z M-17.625 12.8125 C-20.35066847 18.28289756 -20.30408449 23.83008901 -19.625 29.8125 C-18.35115213 33.00913711 -16.77739242 35.23630379 -13.625 36.8125 C-10.25142666 37.31320321 -10.25142666 37.31320321 -6.625 36.8125 C-3.99483839 34.6397578 -2.15163106 32.86576212 -0.625 29.8125 C0.27928035 21.08488656 0.27928035 21.08488656 -2.5 13.0625 C-5.01136094 10.40341195 -5.81561658 9.88444519 -9.4375 9.5625 C-13.09182966 9.84911409 -14.78110986 10.5215885 -17.625 12.8125 Z " fill="#EE0908" transform="translate(80.625,90.1875)"/>
<path d="M0 0 C4.81959684 7.22939526 3.05842676 17.50451221 2.9609375 25.83984375 C2.92127379 31.3464884 3.00293012 36.57843252 4 42 C2.04233719 42.08082094 0.08373272 42.13910778 -1.875 42.1875 C-3.51082031 42.23970703 -3.51082031 42.23970703 -5.1796875 42.29296875 C-6.11039063 42.19628906 -7.04109375 42.09960938 -8 42 C-8.66 41.01 -9.32 40.02 -10 39 C-10.598125 39.474375 -11.19625 39.94875 -11.8125 40.4375 C-16.65429783 43.89592702 -22.28207991 43.70110737 -28 43 C-31.80262653 41.47161313 -34.93446949 39.64736625 -37.1875 36.1640625 C-38.9443286 31.48481708 -39.11944835 25.70623921 -37.1953125 21.0546875 C-32.62193467 14.77812068 -24.67594743 14.05204526 -17.5625 12.875 C-16.04849609 12.65457031 -16.04849609 12.65457031 -14.50390625 12.4296875 C-12.01140767 12.12632553 -12.01140767 12.12632553 -10 11 C-10 9.35 -10 7.7 -10 6 C-11.93559313 5.86495862 -13.873872 5.76798871 -15.8125 5.6875 C-16.89144531 5.62949219 -17.97039062 5.57148437 -19.08203125 5.51171875 C-20.52642578 5.75341797 -20.52642578 5.75341797 -22 6 C-22.495 6.825 -22.99 7.65 -23.5 8.5 C-23.995 9.325 -24.49 10.15 -25 11 C-27.91796875 11.48828125 -27.91796875 11.48828125 -31.1875 11.3125 C-32.27417969 11.26738281 -33.36085937 11.22226563 -34.48046875 11.17578125 C-35.31191406 11.11777344 -36.14335937 11.05976562 -37 11 C-36.37929748 6.08788869 -35.73997333 2.82806539 -32.375 -0.9375 C-22.34474589 -7.06709973 -9.80409165 -6.28941728 0 0 Z M-16.375 21.3125 C-17.80972656 21.67794922 -17.80972656 21.67794922 -19.2734375 22.05078125 C-22.06279039 23.02185969 -23.87013441 23.96012873 -26 26 C-26.33397787 29.12586875 -26.33397787 29.12586875 -26 32 C-22.86133687 33.8903312 -21.07535293 34.21501682 -17.5 33.4375 C-14.32514048 32.61109505 -12.99716991 31.99758407 -10.4375 29.8125 C-8.66486006 26.34429143 -8.69853144 23.84372412 -9 20 C-11.61428214 20 -13.84502377 20.65117913 -16.375 21.3125 Z " fill="#EE0808" transform="translate(206,95)"/>
<path d="M0 0 C2.45570526 3.68355788 2.29285847 5.64986096 2.37890625 10.046875 C2.39590073 10.73630188 2.4128952 11.42572876 2.43040466 12.13604736 C2.48347458 14.34060491 2.5237466 16.54514809 2.5625 18.75 C2.60668601 20.94046689 2.65369723 23.13080116 2.70530701 25.32110596 C2.75152835 27.31908707 2.78920406 29.31726048 2.82641602 31.31542969 C2.99803466 34.95828288 3.42415897 38.40396705 4 42 C2.04233719 42.08082094 0.08373272 42.13910778 -1.875 42.1875 C-3.51082031 42.23970703 -3.51082031 42.23970703 -5.1796875 42.29296875 C-6.11039063 42.19628906 -7.04109375 42.09960938 -8 42 C-8.66 41.01 -9.32 40.02 -10 39 C-10.598125 39.474375 -11.19625 39.94875 -11.8125 40.4375 C-16.67004477 43.90717484 -22.26653412 43.67268495 -28 43 C-31.97826553 41.61117647 -34.83749269 39.70303619 -37.2265625 36.203125 C-39.29745499 31.70118481 -39.2845427 27.76575618 -37.89453125 23.04296875 C-36.3360599 19.48366519 -34.45366157 17.58059467 -31 16 C-24.10712853 14.03532526 -17.08968146 12.9778871 -10 12 C-10.37904208 8.70924004 -10.37904208 8.70924004 -12 6 C-14.25986007 5.68439384 -14.25986007 5.68439384 -16.875 5.625 C-18.20144531 5.55152344 -18.20144531 5.55152344 -19.5546875 5.4765625 C-20.36164062 5.64929688 -21.16859375 5.82203125 -22 6 C-22.47308594 6.82628906 -22.94617188 7.65257813 -23.43359375 8.50390625 C-23.95050781 9.32761719 -24.46742187 10.15132812 -25 11 C-27.91796875 11.48828125 -27.91796875 11.48828125 -31.1875 11.3125 C-32.27417969 11.26738281 -33.36085938 11.22226563 -34.48046875 11.17578125 C-35.31191406 11.11777344 -36.14335938 11.05976562 -37 11 C-36.77782151 5.55662705 -35.55506775 2.44152199 -31.80078125 -1.5546875 C-23.67073553 -8.07988689 -7.8931827 -5.97968387 0 0 Z M-16.375 21.3125 C-17.80972656 21.67794922 -17.80972656 21.67794922 -19.2734375 22.05078125 C-22.06279039 23.02185969 -23.87013441 23.96012873 -26 26 C-26.33397787 29.12586875 -26.33397787 29.12586875 -26 32 C-22.86133687 33.8903312 -21.07535293 34.21501682 -17.5 33.4375 C-14.32514048 32.61109505 -12.99716991 31.99758407 -10.4375 29.8125 C-8.66486006 26.34429143 -8.69853144 23.84372412 -9 20 C-11.61428214 20 -13.84502377 20.65117913 -16.375 21.3125 Z " fill="#F30504" transform="translate(43,95)"/>
<path d="M0 0 C0 3.96 0 7.92 0 12 C-2.24609375 12.5859375 -4.4921875 13.171875 -6.73828125 13.7578125 C-10.18435599 15.65047531 -10.73080153 17.25586452 -12 21 C-12.48921473 25.28867156 -12.60230328 29.56161173 -12.6875 33.875 C-12.72166016 35.0403125 -12.75582031 36.205625 -12.79101562 37.40625 C-12.87318678 40.27050179 -12.93827771 43.13523461 -13 46 C-16.96 46 -20.92 46 -25 46 C-25 31.15 -25 16.3 -25 1 C-21.37 1 -17.74 1 -14 1 C-13.34 1.66 -12.68 2.32 -12 3 C-11.319375 2.505 -10.63875 2.01 -9.9375 1.5 C-6.40534991 -0.30365111 -3.91363009 -0.23021353 0 0 Z " fill="#F00706" transform="translate(120,91)"/>
<path d="M0 0 C3.63 0 7.26 0 11 0 C12.76723811 1.76723811 12.12762833 4.3031884 12.12939453 6.69726562 C12.13254669 7.91522827 12.13569885 9.13319092 12.13894653 10.38806152 C12.13715675 11.72745805 12.1351058 13.06685424 12.1328125 14.40625 C12.1334856 15.7700604 12.13445567 17.13387068 12.13571167 18.49768066 C12.13718838 21.35930521 12.13503497 24.2208986 12.13037109 27.08251953 C12.12467381 30.75818614 12.12795296 34.43377974 12.13394356 38.10944366 C12.13754991 40.92662104 12.13641025 43.74378098 12.13381577 46.56095886 C12.1331467 47.91660063 12.13397421 49.27224396 12.13629532 50.62788391 C12.13882301 52.51950044 12.13429014 54.41112249 12.12939453 56.30273438 C12.12859894 57.38115601 12.12780334 58.45957764 12.12698364 59.57067871 C12 62 12 62 11 63 C7.37 63 3.74 63 0 63 C0 42.21 0 21.42 0 0 Z " fill="#FB0101" transform="translate(138,74)"/>
<path d="M0 0 C0.75 2.125 0.75 2.125 1 4 C1.66 4.33 2.32 4.66 3 5 C3 16.88 3 28.76 3 41 C0.36 41 -2.28 41 -5 41 C-5.33 40.01 -5.66 39.02 -6 38 C-7.485 37.505 -7.485 37.505 -9 37 C-9 37.66 -9 38.32 -9 39 C-9.66 39 -10.32 39 -11 39 C-12 36 -12 36 -10.6875 33.3125 C-10.130625 32.549375 -9.57375 31.78625 -9 31 C-8.34 31 -7.68 31 -7 31 C-7 30.34 -7 29.68 -7 29 C-6.34 29 -5.68 29 -5 29 C-4.94550162 27.27119018 -4.90698312 25.54187288 -4.875 23.8125 C-4.85179687 22.84957031 -4.82859375 21.88664062 -4.8046875 20.89453125 C-5.00937275 17.86109585 -5.83498587 15.78100148 -7 13 C-6.625 10.1875 -6.625 10.1875 -6 8 C-9.04236093 7.13882127 -11.90293121 6.74890466 -15.0625 6.625 C-16.34833984 6.55152344 -16.34833984 6.55152344 -17.66015625 6.4765625 C-18.43230469 6.64929688 -19.20445312 6.82203125 -20 7 C-20.46921875 7.82628906 -20.9384375 8.65257813 -21.421875 9.50390625 C-21.94265625 10.32761719 -22.4634375 11.15132812 -23 12 C-25.91796875 12.48828125 -25.91796875 12.48828125 -29.1875 12.3125 C-30.27417969 12.26738281 -31.36085937 12.22226563 -32.48046875 12.17578125 C-33.31191406 12.11777344 -34.14335937 12.05976562 -35 12 C-34.37929748 7.08788869 -33.73997333 3.82806539 -30.375 0.0625 C-21.84472113 -5.1504482 -8.38607625 -6.28955719 0 0 Z " fill="#FA0101" transform="translate(204,94)"/>
<path d="M0 0 C3.63 0 7.26 0 11 0 C11.99 0.99 12.98 1.98 14 3 C14 3.66 14 4.32 14 5 C13.484375 5.45375 12.96875 5.9075 12.4375 6.375 C11.7259375 7.179375 11.7259375 7.179375 11 8 C11.29153747 9.34309151 11.63142164 10.67597625 12 12 C12.08765291 13.33248961 12.13057168 14.66853867 12.1328125 16.00390625 C12.13474609 17.11475586 12.13474609 17.11475586 12.13671875 18.24804688 C12.13285156 19.01181641 12.12898438 19.77558594 12.125 20.5625 C12.12886719 21.33013672 12.13273437 22.09777344 12.13671875 22.88867188 C12.130981 26.17927139 12.04747031 28.85758907 11 32 C12.65 32.66 14.3 33.32 16 34 C14.515 34.495 14.515 34.495 13 35 C13.33 35.99 13.66 36.98 14 38 C13.34 38 12.68 38 12 38 C10.414131 41.171738 10.62133555 44.63513822 10.4375 48.125 C10.39431641 48.87910156 10.35113281 49.63320312 10.30664062 50.41015625 C10.2005168 52.27321888 10.09974999 54.13658524 10 56 C6.7 56 3.4 56 0 56 C0 37.52 0 19.04 0 0 Z " fill="#F90201" transform="translate(49,93)"/>
<path d="M0 0 C3.96 0 7.92 0 12 0 C12 14.85 12 29.7 12 45 C8.04 45 4.08 45 0 45 C0 30.15 0 15.3 0 0 Z " fill="#EE0A0A" transform="translate(123,92)"/>
<path d="M0 0 C3.96 0 7.92 0 12 0 C12 14.85 12 29.7 12 45 C8.04 45 4.08 45 0 45 C0 30.15 0 15.3 0 0 Z " fill="#EA0908" transform="translate(153,92)"/>
<path d="M0 0 C0.66 0 1.32 0 2 0 C2 2.64 2 5.28 2 8 C2.66 8 3.32 8 4 8 C4.19676145 11.60372397 4.38081639 15.2079869 4.5625 18.8125 C4.61857422 19.83666016 4.67464844 20.86082031 4.73242188 21.91601562 C4.78076172 22.89892578 4.82910156 23.88183594 4.87890625 24.89453125 C4.9260376 25.80050049 4.97316895 26.70646973 5.02172852 27.63989258 C5 30 5 30 4 33 C-0.455 33.495 -0.455 33.495 -5 34 C-5.33 32.68 -5.66 31.36 -6 30 C-6.928125 30.309375 -6.928125 30.309375 -7.875 30.625 C-8.57625 30.74875 -9.2775 30.8725 -10 31 C-10.66 30.34 -11.32 29.68 -12 29 C-10.68 26.69 -9.36 24.38 -8 22 C-7.34 22 -6.68 22 -6 22 C-6 18.37 -6 14.74 -6 11 C-6.99 11.33 -7.98 11.66 -9 12 C-10 9 -10 9 -10 6 C-7.09399739 4.74335022 -5.20395416 4 -2 4 C-1.34 2.68 -0.68 1.36 0 0 Z " fill="#F60304" transform="translate(41,102)"/>
<path d="M0 0 C-2.49092811 1.24546405 -3.41080733 0.7767578 -6 0 C-6 1.65 -6 3.3 -6 5 C-10.0265705 7.41967926 -13.11357978 6.98541172 -17.66015625 6.58203125 C-18.81837891 6.78892578 -18.81837891 6.78892578 -20 7 C-20.46921875 7.82242188 -20.9384375 8.64484375 -21.421875 9.4921875 C-21.94265625 10.31976563 -22.4634375 11.14734375 -23 12 C-25.91796875 12.48828125 -25.91796875 12.48828125 -29.1875 12.3125 C-30.27417969 12.26738281 -31.36085937 12.22226563 -32.48046875 12.17578125 C-33.31191406 12.11777344 -34.14335937 12.05976562 -35 12 C-34.37929748 7.08788869 -33.73997333 3.82806539 -30.375 0.0625 C-21.44343628 -5.39567783 -8.94680929 -5.87933182 0 0 Z " fill="#ED0908" transform="translate(204,94)"/>
<path d="M0 0 C0.66 0.33 1.32 0.66 2 1 C2 2.98 2 4.96 2 7 C7.29617695 8.42092552 10.1583348 7.4208326 15 5 C15.66 4.67 16.32 4.34 17 4 C16.67 4.763125 16.34 5.52625 16 6.3125 C14.82563314 8.99069135 14.82563314 8.99069135 15 12 C16.32 12 17.64 12 19 12 C19.33 13.32 19.66 14.64 20 16 C24.455 15.505 24.455 15.505 29 15 C29.33 14.01 29.66 13.02 30 12 C30.495 14.475 30.495 14.475 31 17 C29.04233719 17.08082094 27.08373272 17.13910778 25.125 17.1875 C23.48917969 17.23970703 23.48917969 17.23970703 21.8203125 17.29296875 C20.88960937 17.19628906 19.95890625 17.09960938 19 17 C18.34 16.01 17.68 15.02 17 14 C16.401875 14.474375 15.80375 14.94875 15.1875 15.4375 C10.34570217 18.89592702 4.71792009 18.70110737 -1 18 C-4.89785719 16.43333714 -8.02483206 14.59964457 -10.23828125 10.96875 C-11.16691646 8.56858515 -10.85147814 7.38413879 -10 5 C-9.67 6.65 -9.34 8.3 -9 10 C-8.34 10 -7.68 10 -7 10 C-7 10.99 -7 11.98 -7 13 C-5.35 13.33 -3.7 13.66 -2 14 C-2 12.68 -2 11.36 -2 10 C-1.34 10 -0.68 10 0 10 C-0.33 9.34 -0.66 8.68 -1 8 C-1.125 4.4375 -1.125 4.4375 -1 1 C-0.67 0.67 -0.34 0.34 0 0 Z " fill="#E60D0C" transform="translate(16,120)"/>
<path d="M0 0 C3.63 0 7.26 0 11 0 C11 0.33 11 0.66 11 1 C7.7 1 4.4 1 1 1 C1 21.13 1 41.26 1 62 C4.465 61.505 4.465 61.505 8 61 C8.00808685 60.36550934 8.01617371 59.73101868 8.02450562 59.07730103 C8.11036183 52.49142936 8.20985639 45.90586529 8.31738281 39.3203125 C8.35573762 36.86040398 8.39057884 34.40043813 8.421875 31.94042969 C8.46738451 28.41059837 8.52540198 24.88116405 8.5859375 21.3515625 C8.59748871 20.24632233 8.60903992 19.14108215 8.62094116 18.00234985 C8.64081085 16.98144257 8.66068054 15.96053528 8.68115234 14.90869141 C8.69447601 14.00712311 8.70779968 13.10555481 8.7215271 12.17666626 C9 10 9 10 11 8 C11.16780721 15.67198062 11.32777413 23.3440954 11.48217773 31.01635742 C11.53569002 33.62870016 11.59102613 36.24100618 11.64819336 38.85327148 C11.72984758 42.59871498 11.80503427 46.34423971 11.87890625 50.08984375 C11.90594131 51.26586655 11.93297638 52.44188934 11.96083069 53.65354919 C11.98092697 54.73459427 12.00102325 55.81563934 12.02172852 56.92944336 C12.04171402 57.88652695 12.06169952 58.84361053 12.08229065 59.82969666 C12 62 12 62 11 63 C7.37 63 3.74 63 0 63 C0 42.21 0 21.42 0 0 Z " fill="#D41717" transform="translate(138,74)"/>
<path d="M0 0 C3.96 0 7.92 0 12 0 C12 3.63 12 7.26 12 11 C8.04 11 4.08 11 0 11 C0 7.37 0 3.74 0 0 Z " fill="#CB1A1B" transform="translate(123,74)"/>
<path d="M0 0 C3.96 0 7.92 0 12 0 C12 3.63 12 7.26 12 11 C8.04 11 4.08 11 0 11 C0 7.37 0 3.74 0 0 Z " fill="#E10D0C" transform="translate(153,74)"/>
<path d="M0 0 C0 0.66 0 1.32 0 2 C0.66 2.33 1.32 2.66 2 3 C2 3.66 2 4.32 2 5 C2.66 5 3.32 5 4 5 C4 8.63 4 12.26 4 16 C3.34 16 2.68 16 2 16 C2.33 13.03 2.66 10.06 3 7 C2.13375 7.33 1.2675 7.66 0.375 8 C-3.01076391 9.00318931 -5.49638964 9.31143203 -9 9 C-9.99 8.34 -10.98 7.68 -12 7 C-11.67 5.68 -11.34 4.36 -11 3 C-12.0828125 3.495 -12.0828125 3.495 -13.1875 4 C-16.01697427 5.00603529 -18.02895466 5.16977402 -21 5 C-18.27960591 2.27960591 -15.93509713 2.15198872 -12.1875 1.375 C-10.96417969 1.11460938 -9.74085937 0.85421875 -8.48046875 0.5859375 C-5.5522772 0.09297596 -2.95485688 -0.12382257 0 0 Z " fill="#E50B0A" transform="translate(31,108)"/>
<path d="M0 0 C0.66 0 1.32 0 2 0 C6.81959684 7.22939526 5.05842676 17.50451221 4.9609375 25.83984375 C4.92127379 31.3464884 5.00293012 36.57843252 6 42 C4.04233719 42.08082094 2.08373272 42.13910778 0.125 42.1875 C-1.51082031 42.23970703 -1.51082031 42.23970703 -3.1796875 42.29296875 C-4.11039063 42.19628906 -5.04109375 42.09960938 -6 42 C-6.66 41.01 -7.32 40.02 -8 39 C-8.99 39.495 -8.99 39.495 -10 40 C-9.67 38.68 -9.34 37.36 -9 36 C-7.68 36.33 -6.36 36.66 -5 37 C-5 37.99 -5 38.98 -5 40 C-2.36 40 0.28 40 3 40 C3 28.12 3 16.24 3 4 C2.01 3.67 1.02 3.34 0 3 C0 2.01 0 1.02 0 0 Z " fill="#E70A09" transform="translate(204,95)"/>
<path d="M0 0 C1.670625 0.061875 1.670625 0.061875 3.375 0.125 C3.375 4.085 3.375 8.045 3.375 12.125 C1.93125 12.57875 0.4875 13.0325 -1 13.5 C-3.96738372 14.43260631 -5.39674356 14.89674356 -7.625 17.125 C-7.625 15.805 -7.625 14.485 -7.625 13.125 C-5.975 12.795 -4.325 12.465 -2.625 12.125 C-2.295 10.475 -1.965 8.825 -1.625 7.125 C-0.635 7.125 0.355 7.125 1.375 7.125 C1.375 6.135 1.375 5.145 1.375 4.125 C-0.935 3.465 -3.245 2.805 -5.625 2.125 C-3.625 0.125 -3.625 0.125 0 0 Z " fill="#DD1211" transform="translate(116.625,90.875)"/>
<path d="M0 0 C2.64 0 5.28 0 8 0 C8 2.64 8 5.28 8 8 C5.36 8 2.72 8 0 8 C0 5.36 0 2.72 0 0 Z " fill="#FA0301" transform="translate(125,75)"/>
<path d="M0 0 C2.4375 2.1875 2.4375 2.1875 4 5 C3.93107581 7.89481608 3.38861317 9.40685358 1.8125 11.8125 C-0.96207491 13.63032494 -2.76291093 13.52850434 -6 13 C-8.4375 10.875 -8.4375 10.875 -10 8 C-9.9375 4.8125 -9.9375 4.8125 -9 2 C-5.50434664 -0.33043558 -4.1134271 -0.58763244 0 0 Z M-6.6875 2.1875 C-8.4374512 4.60409928 -8.37447615 6.07908607 -8 9 C-6.11499729 11.31563087 -6.11499729 11.31563087 -3 11.25 C0.11499729 11.31563087 0.11499729 11.31563087 2 9 C2.50014953 6.54258463 2.50014953 6.54258463 2 4 C0.26961928 2.09798258 0.26961928 2.09798258 -2 1 C-4.93500458 0.7122533 -4.93500458 0.7122533 -6.6875 2.1875 Z " fill="#A72F2E" transform="translate(218,74)"/>
<path d="M0 0 C-5.75 3 -5.75 3 -8 3 C-8.33 4.65 -8.66 6.3 -9 8 C-9.66 8 -10.32 8 -11 8 C-11.66 9.65 -12.32 11.3 -13 13 C-9.7 13 -6.4 13 -3 13 C-3 12.01 -3 11.02 -3 10 C-2.34 10 -1.68 10 -1 10 C-1.33 11.32 -1.66 12.64 -2 14 C-5.96 14 -9.92 14 -14 14 C-13.76874532 8.33426027 -12.32998749 5.59591563 -8.5703125 1.3828125 C-5.63761108 -1.19971561 -3.5226599 -1.09323928 0 0 Z " fill="#D71615" transform="translate(20,92)"/>
<path d="M0 0 C0.474375 0.78375 0.94875 1.5675 1.4375 2.375 C4.90892793 5.9310969 8.2045751 6.31347549 13 7 C13 7.66 13 8.32 13 9 C7.06 9.495 7.06 9.495 1 10 C0 8 -1 6 -2 4 C-1.0625 1.875 -1.0625 1.875 0 0 Z " fill="#E10E0D" transform="translate(61,120)"/>
<path d="M0 0 C0.33 0 0.66 0 1 0 C1.33 2.31 1.66 4.62 2 7 C0.04233719 7.08082094 -1.91626728 7.13910778 -3.875 7.1875 C-5.51082031 7.23970703 -5.51082031 7.23970703 -7.1796875 7.29296875 C-8.11039063 7.19628906 -9.04109375 7.09960938 -10 7 C-10.66 6.01 -11.32 5.02 -12 4 C-12.99 4.495 -12.99 4.495 -14 5 C-13.67 3.68 -13.34 2.36 -13 1 C-11.02 1.495 -11.02 1.495 -9 2 C-9 2.99 -9 3.98 -9 5 C-6.03 5 -3.06 5 0 5 C0 3.35 0 1.7 0 0 Z " fill="#D12020" transform="translate(208,130)"/>
<path d="M0 0 C3.27642756 0.25866533 4.60820723 0.55416685 6.8125 3.0625 C7.204375 3.701875 7.59625 4.34125 8 5 C7 6 7 6 4.93359375 6.09765625 C4.10988281 6.08605469 3.28617188 6.07445313 2.4375 6.0625 C1.61121094 6.05347656 0.78492188 6.04445313 -0.06640625 6.03515625 C-0.70449219 6.02355469 -1.34257812 6.01195313 -2 6 C-1.125 1.125 -1.125 1.125 0 0 Z " fill="#F80202" transform="translate(173,99)"/>
<path d="M0 0 C2.31 0.66 4.62 1.32 7 2 C7.33 3.65 7.66 5.3 8 7 C5.53199953 5.84826645 3.95216435 4.95216435 2 3 C0.00383446 4.99616554 0.59016573 8.81701963 0.4375 11.5625 C0.39431641 12.27341797 0.35113281 12.98433594 0.30664062 13.71679688 C0.20028223 15.47761912 0.09961154 17.2387832 0 19 C-0.33 19 -0.66 19 -1 19 C-1.02697137 16.39576408 -1.04682489 13.79180756 -1.0625 11.1875 C-1.07087891 10.44951172 -1.07925781 9.71152344 -1.08789062 8.95117188 C-1.10259828 5.70077932 -1.03531702 3.10595105 0 0 Z " fill="#DF1011" transform="translate(60,130)"/>
<path d="M0 0 C0.66 0.33 1.32 0.66 2 1 C1.34 1.66 0.68 2.32 0 3 C0 2.01 0 1.02 0 0 Z M-2 3 C-1.34 3 -0.68 3 0 3 C1.1875 4.625 1.1875 4.625 2 7 C0.625 10.25 0.625 10.25 -1 13 C-2.74959319 10.37561021 -3.62068453 9.03452373 -4 6 C-3.34 5.01 -2.68 4.02 -2 3 Z " fill="#EF090C" transform="translate(63,95)"/>
<path d="M0 0 C0.99 0.66 1.98 1.32 3 2 C2.26394531 2.04898438 1.52789062 2.09796875 0.76953125 2.1484375 C-0.69419922 2.26058594 -0.69419922 2.26058594 -2.1875 2.375 C-3.15042969 2.44460937 -4.11335938 2.51421875 -5.10546875 2.5859375 C-8.03484663 2.88778048 -8.03484663 2.88778048 -10.73828125 4.1015625 C-11.48464844 4.39804688 -12.23101562 4.69453125 -13 5 C-13.66 4.67 -14.32 4.34 -15 4 C-9.90330498 1.03465017 -6.06593428 -0.71363933 0 0 Z " fill="#D21312" transform="translate(77,89)"/>
<path d="M0 0 C0 2.31 0 4.62 0 7 C-0.66 7 -1.32 7 -2 7 C-2 6.01 -2 5.02 -2 4 C-2.66 4 -3.32 4 -4 4 C-4 4.99 -4 5.98 -4 7 C-4.66 7 -5.32 7 -6 7 C-6 4.69 -6 2.38 -6 0 C-3.50907189 -1.24546405 -2.58919267 -0.7767578 0 0 Z M-4 1 C-4 1.66 -4 2.32 -4 3 C-3.34 3 -2.68 3 -2 3 C-2 2.34 -2 1.68 -2 1 C-2.66 1 -3.32 1 -4 1 Z " fill="#C72D29" transform="translate(218,77)"/>
<path d="M0 0 C1.0326802 2.78823655 1.04509293 3.8677274 0.0625 6.75 C-0.288125 7.4925 -0.63875 8.235 -1 9 C2.3 8.67 5.6 8.34 9 8 C9 8.66 9 9.32 9 10 C5.04 10 1.08 10 -3 10 C-1.125 1.125 -1.125 1.125 0 0 Z " fill="#CC1B1B" transform="translate(172,96)"/>
<path d="M0 0 C0.99 0.33 1.98 0.66 3 1 C3 1.66 3 2.32 3 3 C1.35 3.33 -0.3 3.66 -2 4 C-2.12375 4.94875 -2.2475 5.8975 -2.375 6.875 C-3 10 -3 10 -5 12 C-4.74337755 10.55989519 -4.46909179 9.1229313 -4.1875 7.6875 C-4.03667969 6.88699219 -3.88585937 6.08648437 -3.73046875 5.26171875 C-2.92427764 2.76554413 -1.97947998 1.67577894 0 0 Z " fill="#D41316" transform="translate(9,113)"/>
<path d="M0 0 C0 3 0 3 -2 6 C-2.66 6 -3.32 6 -4 6 C-4.33 6.66 -4.66 7.32 -5 8 C-5 7.01 -5 6.02 -5 5 C-5.99 4.67 -6.98 4.34 -8 4 C-6.865625 3.525625 -5.73125 3.05125 -4.5625 2.5625 C-1.24259834 1.36377917 -1.24259834 1.36377917 0 0 Z " fill="#D8100F" transform="translate(32,124)"/>
<path d="M0 0 C0.33 0.66 0.66 1.32 1 2 C0.0625 4.625 0.0625 4.625 -1 7 C-1.66 7 -2.32 7 -3 7 C-3 6.01 -3 5.02 -3 4 C-4.32 3.67 -5.64 3.34 -7 3 C-4.69 2.01 -2.38 1.02 0 0 Z " fill="#DB0D11" transform="translate(194,125)"/>
<path d="M0 0 C2 2 2 2 2.125 5.625 C2.08375 6.73875 2.0425 7.8525 2 9 C1.01 8.67 0.02 8.34 -1 8 C-0.67 5.36 -0.34 2.72 0 0 Z " fill="#E80908" transform="translate(89,99)"/>
</svg>
