<?xml version="1.0" encoding="UTF-8" standalone="no"?>
<!-- Created with Inkscape (http://www.inkscape.org/) -->

<svg
   xmlns:dc="http://purl.org/dc/elements/1.1/"
   xmlns:cc="http://creativecommons.org/ns#"
   xmlns:rdf="http://www.w3.org/1999/02/22-rdf-syntax-ns#"
   xmlns:svg="http://www.w3.org/2000/svg"
   xmlns="http://www.w3.org/2000/svg"
   xmlns:sodipodi="http://sodipodi.sourceforge.net/DTD/sodipodi-0.dtd"
   xmlns:inkscape="http://www.inkscape.org/namespaces/inkscape"
   version="1.0"
   width="1000"
   height="587.83368"
   id="svg2237"
   sodipodi:docname="Daihatsu symbol.svg"
   inkscape:version="0.92.2 (5c3e80d, 2017-08-06)">
  <metadata
     id="metadata18">
    <rdf:RDF>
      <cc:Work
         rdf:about="">
        <dc:format>image/svg+xml</dc:format>
        <dc:type
           rdf:resource="http://purl.org/dc/dcmitype/StillImage" />
        <dc:title></dc:title>
      </cc:Work>
    </rdf:RDF>
  </metadata>
  <sodipodi:namedview
     pagecolor="#ffffff"
     bordercolor="#666666"
     borderopacity="1"
     objecttolerance="10"
     gridtolerance="10"
     guidetolerance="10"
     inkscape:pageopacity="0"
     inkscape:pageshadow="2"
     inkscape:window-width="1366"
     inkscape:window-height="705"
     id="namedview16"
     showgrid="false"
     fit-margin-top="0"
     fit-margin-left="0"
     fit-margin-right="0"
     fit-margin-bottom="0"
     inkscape:zoom="0.47333333"
     inkscape:cx="300"
     inkscape:cy="392.52814"
     inkscape:window-x="-8"
     inkscape:window-y="-8"
     inkscape:window-maximized="1"
     inkscape:current-layer="svg2237" />
  <defs
     id="defs2239" />
  <g
     transform="matrix(5.3929694,0,0,5.3929694,-839.73118,-1958.2078)"
     id="layer1">
    <g
       transform="matrix(2799.7904,0,0,2797.3802,58.28573,-2418.7874)"
       id="g2225">
      <polygon
         points="76.191,88.746 76.191,111.19 38.043,111.19 38.043,88.746 "
         transform="matrix(0.0017361,0,0,-0.0017361,-0.03125,1.1875)"
         style="font-style:normal;font-variant:normal;font-weight:normal;font-stretch:normal;letter-spacing:normal;word-spacing:normal;text-anchor:start;fill:#ff0000;fill-opacity:1;fill-rule:evenodd;stroke:#e1114d;stroke-width:0;stroke-linecap:butt;stroke-linejoin:miter;stroke-miterlimit:10.43299961;stroke-dasharray:none;stroke-dashoffset:0;stroke-opacity:1"
         id="polygon36" />
      <path
         d="m 49.566,104.57 h 0.694 l 0.709,-0.01 1.459,-0.02 1.504,-0.05 1.537,-0.06 1.557,-0.08 1.565,-0.11 1.561,-0.12 1.544,-0.15 1.516,-0.17 1.475,-0.19 0.718,-0.1 0.704,-0.12 0.687,-0.11 0.669,-0.13 0.65,-0.13 0.629,-0.14 0.607,-0.14 0.582,-0.16 0.557,-0.16 0.53,-0.16 0.501,-0.18 0.471,-0.18 c 0.453,-0.18 0.813,-0.34 0.813,-0.67 0,-0.46 -0.996,-0.78 -1.914,-1.07 -3.602,-1.125 -10.036,-2.433 -19.457,-3.105 l -8.739,8.735 c -0.847,-0.02 -1.554,-0.05 -2.078,-0.09 l 9.028,-9.024 -2.45,-3.574 c 14.59,2.308 21.188,4.617 24.118,5.964 0.628,0.286 2.429,1.094 2.429,2.164 0,0.64 -0.609,1.03 -1.398,1.37 -3.008,1.29 -8.063,2.15 -13.059,2.58 -5.176,0.51 -12.07,0.65 -15.879,0.61 l 8.133,-8.13 c 1.602,0.117 3.113,0.25 4.543,0.399 z"
         transform="matrix(0.0017361,0,0,-0.0017361,-0.03125,1.1875)"
         style="font-style:normal;font-variant:normal;font-weight:normal;font-stretch:normal;letter-spacing:normal;word-spacing:normal;text-anchor:start;fill:#ffffff;fill-opacity:1;fill-rule:evenodd;stroke:#ffffff;stroke-width:0;stroke-linecap:butt;stroke-linejoin:miter;stroke-miterlimit:10.43299961;stroke-dasharray:none;stroke-dashoffset:0;stroke-opacity:1"
         id="path38"
         inkscape:connector-curvature="0" />
    </g>
  </g>
</svg>
