<?xml version="1.0" encoding="UTF-8"?>
<svg version="1.1" xmlns="http://www.w3.org/2000/svg" width="535" height="467">
<path d="M0 0 C0.93801453 -0.00785522 1.87602905 -0.01571045 2.84246826 -0.02380371 C20.82689316 -0.14097121 38.74136141 1.31929095 56.125 6.1875 C57.08075928 6.44829346 58.03651855 6.70908691 59.02124023 6.9777832 C89.52570432 15.49811053 116.03319645 30.74677416 138.25 53.375 C139.07757813 54.20644531 139.90515625 55.03789063 140.7578125 55.89453125 C162.30999133 79.80277264 173.26586631 119.21709318 173.453125 150.984375 C173.46027527 151.78456055 173.46742554 152.58474609 173.47479248 153.40917969 C173.6976207 185.68408765 169.68176937 214.96746996 155.25 244.375 C154.65215414 245.62360715 154.05450148 246.87230682 153.45703125 248.12109375 C151.45943383 252.24339416 149.3702778 256.31463303 147.25 260.375 C146.81558594 261.20805664 146.38117188 262.04111328 145.93359375 262.89941406 C126.94106137 299.07251717 102.52272966 331.00264623 74.25 360.375 C73.61143066 361.04418457 72.97286133 361.71336914 72.31494141 362.40283203 C71.37980713 363.36552002 71.37980713 363.36552002 70.42578125 364.34765625 C69.86415283 364.929104 69.30252441 365.51055176 68.72387695 366.10961914 C67.25 367.375 67.25 367.375 65.25 367.375 C64.92 368.365 64.59 369.355 64.25 370.375 C62.63840371 371.83407021 60.96025332 373.22042621 59.25 374.5625 C55.75258746 377.34789129 52.34504063 380.15257849 49.0625 383.1875 C9.28952519 418.84847385 -43.74000653 444.09459982 -95.00439453 457.64404297 C-96.86279527 458.13880127 -98.7179167 458.64601668 -100.56982422 459.16455078 C-128.54314754 466.97292489 -156.40122332 467.64397123 -185.25 467.75 C-186.47427704 467.7580365 -187.69855408 467.766073 -188.95993042 467.77435303 C-211.53596614 467.88668008 -233.93698531 466.56328093 -255.75 460.375 C-256.43384766 460.18147949 -257.11769531 459.98795898 -257.82226562 459.78857422 C-281.62151073 452.9310708 -302.63924455 442.14054522 -321.75 426.375 C-322.57242188 425.75496094 -323.39484375 425.13492187 -324.2421875 424.49609375 C-346.02061428 406.07602251 -359.06172832 370.47394314 -361.5390625 342.78222656 C-366.25478561 266.6101991 -336.1632582 195.10859746 -286.41308594 137.8359375 C-284.30740137 135.46839812 -282.16388299 133.13806836 -280.0078125 130.81640625 C-278.07656147 128.72811578 -276.2168194 126.60408466 -274.375 124.4375 C-269.90596617 119.28747054 -265.00529486 114.55211502 -260.15600586 109.7644043 C-257.19551644 106.83887117 -254.2556573 103.89550531 -251.35546875 100.91015625 C-246.4245419 95.86770601 -241.48818283 91.45158672 -235.75 87.375 C-233.87262637 85.96148038 -231.99785307 84.54450372 -230.125 83.125 C-228.00237026 81.53833427 -225.87798136 79.95444071 -223.75 78.375 C-223.21632812 77.97764648 -222.68265625 77.58029297 -222.1328125 77.17089844 C-212.37493577 69.94003165 -202.20052107 63.5531764 -191.75 57.375 C-190.94175781 56.89272949 -190.13351563 56.41045898 -189.30078125 55.91357422 C-175.19117767 47.5214611 -160.68007381 40.19431628 -145.75 33.375 C-144.93917969 33.0042334 -144.12835938 32.6334668 -143.29296875 32.25146484 C-118.99066501 21.28080053 -93.7230941 13.2475776 -67.75 7.375 C-66.06482161 6.97384138 -64.37989961 6.57160317 -62.6953125 6.16796875 C-58.07056304 5.08860041 -53.42968732 4.18171386 -48.75 3.375 C-47.89083984 3.22546875 -47.03167969 3.0759375 -46.14648438 2.921875 C-30.80681511 0.39968983 -15.50811136 0.06343834 0 0 Z M-132.0625 46.9375 C-133.14372635 47.29377975 -133.14372635 47.29377975 -134.24679565 47.65725708 C-141.67145128 50.11927013 -148.85233219 52.63586021 -155.75 56.375 C-156.9632906 56.97714193 -158.17949822 57.5734391 -159.3984375 58.1640625 C-173.84757931 65.260398 -187.92256738 72.58401278 -200.75 82.375 C-202.34919774 83.48635112 -203.95341425 84.59051424 -205.5625 85.6875 C-214.91312855 92.21361436 -223.86188862 99.30261446 -232.17578125 107.109375 C-234.39993802 109.06690296 -236.66174613 110.84682099 -239.01953125 112.63671875 C-243.71962369 116.26484328 -247.94639585 120.22582496 -252.125 124.4375 C-252.86105469 125.17774414 -253.59710938 125.91798828 -254.35546875 126.68066406 C-260.72568227 133.18196341 -266.42602175 140.0006446 -271.75 147.375 C-272.51441406 148.42945313 -273.27882813 149.48390625 -274.06640625 150.5703125 C-279.9839466 158.94749135 -285.43407968 167.60737839 -290.75 176.375 C-291.12092773 176.97554199 -291.49185547 177.57608398 -291.87402344 178.19482422 C-304.40902354 198.607841 -312.84032728 221.24554233 -318.75 244.375 C-318.96092285 245.17502441 -319.1718457 245.97504883 -319.38916016 246.79931641 C-329.11132434 283.84179199 -327.81029601 325.41159884 -308.74902344 359.41040039 C-284.50603985 400.85598796 -246.33546681 426.52830568 -200.75 439.375 C-195.12351933 440.77534277 -189.51548019 441.73782783 -183.75 442.375 C-183.0494751 442.46346191 -182.3489502 442.55192383 -181.62719727 442.64306641 C-115.38807693 450.36650531 -47.23758687 425.91988347 8.25 391.375 C9.10819336 390.84358398 9.96638672 390.31216797 10.85058594 389.76464844 C13.28343197 388.25122985 15.70671288 386.72405584 18.125 385.1875 C19.21458008 384.50095337 19.21458008 384.50095337 20.32617188 383.80053711 C22.00450243 382.71388849 23.63366256 381.5518823 25.25 380.375 C25.25 379.715 25.25 379.055 25.25 378.375 C26.36713379 377.98453491 26.36713379 377.98453491 27.50683594 377.58618164 C30.30990536 376.34855015 31.9426673 375.10251682 34.140625 372.99609375 C34.84646729 372.32594238 35.55230957 371.65579102 36.27954102 370.96533203 C37.01229248 370.25489746 37.74504395 369.54446289 38.5 368.8125 C39.25273193 368.09175293 40.00546387 367.37100586 40.78100586 366.62841797 C42.94467445 364.55138954 45.0981458 362.46425481 47.25 360.375 C48.28760338 359.37874267 49.32533992 358.38262398 50.36328125 357.38671875 C53.39944347 354.46788653 53.39944347 354.46788653 56.25 351.375 C56.25 350.715 56.25 350.055 56.25 349.375 C56.91 349.375 57.57 349.375 58.25 349.375 C59.65301437 348.06613189 59.65301437 348.06613189 61.125 346.25 C61.74375 345.52039063 62.3625 344.79078125 63 344.0390625 C64.11375 342.72035156 64.11375 342.72035156 65.25 341.375 C66.18594406 340.29812488 67.12354964 339.22269237 68.0625 338.1484375 C77.15712291 327.7096731 85.44053512 316.81375976 93.25 305.375 C93.63833008 304.8087793 94.02666016 304.24255859 94.42675781 303.65917969 C99.81829058 295.77733155 104.90510274 287.89373557 109.25 279.375 C109.70173584 278.5080249 109.70173584 278.5080249 110.16259766 277.62353516 C124.70501273 249.70296599 134.47224055 220.15479144 134.5 188.4375 C134.50067474 187.74458862 134.50134949 187.05167725 134.50204468 186.33776855 C134.48560408 175.70331525 133.8424156 165.72695809 131.25 155.375 C130.89390677 153.81654881 130.53847014 152.25794748 130.18359375 150.69921875 C127.6551845 140.01800154 124.07599205 130.21935051 119.25 120.375 C118.92016113 119.68696289 118.59032227 118.99892578 118.25048828 118.29003906 C111.85007212 105.05136354 103.92649258 92.5953766 93.25 82.375 C92.41984375 81.55902344 91.5896875 80.74304688 90.734375 79.90234375 C72.24517409 62.39042917 51.17389003 50.70877233 27.25 42.375 C26.08726562 41.96378906 24.92453125 41.55257812 23.7265625 41.12890625 C17.41613008 39.04435467 11.00104969 37.59226424 4.5 36.25 C3.73872803 36.09112305 2.97745605 35.93224609 2.19311523 35.76855469 C-12.24696658 32.93628923 -26.62762112 31.96529569 -41.3125 32 C-42.56700958 32.00031723 -42.56700958 32.00031723 -43.84686279 32.00064087 C-74.40480625 32.07689659 -103.09252275 37.37201232 -132.0625 46.9375 Z " fill="#000000" transform="translate(361.75,-0.375)"/>
<path d="M0 0 C0 78.54 0 157.08 0 238 C-33.33 238 -66.66 238 -101 238 C-101.08032734 207.99327708 -101.08032734 207.99327708 -101.10050774 193.11669159 C-101.11156836 185.0875358 -101.1255862 177.0584218 -101.15087891 169.02929688 C-101.17090213 162.66989175 -101.18373749 156.31051824 -101.18817699 149.95108247 C-101.19076936 146.58821696 -101.19787344 143.22551301 -101.21146011 139.86266327 C-101.22606881 136.0955631 -101.22797401 132.32864757 -101.22705078 128.56152344 C-101.23424133 127.46387665 -101.24143188 126.36622986 -101.24884033 125.23532104 C-101.22245555 115.22563238 -100.42560205 105.62790986 -95.6875 96.6875 C-95.37482178 96.09702881 -95.06214355 95.50655762 -94.73999023 94.89819336 C-90.96810758 87.89575857 -86.94586282 82.73396326 -80.83984375 77.6171875 C-78.85425901 75.96652024 -78.85425901 75.96652024 -77 73.5 C-75.21902408 71.27378009 -73.53075038 69.66975123 -71.37060547 67.83764648 C-67.06768514 64.11140058 -63.05958511 60.15458556 -59.0703125 56.09765625 C-57.60169035 54.61640969 -56.13293668 53.13529352 -54.6640625 51.65429688 C-52.37766588 49.34291907 -50.09291719 47.02995354 -47.81054688 44.71459961 C-45.58893953 42.46297693 -43.36130595 40.21746068 -41.1328125 37.97265625 C-40.44639679 37.27278091 -39.75998108 36.57290558 -39.05276489 35.8518219 C-38.41805267 35.21373093 -37.78334045 34.57563995 -37.12939453 33.91821289 C-36.57172394 33.35308487 -36.01405334 32.78795685 -35.43948364 32.20570374 C-34 31 -34 31 -32 31 C-31.65388672 30.14728516 -31.65388672 30.14728516 -31.30078125 29.27734375 C-29.66878795 26.42013025 -27.67320933 24.71280628 -25.1875 22.5625 C-21.08341914 18.99238427 -17.22491783 15.27377176 -13.42114258 11.38647461 C-11.72122334 9.65054954 -10.01695066 7.9189748 -8.3125 6.1875 C-7.73177734 5.59001953 -7.15105469 4.99253906 -6.55273438 4.37695312 C-2.22580357 0 -2.22580357 0 0 0 Z " fill="#000000" transform="translate(382,117)"/>
<path d="M0 0 C3.27358451 1.63679226 4.76353221 2.51761824 7.1887207 4.97753906 C7.78646805 5.57866516 8.38421539 6.17979126 9.00007629 6.7991333 C9.63555893 7.44807556 10.27104156 8.09701782 10.92578125 8.765625 C11.59159714 9.43664246 12.25741302 10.10765991 12.94340515 10.79901123 C15.07124553 12.94464315 17.19229698 15.096823 19.3125 17.25 C21.42280294 19.38806055 23.53459168 21.52459683 25.64945984 23.65814209 C26.96351872 24.98430286 28.27489775 26.31312651 29.58308411 27.64508057 C33.09269941 31.19244431 36.68630343 34.53031227 40.53703308 37.70599365 C42 39 42 39 43.9375 41.4375 C45.74211635 43.6795991 47.44005349 45.31193463 49.61694336 47.16308594 C53.97256377 50.93504941 58.09664255 54.90142884 62.19140625 58.953125 C62.94034653 59.69399353 63.6892868 60.43486206 64.46092224 61.19818115 C66.03294199 62.75646507 67.60348514 64.3162399 69.17260742 65.87744141 C70.76319658 67.45649396 72.35824652 69.03106604 73.95776367 70.60107422 C87.50793774 83.90204648 99.71010317 96.28192566 100.48101807 116.42268372 C100.49240681 118.69038832 100.4824542 120.95827412 100.45410156 123.22583008 C100.45468567 124.47618546 100.45526978 125.72654083 100.45587158 127.01478577 C100.45358469 130.3986025 100.43371677 133.78140706 100.40557575 137.16504502 C100.38033673 140.7177208 100.37820258 144.27041429 100.37347412 147.82316589 C100.36110969 154.53064418 100.3283781 161.2378574 100.28807616 167.9452197 C100.23473085 177.02308195 100.21336009 186.10101821 100.19006729 195.17899799 C100.15261067 209.45286334 100.07287731 223.7261697 100 238 C67 238 34 238 0 238 C0 159.46 0 80.92 0 0 Z " fill="#000000" transform="translate(157,117)"/>
</svg>
