<?xml version="1.0" encoding="UTF-8"?>
<svg version="1.1" xmlns="http://www.w3.org/2000/svg" width="225" height="225">
<path d="M0 0 C10.12107038 9.26723523 15.24345509 22.50115835 16.31640625 35.97265625 C16.95746247 51.79085558 13.49582255 66.31179211 3.3125 78.6875 C-0.90062982 83.23324533 -5.50665304 86.1974474 -11 89 C-11.73089844 89.37898438 -12.46179688 89.75796875 -13.21484375 90.1484375 C-35.03878331 100.64602868 -64.83168506 99.98611829 -87.52734375 92.8984375 C-100.44930398 88.30988346 -111.84134521 80.5943425 -118 68 C-124.30181088 51.8953722 -126.06148025 33.16535787 -119 17 C-116.22197225 10.97206034 -113.74634561 5.67127636 -108 2 C-105.94729537 0.15811388 -105.94729537 0.15811388 -105 -2 C-104.01 -2.33 -103.02 -2.66 -102 -3 C-101.38511719 -3.4640625 -100.77023438 -3.928125 -100.13671875 -4.40625 C-75.99199985 -22.41547361 -22.54348973 -18.32202544 0 0 Z M-95.703125 8.6796875 C-97.29844136 10.36949387 -97.29844136 10.36949387 -99 13 C-98.30968373 16.201525 -98.30968373 16.201525 -95.47485352 17.39111328 C-94.37069092 17.86274902 -93.26652832 18.33438477 -92.12890625 18.8203125 C-90.90149418 19.36152916 -89.67428768 19.9032122 -88.44726562 20.4453125 C-86.5219495 21.2813721 -84.59447493 22.11142616 -82.66235352 22.93164062 C-70.51531525 28.12060539 -61.43860457 34.9025696 -54 46 C-53.38125 45.38125 -52.7625 44.7625 -52.125 44.125 C-48 40 -48 40 -46.4375 38.5625 C-44.75506028 36.94783153 -44.75506028 36.94783153 -44 34 C-42.66666667 33.66666667 -41.33333333 33.33333333 -40 33 C-39.67 32.01 -39.34 31.02 -39 30 C-31.88415106 25.44794957 -23.55713752 22.48428131 -15.70117188 19.44824219 C-12.14807068 18.04310735 -9.57098265 16.81996202 -7 14 C-17.09334522 1.9674241 -26.2488778 -3.30586035 -42 -5.75 C-61.63514272 -7.46285288 -81.17834682 -5.64520841 -95.703125 8.6796875 Z M-3 31 C-4.7325 31.8353125 -4.7325 31.8353125 -6.5 32.6875 C-10.85422198 34.64483953 -15.30438235 36.03063745 -19.875 37.375 C-30.60891921 40.60979418 -41.18795381 45.07071634 -47.2421875 55.046875 C-48.25072654 57.00506029 -49.15365752 58.96707685 -50 61 C-50.4125 61.99 -50.825 62.98 -51.25 64 C-51.4975 64.66 -51.745 65.32 -52 66 C-55 65 -55 65 -56.10546875 63.03125 C-56.64107422 61.77828125 -56.64107422 61.77828125 -57.1875 60.5 C-63.30904301 47.82224821 -72.47162436 42.60970293 -85.30078125 38.11328125 C-95.05825807 34.7483083 -95.05825807 34.7483083 -105 32 C-109.11146206 40.22292413 -105.50941999 53.65592037 -103 62 C-102.03301269 64.01616853 -101.03818363 66.01955188 -100 68 C-99.3125 70.375 -99.3125 70.375 -99 72 C-98.34 72 -97.68 72 -97 72 C-96.2265625 73.051875 -96.2265625 73.051875 -95.4375 74.125 C-88.34582097 82.48954449 -78.65293387 85.75447395 -68 87 C-49.859535 88.28647948 -29.79759007 89.17854758 -15 77 C-14.030625 76.2575 -13.06125 75.515 -12.0625 74.75 C-7.18943639 70.61527936 -5.95207497 66.01430513 -3.9375 60.0625 C-3.42509766 58.56396484 -3.42509766 58.56396484 -2.90234375 57.03515625 C-1.28622057 51.59910554 -0.84283622 46.47323808 -0.8125 40.8125 C-0.79832031 39.60207031 -0.78414063 38.39164063 -0.76953125 37.14453125 C-0.75243337 33.83791998 -0.75243337 33.83791998 -3 31 Z " fill="#C0C0C1" transform="translate(166,51)"/>
<path d="M0 0 C5.35733316 -0.06884721 10.71313365 -0.12858633 16.07055664 -0.16479492 C17.89320067 -0.1798876 19.71580836 -0.20036395 21.53833008 -0.22631836 C24.157155 -0.26268103 26.77550007 -0.27972124 29.39453125 -0.29296875 C30.61811089 -0.31619453 30.61811089 -0.31619453 31.8664093 -0.33988953 C37.58486014 -0.34159322 37.58486014 -0.34159322 39.69364929 1.39360046 C41.99653724 4.22542664 42.24933814 7.47766359 43 11 C43.99 10.34 44.98 9.68 46 9 C47.90112305 8.77294922 47.90112305 8.77294922 50.01171875 8.8046875 C50.76904297 8.81113281 51.52636719 8.81757813 52.30664062 8.82421875 C53.48516602 8.84935547 53.48516602 8.84935547 54.6875 8.875 C55.48478516 8.88402344 56.28207031 8.89304688 57.10351562 8.90234375 C59.069139 8.92588415 61.03460775 8.96175453 63 9 C63 8.34 63 7.68 63 7 C56.73 7 50.46 7 44 7 C44 4.69 44 2.38 44 0 C48.10403363 -0.08694042 52.20783129 -0.14037149 56.3125 -0.1875 C57.47974609 -0.21263672 58.64699219 -0.23777344 59.84960938 -0.26367188 C60.96787109 -0.27333984 62.08613281 -0.28300781 63.23828125 -0.29296875 C64.26993408 -0.3086792 65.30158691 -0.32438965 66.36450195 -0.34057617 C69 0 69 0 70.84179688 1.29492188 C72.78317021 4.1529639 72.30851871 7.36413992 72.1875 10.6875 C72.16719727 11.7403418 72.16719727 11.7403418 72.14648438 12.81445312 C72.11120182 14.54329829 72.05739583 16.27174765 72 18 C75.02166977 15.9387234 78.04218045 13.8757544 81.0625 11.8125 C81.91005859 11.23435547 82.75761719 10.65621094 83.63085938 10.06054688 C84.46552734 9.49013672 85.30019531 8.91972656 86.16015625 8.33203125 C86.99836914 7.77016113 87.83658203 7.20829102 88.70019531 6.62939453 C90.96037011 5.10206967 90.96037011 5.10206967 92.65136719 3.47607422 C97.96964166 -1.30560305 104.22830884 -0.68970729 111.07080078 -0.54199219 C113.12759573 -0.49994694 115.18112651 -0.50094714 117.23828125 -0.5078125 C128.43833536 -0.39724928 128.43833536 -0.39724928 133 3 C134.45647275 5.59977901 135.10562614 8.1285892 136 11 C136.99 10.34 137.98 9.68 139 9 C140.90112305 8.77294922 140.90112305 8.77294922 143.01171875 8.8046875 C143.76904297 8.81113281 144.52636719 8.81757813 145.30664062 8.82421875 C146.09232422 8.84097656 146.87800781 8.85773438 147.6875 8.875 C148.48478516 8.88402344 149.28207031 8.89304688 150.10351562 8.90234375 C152.069139 8.92588415 154.03460775 8.96175453 156 9 C156 8.34 156 7.68 156 7 C149.73 7 143.46 7 137 7 C137 4.69 137 2.38 137 0 C141.10403363 -0.08694042 145.20783129 -0.14037149 149.3125 -0.1875 C150.47974609 -0.21263672 151.64699219 -0.23777344 152.84960938 -0.26367188 C153.96787109 -0.27333984 155.08613281 -0.28300781 156.23828125 -0.29296875 C157.26993408 -0.3086792 158.30158691 -0.32438965 159.36450195 -0.34057617 C162 0 162 0 163.84179688 1.19921875 C165.39747837 3.61800179 165.3426383 5.24119133 165.29296875 8.10546875 C165.28330078 9.08837891 165.27363281 10.07128906 165.26367188 11.08398438 C165.23853516 12.10814453 165.21339844 13.13230469 165.1875 14.1875 C165.17396484 15.22326172 165.16042969 16.25902344 165.14648438 17.32617188 C165.11111389 19.88463699 165.06175544 22.4420578 165 25 C160.77119589 25.14541967 156.54303587 25.23411527 152.3125 25.3125 C151.11431641 25.35439453 149.91613281 25.39628906 148.68164062 25.43945312 C139.96232198 25.5608921 139.96232198 25.5608921 137.05224609 23.86474609 C135.66796875 22.48046875 135.66796875 22.48046875 134 20 C133.566875 20.639375 133.13375 21.27875 132.6875 21.9375 C131 24 131 24 128 25 C126.08093083 25.08266486 124.15910526 25.10740663 122.23828125 25.09765625 C121.12001953 25.09443359 120.00175781 25.09121094 118.84960938 25.08789062 C117.68236328 25.07951172 116.51511719 25.07113281 115.3125 25.0625 C114.13365234 25.05798828 112.95480469 25.05347656 111.74023438 25.04882812 C108.82680133 25.03703285 105.91339433 25.01909727 103 25 C102.505 16.09 102.505 16.09 102 7 C94.575 12.445 94.575 12.445 87 18 C91.62 18 96.24 18 101 18 C101 20.31 101 22.62 101 25 C93 25 85 25 77 25 C75.44635742 25.01571045 75.44635742 25.01571045 73.86132812 25.03173828 C70.47214294 25.06587209 67.0831378 25.09079233 63.69384766 25.10986328 C62.23125346 25.11995463 60.7686796 25.13362675 59.30615234 25.15087891 C57.19363483 25.17512793 55.08138121 25.18647791 52.96875 25.1953125 C51.70482422 25.20578613 50.44089844 25.21625977 49.13867188 25.22705078 C46 25 46 25 43 23 C42.67 23.66 42.34 24.32 42 25 C39.03 25 36.06 25 33 25 C32.67 19.72 32.34 14.44 32 9 C29.03 8.505 29.03 8.505 26 8 C25.67 13.61 25.34 19.22 25 25 C22.03 25 19.06 25 16 25 C15.67 19.39 15.34 13.78 15 8 C13.35 8 11.7 8 10 8 C9.67 13.61 9.34 19.22 9 25 C6.03 25 3.06 25 0 25 C0 16.75 0 8.5 0 0 Z M112 7 C112 10.63 112 14.26 112 18 C113.95766281 18.08082094 115.91626728 18.13910778 117.875 18.1875 C118.96554688 18.22230469 120.05609375 18.25710937 121.1796875 18.29296875 C122.57574219 18.14794922 122.57574219 18.14794922 124 18 C126.38798682 15.09414313 126.38798682 15.09414313 125.6875 11.375 C125.35886877 8.17495688 125.35886877 8.17495688 124 7 C121.98035801 6.92755947 119.95832876 6.91622812 117.9375 6.9375 C116.83277344 6.94652344 115.72804688 6.95554688 114.58984375 6.96484375 C113.73519531 6.97644531 112.88054687 6.98804688 112 7 Z M51 15 C50.67 15.99 50.34 16.98 50 18 C52.64458379 19.32229189 54.67761301 19.09677194 57.625 19.0625 C58.62789062 19.05347656 59.63078125 19.04445312 60.6640625 19.03515625 C61.43492188 19.02355469 62.20578125 19.01195312 63 19 C63 17.68 63 16.36 63 15 C59.04 15 55.08 15 51 15 Z M144 15 C143.67 15.99 143.34 16.98 143 18 C145.64458379 19.32229189 147.67761301 19.09677194 150.625 19.0625 C151.62789062 19.05347656 152.63078125 19.04445312 153.6640625 19.03515625 C154.43492187 19.02355469 155.20578125 19.01195312 156 19 C156 17.68 156 16.36 156 15 C152.04 15 148.08 15 144 15 Z " fill="#454546" transform="translate(30,163)"/>
<path d="M0 0 C2.99663489 1.1584624 5.93794782 2.40846886 8.86328125 3.734375 C9.57742187 4.05784912 10.2915625 4.38132324 11.02734375 4.71459961 C12.5860679 5.42085486 14.14465592 6.12741059 15.703125 6.83422852 C20.23732208 8.86146803 24.76849352 10.65868577 29.47290039 12.24755859 C37.90082213 15.11607682 45.77764744 19.17574786 50.2578125 27.2734375 C50.50273438 27.84320313 50.74765625 28.41296875 51 29 C50.21496094 28.51789063 49.42992187 28.03578125 48.62109375 27.5390625 C39.34710361 21.72603018 39.34710361 21.72603018 28.78125 20.11328125 C24.62480691 19.98875971 21.18099096 19.01468999 17.3125 17.625 C16.66216797 17.40328125 16.01183594 17.1815625 15.34179688 16.953125 C12.1108615 15.83333088 9.00859656 14.62997383 6 13 C5.55371936 25.72726279 5.96191017 37.44183341 12 49 C12.33 49.99 12.66 50.98 13 52 C15.1460942 54.21884315 17.59567932 56.06874039 20 58 C21.4540625 59.299375 21.4540625 59.299375 22.9375 60.625 C33.97818421 68.21043498 49.22945698 67.5240238 62 67.25 C63.66143633 67.22986531 65.32289676 67.21162709 66.984375 67.1953125 C70.99019707 67.15195724 74.9948185 67.08333444 79 67 C72.39144776 71.40570149 63.60924576 70.25429252 55.9375 70.3125 C54.69033203 70.34150391 53.44316406 70.37050781 52.15820312 70.40039062 C40.776066 70.47733695 30.60725736 68.25588851 21 62 C21 62.66 21 63.32 21 64 C18.525 64.495 18.525 64.495 16 65 C36.79415095 75.01483005 64.1372978 77.04137137 86.36328125 70.328125 C99.87023157 65.39540415 108.48484391 59.18824689 114.71484375 46.2512207 C119.22215604 36.39538767 119.50244858 26.67116866 120 16 C121.65 16.33 123.3 16.66 125 17 C125.33 16.34 125.66 15.68 126 15 C126.84298601 38.07187868 126.84298601 38.07187868 122 48 C121.5875 48.86625 121.175 49.7325 120.75 50.625 C113.6547029 63.84805369 101.47511248 70.70989539 87.6171875 75.0625 C84.74902771 75.81009052 81.91535152 76.46770267 79 77 C77.52853516 77.27457031 77.52853516 77.27457031 76.02734375 77.5546875 C53.40847609 80.63656204 26.11693715 79.32433949 6.9921875 65.59375 C-4.15451483 56.67638814 -10.253191 45.25119423 -12 31 C-12.10957069 27.8733473 -12.09492787 24.75304258 -12.0625 21.625 C-12.05798828 20.79355469 -12.05347656 19.96210937 -12.04882812 19.10546875 C-12.03713164 17.07028103 -12.01919935 15.03513077 -12 13 C-11.67 13 -11.34 13 -11 13 C-10.93941406 14.19238281 -10.87882812 15.38476562 -10.81640625 16.61328125 C-10.73198851 18.17969925 -10.64734113 19.74610488 -10.5625 21.3125 C-10.52318359 22.09818359 -10.48386719 22.88386719 -10.44335938 23.69335938 C-10.40146484 24.45068359 -10.35957031 25.20800781 -10.31640625 25.98828125 C-10.26141968 27.03302612 -10.26141968 27.03302612 -10.20532227 28.09887695 C-10.04418847 30.2216572 -10.04418847 30.2216572 -9 33 C-6.525 32.505 -6.525 32.505 -4 32 C-4.04640625 31.030625 -4.0928125 30.06125 -4.140625 29.0625 C-4.4722782 18.76052239 -2.93586496 9.85611809 0 0 Z " fill="#CBCCCD" transform="translate(55,70)"/>
<path d="M0 0 C0.66 0 1.32 0 2 0 C2.20625 0.721875 2.4125 1.44375 2.625 2.1875 C6.53762261 10.1905917 15.603139 12.69516778 23.3125 15.9375 C33.21375413 20.11013293 42.75820383 24.18467937 50.3125 32.0625 C51.28123047 33.06990234 51.28123047 33.06990234 52.26953125 34.09765625 C54.29005717 36.31886646 56.19819914 38.59759886 58 41 C58.598125 40.030625 59.19625 39.06125 59.8125 38.0625 C62 35 62 35 65 34 C65.185625 33.0409375 65.185625 33.0409375 65.375 32.0625 C65.58125 31.381875 65.7875 30.70125 66 30 C67.65204456 29.29788106 69.31923769 28.63028587 71 28 C71.495 26.515 71.495 26.515 72 25 C81.27998889 19.10506044 94.08683351 13.41837791 105 12 C105.28875 12.804375 105.5775 13.60875 105.875 14.4375 C106.73262568 17.1326468 106.73262568 17.1326468 109 18 C101.42634102 21.98865782 93.75678031 25.06947625 85.6796875 27.87304688 C74.34320807 31.99919196 64.84165152 39.73400398 59.64453125 50.8359375 C58.45180478 54.84060697 58.69533959 58.87015892 59 63 C56.38316958 61.99734077 55.20524516 61.34833406 53.76171875 58.8984375 C53.22998047 57.64933594 53.22998047 57.64933594 52.6875 56.375 C47.75717787 46.0688447 41.46907841 41.42333869 31 37 C30.01 36.67 29.02 36.34 28 36 C28 35.34 28 34.68 28 34 C34.98990075 34.38832782 39.9053706 36.67282987 46 40 C47.33060675 40.67209218 48.66300718 41.34070308 50 42 C48.89337026 40.75426876 47.76321223 39.52944232 46.625 38.3125 C45.99851563 37.62800781 45.37203125 36.94351563 44.7265625 36.23828125 C38.03202162 30.74261947 29.619657 27.97535211 21.5625 25.0625 C13.9803836 22.25743143 6.89575987 19.26342063 0 15 C-0.13277344 15.73605469 -0.26554687 16.47210938 -0.40234375 17.23046875 C-0.57894531 18.20628906 -0.75554688 19.18210937 -0.9375 20.1875 C-1.11152344 21.15042969 -1.28554688 22.11335938 -1.46484375 23.10546875 C-1.79072736 24.86809471 -2.13910528 26.62700418 -2.52734375 28.37695312 C-2.98946606 30.941541 -3.11444195 33.26149766 -3.09765625 35.86328125 C-3.09443359 36.74951172 -3.09121094 37.63574219 -3.08789062 38.54882812 C-3.07951172 39.46083984 -3.07113281 40.37285156 -3.0625 41.3125 C-3.05798828 42.24384766 -3.05347656 43.17519531 -3.04882812 44.13476562 C-3.03709234 46.42324373 -3.02067363 48.71158808 -3 51 C-3.33 49.68 -3.66 48.36 -4 47 C-6.86724686 47.57344937 -7.8614515 47.8614515 -10 50 C-13.87807714 33.27368468 -11.81074633 19.08481799 -3.3671875 4.14453125 C-2 2 -2 2 0 0 Z " fill="#D2D3D4" transform="translate(55,55)"/>
<path d="M0 0 C4.18087152 -0.07441989 8.3613873 -0.12872818 12.54272461 -0.16479492 C13.96369141 -0.1798376 15.38461213 -0.20027704 16.80541992 -0.22631836 C18.85346886 -0.26290347 20.9009015 -0.27977097 22.94921875 -0.29296875 C24.79519653 -0.31653442 24.79519653 -0.31653442 26.6784668 -0.34057617 C30.28155115 0.02886908 32.1313021 0.83335741 35 3 C36.45647275 5.59977901 37.10562614 8.1285892 38 11 C38.99 10.34 39.98 9.68 41 9 C42.90112305 8.77294922 42.90112305 8.77294922 45.01171875 8.8046875 C45.76904297 8.81113281 46.52636719 8.81757813 47.30664062 8.82421875 C48.48516602 8.84935547 48.48516602 8.84935547 49.6875 8.875 C50.48478516 8.88402344 51.28207031 8.89304688 52.10351562 8.90234375 C54.069139 8.92588415 56.03460775 8.96175453 58 9 C58 8.34 58 7.68 58 7 C51.73 7 45.46 7 39 7 C39 4.69 39 2.38 39 0 C43.10403363 -0.08694042 47.20783129 -0.14037149 51.3125 -0.1875 C52.47974609 -0.21263672 53.64699219 -0.23777344 54.84960938 -0.26367188 C55.96787109 -0.27333984 57.08613281 -0.28300781 58.23828125 -0.29296875 C59.26993408 -0.3086792 60.30158691 -0.32438965 61.36450195 -0.34057617 C64 0 64 0 65.84179688 1.19921875 C67.39747837 3.61800179 67.3426383 5.24119133 67.29296875 8.10546875 C67.28330078 9.08837891 67.27363281 10.07128906 67.26367188 11.08398438 C67.23853516 12.10814453 67.21339844 13.13230469 67.1875 14.1875 C67.16719727 15.74114258 67.16719727 15.74114258 67.14648438 17.32617188 C67.11111389 19.88463699 67.06175544 22.4420578 67 25 C62.77119589 25.14541967 58.54303587 25.23411527 54.3125 25.3125 C53.11431641 25.35439453 51.91613281 25.39628906 50.68164062 25.43945312 C41.96232198 25.5608921 41.96232198 25.5608921 39.05224609 23.86474609 C37.66796875 22.48046875 37.66796875 22.48046875 36 20 C35.566875 20.639375 35.13375 21.27875 34.6875 21.9375 C33 24 33 24 30 25 C28.08093083 25.08266486 26.15910526 25.10740663 24.23828125 25.09765625 C23.12001953 25.09443359 22.00175781 25.09121094 20.84960938 25.08789062 C19.68236328 25.07951172 18.51511719 25.07113281 17.3125 25.0625 C16.13365234 25.05798828 14.95480469 25.05347656 13.74023438 25.04882812 C10.82680133 25.03703285 7.91339433 25.01909727 5 25 C4.67 19.06 4.34 13.12 4 7 C-0.62 10.3 -5.24 13.6 -10 17 C-10.66 16.67 -11.32 16.34 -12 16 C-5.87160095 10.95910392 0.33083568 6.30268666 7 2 C7 5.96 7 9.92 7 14 C8.32 14 9.64 14 11 14 C11.33 11.03 11.66 8.06 12 5 C14.43868168 4.8920141 16.87259133 4.81273411 19.3125 4.75 C20.00279297 4.71648437 20.69308594 4.68296875 21.40429688 4.6484375 C26.51094438 4.54975832 26.51094438 4.54975832 28.96875 6.8125 C30.3055994 9.64824115 30.21103932 11.90475667 30 15 C31.32 15 32.64 15 34 15 C34.17461992 10.54719212 34.30238787 6.91405938 32 3 C28.59145167 1.74943529 25.08223611 1.79807115 21.484375 1.68359375 C20.23398438 1.64169922 18.98359375 1.59980469 17.6953125 1.55664062 C16.39335937 1.51732422 15.09140625 1.47800781 13.75 1.4375 C12.43257812 1.39431641 11.11515625 1.35113281 9.7578125 1.30664062 C6.50531212 1.20058083 3.25273608 1.09851976 0 1 C0 0.67 0 0.34 0 0 Z M14 7 C14 10.63 14 14.26 14 18 C15.95766281 18.08082094 17.91626728 18.13910778 19.875 18.1875 C20.96554688 18.22230469 22.05609375 18.25710937 23.1796875 18.29296875 C24.57574219 18.14794922 24.57574219 18.14794922 26 18 C28.38798682 15.09414313 28.38798682 15.09414313 27.6875 11.375 C27.35886877 8.17495688 27.35886877 8.17495688 26 7 C23.98035801 6.92755947 21.95832876 6.91622812 19.9375 6.9375 C18.83277344 6.94652344 17.72804687 6.95554688 16.58984375 6.96484375 C15.73519531 6.97644531 14.88054687 6.98804688 14 7 Z M46 15 C45.67 15.99 45.34 16.98 45 18 C47.64458379 19.32229189 49.67761301 19.09677194 52.625 19.0625 C53.62789062 19.05347656 54.63078125 19.04445312 55.6640625 19.03515625 C56.43492187 19.02355469 57.20578125 19.01195312 58 19 C58 17.68 58 16.36 58 15 C54.04 15 50.08 15 46 15 Z " fill="#323334" transform="translate(128,163)"/>
<path d="M0 0 C0.33 0 0.66 0 1 0 C1.84298601 23.07187868 1.84298601 23.07187868 -3 33 C-3.4125 33.86625 -3.825 34.7325 -4.25 35.625 C-11.3452971 48.84805369 -23.52488752 55.70989539 -37.3828125 60.0625 C-40.25097229 60.81009052 -43.08464848 61.46770267 -46 62 C-46.98097656 62.18304688 -47.96195312 62.36609375 -48.97265625 62.5546875 C-71.57759866 65.63466469 -98.89031986 64.33273885 -118 50.59765625 C-123.71044562 46.03599168 -127.6629393 42.0111821 -130 35 C-130 34.34 -130 33.68 -130 33 C-125.13553326 34.24184553 -123.12504845 35.56032216 -120.3125 39.6875 C-112.66384517 49.78372438 -100.93000549 55.19916575 -88.625 57.25 C-64.56354178 59.93979716 -40.24775462 60.11134961 -19.890625 45.484375 C-10.08046085 36.88962942 -6.38690898 23.14635912 -5.51708984 10.67529297 C-5.3123865 7.45139116 -5.15045562 4.22687708 -5 1 C-3.35 1.33 -1.7 1.66 0 2 C0 1.34 0 0.68 0 0 Z " fill="#151516" transform="translate(180,85)"/>
<path d="M0 0 C0.483059 1.39449109 0.96125517 2.79066707 1.4375 4.1875 C1.70433594 4.96480469 1.97117188 5.74210937 2.24609375 6.54296875 C4.91746031 15.2491323 4.34474981 24.09103252 3 33 C0.36 33 -2.28 33 -5 33 C-5.06058594 31.72382812 -5.12117188 30.44765625 -5.18359375 29.1328125 C-5.26799568 27.46352984 -5.35264386 25.79425963 -5.4375 24.125 C-5.47681641 23.28324219 -5.51613281 22.44148438 -5.55664062 21.57421875 C-5.59853516 20.76855469 -5.64042969 19.96289062 -5.68359375 19.1328125 C-5.73858032 18.01737061 -5.73858032 18.01737061 -5.79467773 16.87939453 C-5.89955865 14.91135688 -5.89955865 14.91135688 -7 13 C-8.7325 13.8353125 -8.7325 13.8353125 -10.5 14.6875 C-14.1967012 16.34926631 -17.91118825 17.62002391 -21.79882812 18.76391602 C-33.62106361 22.24357916 -43.83510045 26.39594867 -51 37 C-52.60563469 40.26130332 -53.90102215 43.53677376 -55 47 C-55.66 47 -56.32 47 -57 47 C-57.91227509 37.72520325 -54.74840144 31.70953001 -49.01953125 24.51171875 C-40.21038057 14.96446072 -28.38326723 11.21131965 -16.47363281 6.89038086 C-11.71117487 5.14287321 -4.78101495 0 0 0 Z " fill="#0B0B0B" transform="translate(170,70)"/>
<path d="M0 0 C3.13053923 1.67447447 4.98862293 1.1203532 8.3515625 0.2578125 C8.1246875 1.3096875 7.8978125 2.3615625 7.6640625 3.4453125 C7.31508555 7.70283133 7.94053179 8.8823695 10.3515625 12.2578125 C10.3515625 12.9178125 10.3515625 13.5778125 10.3515625 14.2578125 C5.96694712 17.2578125 5.96694712 17.2578125 3.3515625 17.2578125 C2.9803125 16.29875 2.9803125 16.29875 2.6015625 15.3203125 C1.53593817 13.07039709 1.53593817 13.07039709 -0.7734375 12.5078125 C-1.3921875 12.4253125 -2.0109375 12.3428125 -2.6484375 12.2578125 C-1.9884375 11.5978125 -1.3284375 10.9378125 -0.6484375 10.2578125 C-10.16156758 -1.35529044 -19.65848552 -6.16616047 -34.6484375 -8.4921875 C-51.89131683 -9.99635357 -70.88296455 -9.08480151 -84.69921875 2.375 C-87.51246784 5.09240693 -89.55951067 7.95596041 -91.6484375 11.2578125 C-95.57564049 9.59630354 -98.5763493 7.19336344 -101.6484375 4.2578125 C-102.5234375 1.4453125 -102.5234375 1.4453125 -102.6484375 -0.7421875 C-99.07267854 -0.7421875 -97.59547815 0.34621857 -94.6484375 2.2578125 C-94.0296875 1.5565625 -93.4109375 0.8553125 -92.7734375 0.1328125 C-70.97856467 -21.53892545 -22.55664661 -18.52590563 0 0 Z " fill="#111111" transform="translate(158.6484375,54.7421875)"/>
<path d="M0 0 C0.33 0 0.66 0 1 0 C0.62897953 9.8320425 -4.24879825 18.43304571 -11.421875 25.0859375 C-31.5989787 40.06590843 -56.43719546 39.90043348 -80.5 37.3125 C-88.03384644 36.08605988 -96.79526117 33.95075139 -102 28 C-100.02 28 -98.04 28 -96 28 C-96 27.34 -96 26.68 -96 26 C-93.49400083 26.99792467 -90.9922171 28.00322261 -88.5 29.03515625 C-87.2625 29.54369141 -87.2625 29.54369141 -86 30.0625 C-85.175 30.40410156 -84.35 30.74570313 -83.5 31.09765625 C-76.38539905 33.66558253 -69.09195359 33.18382532 -61.625 33.1875 C-60.32304688 33.19974609 -59.02109375 33.21199219 -57.6796875 33.22460938 C-56.41640625 33.22654297 -55.153125 33.22847656 -53.8515625 33.23046875 C-52.13187256 33.23663208 -52.13187256 33.23663208 -50.37744141 33.24291992 C-45.15032436 32.86696348 -40.61166294 31.42719102 -36 29 C-34.4385713 28.45525286 -32.87599468 27.91378883 -31.3125 27.375 C-26.20817334 25.38620309 -22.73178131 22.47933952 -18.8125 18.70703125 C-17 17 -17 17 -15 16 C-14.71125 15.2575 -14.4225 14.515 -14.125 13.75 C-12.82061119 10.56149402 -11.43822527 8.43822527 -9 6 C-6.25 5.6875 -6.25 5.6875 -4 6 C-4 5.34 -4 4.68 -4 4 C-3.01 3.67 -2.02 3.34 -1 3 C-0.67 2.01 -0.34 1.02 0 0 Z " fill="#C2C3C4" transform="translate(172,106)"/>
<path d="M0 0 C2.99663489 1.1584624 5.93794782 2.40846886 8.86328125 3.734375 C9.57742187 4.05784912 10.2915625 4.38132324 11.02734375 4.71459961 C12.5860679 5.42085486 14.14465592 6.12741059 15.703125 6.83422852 C20.23732208 8.86146803 24.76849352 10.65868577 29.47290039 12.24755859 C37.90082213 15.11607682 45.77764744 19.17574786 50.2578125 27.2734375 C50.50273438 27.84320313 50.74765625 28.41296875 51 29 C50.21496094 28.51789063 49.42992187 28.03578125 48.62109375 27.5390625 C39.34710361 21.72603018 39.34710361 21.72603018 28.78125 20.11328125 C24.62480691 19.98875971 21.18099096 19.01468999 17.3125 17.625 C16.66216797 17.40328125 16.01183594 17.1815625 15.34179688 16.953125 C12.07884953 15.82223601 9.09833969 14.54916984 6 13 C5.67 19.6 5.34 26.2 5 33 C2.36 33 -0.28 33 -3 33 C-5.52011785 21.34445493 -3.14931725 11.20538325 0 0 Z " fill="#020202" transform="translate(55,70)"/>
<path d="M0 0 C3.74993479 -0.05811773 7.49975352 -0.09363593 11.25 -0.125 C12.84521484 -0.15013672 12.84521484 -0.15013672 14.47265625 -0.17578125 C15.49746094 -0.18222656 16.52226562 -0.18867188 17.578125 -0.1953125 C18.52075195 -0.20578613 19.46337891 -0.21625977 20.43457031 -0.22705078 C23 0 23 0 27 2 C27 9.26 27 16.52 27 24 C22.74962036 24.08081708 18.50077222 24.14041866 14.25 24.1875 C13.0434375 24.21263672 11.836875 24.23777344 10.59375 24.26367188 C9.43359375 24.27333984 8.2734375 24.28300781 7.078125 24.29296875 C6.00981445 24.3086792 4.94150391 24.32438965 3.84082031 24.34057617 C0.66884478 23.96029894 -0.67217242 23.12893092 -3 21 C-2.74476126 19.37247769 -2.47025506 17.74796804 -2.1875 16.125 C-2.03667969 15.22007812 -1.88585937 14.31515625 -1.73046875 13.3828125 C-1 11 -1 11 2 9 C3.99291992 8.77294922 3.99291992 8.77294922 6.23046875 8.8046875 C7.43413086 8.81435547 7.43413086 8.81435547 8.66210938 8.82421875 C9.49548828 8.84097656 10.32886719 8.85773438 11.1875 8.875 C12.4549707 8.88853516 12.4549707 8.88853516 13.74804688 8.90234375 C15.83215243 8.92589297 17.91611217 8.96176353 20 9 C20 7.68 20 6.36 20 5 C13.4 5 6.8 5 0 5 C0 3.35 0 1.7 0 0 Z M6 14 C5.67 14.99 5.34 15.98 5 17 C7.64458379 18.32229189 9.67761301 18.09677194 12.625 18.0625 C13.62789062 18.05347656 14.63078125 18.04445312 15.6640625 18.03515625 C16.43492187 18.02355469 17.20578125 18.01195312 18 18 C18 16.68 18 15.36 18 14 C14.04 14 10.08 14 6 14 Z " fill="#474849" transform="translate(168,164)"/>
<path d="M0 0 C9.5377636 4.50913878 15.38754225 12.52805029 19.29296875 22.203125 C21.93375024 29.94433282 23.15122192 36.67055729 23.0625 44.8125 C23.05798828 45.60076172 23.05347656 46.38902344 23.04882812 47.20117188 C23.03711312 49.13414761 23.01917998 51.06708393 23 53 C22.67 53 22.34 53 22 53 C21.505 46.565 21.505 46.565 21 40 C19.02 40.495 19.02 40.495 17 41 C16.90912109 42.42892578 16.90912109 42.42892578 16.81640625 43.88671875 C16.73261719 45.14097656 16.64882812 46.39523438 16.5625 47.6875 C16.48128906 48.92886719 16.40007812 50.17023438 16.31640625 51.44921875 C15.62825089 59.1718511 15.62825089 59.1718511 13.625 61.8125 C12 63 12 63 9 63 C9 63.66 9 64.32 9 65 C8.21625 65.12375 7.4325 65.2475 6.625 65.375 C3.85942178 65.79117993 3.85942178 65.79117993 2 68 C2.13277344 67.34773438 2.26554688 66.69546875 2.40234375 66.0234375 C3.34482822 61.3591713 4.25768703 56.70131546 5 52 C5.33 53.32 5.66 54.64 6 56 C8.64 56 11.28 56 14 56 C14.33082999 44.506721 14.06025293 34.16628003 11 23 C9.02 23.99 7.04 24.98 5 26 C5 25.34 5 24.68 5 24 C6.65 23.34 8.3 22.68 10 22 C9.54947266 21.22076172 9.54947266 21.22076172 9.08984375 20.42578125 C5.94511149 14.65866209 5.94511149 14.65866209 6.25 11 C6.4975 10.34 6.745 9.68 7 9 C6.0925 8.938125 5.185 8.87625 4.25 8.8125 C0.26215824 7.81553956 -0.76592111 6.35111834 -3 3 C-2.01 2.67 -1.02 2.34 0 2 C0 1.34 0 0.68 0 0 Z " fill="#CACACB" transform="translate(159,47)"/>
<path d="M0 0 C0.3721042 1.32303717 0.70630173 2.65737935 1 4 C1.66 4.33 2.32 4.66 3 5 C-4.57365898 8.98865782 -12.24321969 12.06947625 -20.3203125 14.87304688 C-28.2049406 17.7428196 -34.50014304 21.71787719 -39.875 28.25 C-41.54181917 30.250183 -43.15739145 32.15739145 -45 34 C-45.99 34 -46.98 34 -48 34 C-47.50819672 26.62295082 -47.50819672 26.62295082 -45.0625 23.625 C-44.381875 23.08875 -43.70125 22.5525 -43 22 C-40.92006963 20.16992908 -40.92006963 20.16992908 -40.125 17.9375 C-39 16 -39 16 -36.9375 15.4375 C-36.298125 15.293125 -35.65875 15.14875 -35 15 C-34.67 14.01 -34.34 13.02 -34 12 C-26.74604349 7.39205965 -8.74906498 -2.91635499 0 0 Z " fill="#ECECEC" transform="translate(161,68)"/>
<path d="M0 0 C1.31484375 0.00386719 2.6296875 0.00773438 3.984375 0.01171875 C5.0043457 0.03032959 5.0043457 0.03032959 6.04492188 0.04931641 C8.1189904 0.0858317 10.19126839 0.0903353 12.265625 0.08984375 C23.71492022 0.19086694 23.71492022 0.19086694 28.125 2.4609375 C30.84806098 6.74003332 30.31683406 11.569169 30.125 16.4609375 C29.63 15.4709375 29.63 15.4709375 29.125 14.4609375 C27.805 14.4609375 26.485 14.4609375 25.125 14.4609375 C24.92583984 13.61208984 24.92583984 13.61208984 24.72265625 12.74609375 C24.54605469 12.01261719 24.36945313 11.27914062 24.1875 10.5234375 C24.01347656 9.79253906 23.83945313 9.06164062 23.66015625 8.30859375 C23.28612431 6.46123852 23.28612431 6.46123852 22.125 5.4609375 C19.59903741 5.22440227 17.09392793 5.03920058 14.5625 4.8984375 C13.85158203 4.85525391 13.14066406 4.81207031 12.40820312 4.76757812 C10.64738088 4.66121973 8.8862168 4.56054904 7.125 4.4609375 C7.125 7.7609375 7.125 11.0609375 7.125 14.4609375 C4.65 13.9659375 4.65 13.9659375 2.125 13.4609375 C1.63 8.0159375 1.63 8.0159375 1.125 2.4609375 C-0.96117326 4.04064095 -3.04394154 5.62452034 -5.125 7.2109375 C-5.71152344 7.654375 -6.29804687 8.0978125 -6.90234375 8.5546875 C-10.12048857 11.01349478 -13.08089478 13.51302832 -15.875 16.4609375 C-18.86958512 19.45552262 -22.72323173 20.74511538 -26.875 21.4609375 C-27.535 21.1309375 -28.195 20.8009375 -28.875 20.4609375 C-29.865 20.7909375 -30.855 21.1209375 -31.875 21.4609375 C-31.5136359 18.7974969 -31.13447489 17.69205681 -29.09667969 15.87695312 C-28.33774414 15.37873047 -27.57880859 14.88050781 -26.796875 14.3671875 C-25.96542969 13.81160156 -25.13398437 13.25601563 -24.27734375 12.68359375 C-23.40207031 12.11511719 -22.52679688 11.54664063 -21.625 10.9609375 C-19.91031868 9.82724265 -18.19674518 8.69187016 -16.484375 7.5546875 C-15.72092773 7.05646484 -14.95748047 6.55824219 -14.17089844 6.04492188 C-11.7783459 4.47230398 -11.7783459 4.47230398 -9.51660156 2.29638672 C-6.14033515 -0.04952556 -4.08364791 -0.02799275 0 0 Z " fill="#DADBDC" transform="translate(132.875,163.5390625)"/>
<path d="M0 0 C4.10403363 -0.08694042 8.20783129 -0.14037149 12.3125 -0.1875 C13.47974609 -0.21263672 14.64699219 -0.23777344 15.84960938 -0.26367188 C16.96787109 -0.27333984 18.08613281 -0.28300781 19.23828125 -0.29296875 C20.26993408 -0.3086792 21.30158691 -0.32438965 22.36450195 -0.34057617 C25 0 25 0 26.85546875 1.28125 C28.85598283 4.28543497 28.02678763 7.74958548 27.6875 11.1875 C27.5956543 12.31188477 27.5956543 12.31188477 27.50195312 13.45898438 C27.34891389 15.30722745 27.17633121 17.1538335 27 19 C22.58970217 21.20949832 18.51059676 21.2370648 13.6875 21.125 C12.94693359 21.11597656 12.20636719 21.10695312 11.44335938 21.09765625 C9.62876533 21.07424213 7.81433929 21.03837615 6 21 C5.67 20.34 5.34 19.68 5 19 C8.3111013 17.89629957 10.24748949 18.07326359 13.6875 18.4375 C14.68136719 18.53933594 15.67523438 18.64117187 16.69921875 18.74609375 C17.45847656 18.82988281 18.21773437 18.91367188 19 19 C19.2165625 18.071875 19.2165625 18.071875 19.4375 17.125 C20 15 20 15 21 13 C18.35319096 13.11339204 15.70822482 13.24012873 13.0625 13.375 C11.93038086 13.42140625 11.93038086 13.42140625 10.77539062 13.46875 C8.84492605 13.5726315 6.92057919 13.77895614 5 14 C4.67 14.66 4.34 15.32 4 16 C4 15.34 4 14.68 4 14 C2.68 14.33 1.36 14.66 0 15 C-0.33 13.68 -0.66 12.36 -1 11 C2.04681061 8.96879293 2.60118324 8.75340125 6.01171875 8.8046875 C6.76904297 8.81113281 7.52636719 8.81757813 8.30664062 8.82421875 C9.09232422 8.84097656 9.87800781 8.85773438 10.6875 8.875 C11.48478516 8.88402344 12.28207031 8.89304688 13.10351562 8.90234375 C15.069139 8.92588415 17.03460775 8.96175453 19 9 C19 8.34 19 7.68 19 7 C12.73 7 6.46 7 0 7 C0 4.69 0 2.38 0 0 Z " fill="#848586" transform="translate(74,163)"/>
<path d="M0 0 C13.06698584 2.08790258 22.279652 11.9380959 30 22 C31 24 31 24 31 27 C31.66 26.67 32.32 26.34 33 26 C32.47731534 28.76276177 31.89130413 31.3260876 31 34 C30.93197033 35.72795352 30.91504355 37.45835365 30.9375 39.1875 C30.94652344 40.08855469 30.95554687 40.98960938 30.96484375 41.91796875 C30.97644531 42.60503906 30.98804687 43.29210937 31 44 C28.38316958 42.99734077 27.20524516 42.34833406 25.76171875 39.8984375 C25.22998047 38.64933594 25.22998047 38.64933594 24.6875 37.375 C19.75717787 27.0688447 13.46907841 22.42333869 3 18 C2.01 17.67 1.02 17.34 0 17 C0 16.34 0 15.68 0 15 C6.98990075 15.38832782 11.9053706 17.67282987 18 21 C19.33060675 21.67209218 20.66300718 22.34070308 22 23 C21.44570312 22.46890625 20.89140625 21.9378125 20.3203125 21.390625 C19.23363281 20.33101562 19.23363281 20.33101562 18.125 19.25 C17.40570313 18.55390625 16.68640625 17.8578125 15.9453125 17.140625 C12.74441931 13.61835699 12 11.82185765 12 7 C11.67 7.99 11.34 8.98 11 10 C5.25 9.25 5.25 9.25 3 7 C3.375 4.375 3.375 4.375 4 2 C2.68 1.34 1.36 0.68 0 0 Z " fill="#A6A7A8" transform="translate(83,74)"/>
<path d="M0 0 C1.09506492 3.28519475 1.09960608 5.73663415 1.0625 9.1875 C1.05347656 10.27417969 1.04445312 11.36085937 1.03515625 12.48046875 C1.02355469 13.31191406 1.01195312 14.14335937 1 15 C0.505 14.01 0.505 14.01 0 13 C-1.32 13 -2.64 13 -4 13 C-4.495 9.04 -4.495 9.04 -5 5 C-8.63 5 -12.26 5 -16 5 C-16 9.62 -16 14.24 -16 19 C-16.33 19 -16.66 19 -17 19 C-17 17.02 -17 15.04 -17 13 C-18.32 13.33 -19.64 13.66 -21 14 C-21 11.03 -21 8.06 -21 5 C-24.63 5 -28.26 5 -32 5 C-32 10.61 -32 16.22 -32 22 C-33.65 22 -35.3 22 -37 22 C-37.33 14.74 -37.66 7.48 -38 0 C-33.07046931 -0.1657628 -28.14106253 -0.32822453 -23.21118164 -0.48217773 C-21.5340348 -0.53555698 -19.85694876 -0.59088316 -18.17993164 -0.64819336 C-15.76982734 -0.73021822 -13.35959139 -0.80524581 -10.94921875 -0.87890625 C-10.19912033 -0.90594131 -9.44902191 -0.93297638 -8.67619324 -0.96083069 C-5.47767446 -1.05259138 -3.06316748 -1.02105583 0 0 Z " fill="#D0D1D2" transform="translate(69,164)"/>
<path d="M0 0 C2.49226291 1.1962862 4.86054211 2.50000286 7.25390625 3.890625 C11.04801605 6.07489756 14.95840629 7.93031632 18.9375 9.75 C19.62134766 10.06582031 20.30519531 10.38164063 21.00976562 10.70703125 C22.67188372 11.47416268 24.33575688 12.23748964 26 13 C26 13.66 26 14.32 26 15 C27.32 15.33 28.64 15.66 30 16 C30 17.65 30 19.3 30 21 C32.31 21.99 34.62 22.98 37 24 C37.33 22.68 37.66 21.36 38 20 C38.144375 20.763125 38.28875 21.52625 38.4375 22.3125 C38.9632594 25.08172908 38.9632594 25.08172908 40 28 C39.29584961 27.71552002 38.59169922 27.43104004 37.86621094 27.13793945 C34.96976157 25.98799478 32.05905325 24.88585982 29.140625 23.79296875 C27.46613281 23.1597168 27.46613281 23.1597168 25.7578125 22.51367188 C23.43681262 21.63618918 21.11391373 20.76371161 18.7890625 19.89648438 C1.08560216 13.17120433 1.08560216 13.17120433 -1 9 C-0.91348369 7.45386986 -0.75997364 5.91090613 -0.5625 4.375 C-0.46066406 3.55773438 -0.35882813 2.74046875 -0.25390625 1.8984375 C-0.17011719 1.27195313 -0.08632813 0.64546875 0 0 Z " fill="#F0F1F1" transform="translate(57,60)"/>
<path d="M0 0 C9.38625474 0.49078456 19.54886109 5.31851047 26.7109375 11.2421875 C28.95946085 13.37340669 28.95946085 13.37340669 32.3125 12.75 C33.6428125 12.37875 33.6428125 12.37875 35 12 C34.773125 13.051875 34.54625 14.10375 34.3125 15.1875 C33.96352305 19.44501883 34.58896929 20.624557 37 24 C37 24.66 37 25.32 37 26 C32.61538462 29 32.61538462 29 30 29 C29.7525 28.360625 29.505 27.72125 29.25 27.0625 C28.18437567 24.81258459 28.18437567 24.81258459 25.875 24.25 C25.25625 24.1675 24.6375 24.085 24 24 C24.66 23.34 25.32 22.68 26 22 C24.73347137 20.53792657 23.46161082 19.08047074 22.1875 17.625 C21.47980469 16.81289063 20.77210938 16.00078125 20.04296875 15.1640625 C18.00018747 12.83816812 18.00018747 12.83816812 15 11 C14.67 10.01 14.34 9.02 14 8 C11.58586496 6.5994037 11.58586496 6.5994037 8.6875 5.4375 C5.41060319 4.03311565 2.16981556 2.63384792 -1 1 C-0.67 0.67 -0.34 0.34 0 0 Z " fill="#0F0F10" transform="translate(132,43)"/>
<path d="M0 0 C2.43868168 -0.1079859 4.87259133 -0.18726589 7.3125 -0.25 C8.00279297 -0.28351563 8.69308594 -0.31703125 9.40429688 -0.3515625 C14.51094438 -0.45024168 14.51094438 -0.45024168 16.96875 1.8125 C18.3055994 4.64824115 18.21103932 6.90475667 18 10 C19.32 10 20.64 10 22 10 C22.25 12.3125 22.25 12.3125 22 15 C19.83012293 17.13480771 18.46972766 17.93764084 15.43457031 18.34057617 C14.02062988 18.3170105 14.02062988 18.3170105 12.578125 18.29296875 C11.04091797 18.2784668 11.04091797 18.2784668 9.47265625 18.26367188 C8.40917969 18.23853516 7.34570312 18.21339844 6.25 18.1875 C4.63158203 18.16719727 4.63158203 18.16719727 2.98046875 18.14648438 C0.3198058 18.11116584 -2.33984296 18.06184199 -5 18 C-5 15.03 -5 12.06 -5 9 C-3.68 9 -2.36 9 -1 9 C-0.67 6.03 -0.34 3.06 0 0 Z M2 2 C2 5.63 2 9.26 2 13 C3.95766281 13.08082094 5.91626728 13.13910778 7.875 13.1875 C8.96554688 13.22230469 10.05609375 13.25710937 11.1796875 13.29296875 C12.57574219 13.14794922 12.57574219 13.14794922 14 13 C16.38798682 10.09414313 16.38798682 10.09414313 15.6875 6.375 C15.35886877 3.17495688 15.35886877 3.17495688 14 2 C11.98035801 1.92755947 9.95832876 1.91622812 7.9375 1.9375 C6.83277344 1.94652344 5.72804687 1.95554688 4.58984375 1.96484375 C3.73519531 1.97644531 2.88054687 1.98804688 2 2 Z " fill="#78797B" transform="translate(140,168)"/>
<path d="M0 0 C3.37930351 -0.29020736 6.62822902 -0.42348157 10 0 C12.0625 2.125 12.0625 2.125 14 5 C25.84457169 15.84596612 42.95460691 15.57283637 58 15.25 C59.66143633 15.22986531 61.32289676 15.21162709 62.984375 15.1953125 C66.99019707 15.15195724 70.9948185 15.08333444 75 15 C68.39144776 19.40570149 59.60924576 18.25429252 51.9375 18.3125 C50.69033203 18.34150391 49.44316406 18.37050781 48.15820312 18.40039062 C36.776066 18.47733695 26.60725736 16.25588851 17 10 C17 10.66 17 11.32 17 12 C14.52739436 12.91577987 13.20201677 13.05316231 10.625 12.375 C5.9815868 9.94273594 2.66640012 7.60541846 0.625 2.6875 C0.41875 1.800625 0.2125 0.91375 0 0 Z " fill="#BDBEBF" transform="translate(59,122)"/>
<path d="M0 0 C3.79165074 -0.0289337 7.58327327 -0.04677601 11.375 -0.0625 C12.45523438 -0.07087891 13.53546875 -0.07925781 14.6484375 -0.08789062 C16.1953125 -0.09272461 16.1953125 -0.09272461 17.7734375 -0.09765625 C18.72653809 -0.10289307 19.67963867 -0.10812988 20.66162109 -0.11352539 C23 0 23 0 25 1 C25 4.96 25 8.92 25 13 C23.06447266 12.98259766 23.06447266 12.98259766 21.08984375 12.96484375 C19.37239729 12.9554588 17.65494925 12.94635936 15.9375 12.9375 C15.08994141 12.92912109 14.24238281 12.92074219 13.36914062 12.91210938 C8.4638278 12.89316994 3.83555245 13.16673655 -1 14 C-0.625 12.0625 -0.625 12.0625 0 10 C2.296537 8.8517315 3.58313167 8.88438825 6.1328125 8.90234375 C6.93847656 8.90556641 7.74414062 8.90878906 8.57421875 8.91210938 C9.41597656 8.92048828 10.25773438 8.92886719 11.125 8.9375 C11.97449219 8.94201172 12.82398438 8.94652344 13.69921875 8.95117188 C15.79950909 8.96297126 17.8997633 8.98090694 20 9 C20 7.68 20 6.36 20 5 C13.4 5 6.8 5 0 5 C0 3.35 0 1.7 0 0 Z " fill="#D2D2D3" transform="translate(168,164)"/>
<path d="M0 0 C0.33 0 0.66 0 1 0 C0.61200237 10.28193721 -4.55787748 18.41927247 -11.97265625 25.3359375 C-14.86305087 27.70840013 -17.59750974 29.43485448 -21 31 C-21.66 30.67 -22.32 30.34 -23 30 C-22.67 29.34 -22.34 28.68 -22 28 C-19.9375 27.375 -19.9375 27.375 -18 27 C-20.31 27 -22.62 27 -25 27 C-22 25 -22 25 -19 24 C-19.66 23.67 -20.32 23.34 -21 23 C-20.59007812 22.55269531 -20.18015625 22.10539062 -19.7578125 21.64453125 C-16.67949248 18.19062673 -14.61098808 15.37268194 -13 11 C-11.1875 8.1875 -11.1875 8.1875 -9 6 C-6.25 5.6875 -6.25 5.6875 -4 6 C-4 5.34 -4 4.68 -4 4 C-3.01 3.67 -2.02 3.34 -1 3 C-0.67 2.01 -0.34 1.02 0 0 Z " fill="#F3F4F4" transform="translate(172,106)"/>
<path d="M0 0 C0.69738281 0.09990234 1.39476562 0.19980469 2.11328125 0.30273438 C3.82651726 0.54915873 5.53840725 0.80490955 7.25 1.0625 C7.25 1.3925 7.25 1.7225 7.25 2.0625 C6.37859375 2.22105469 5.5071875 2.37960938 4.609375 2.54296875 C-6.51108907 4.72132805 -16.86946292 7.72640415 -25.75 15.0625 C-26.41 16.0525 -27.07 17.0425 -27.75 18.0625 C-29.4 17.0725 -31.05 16.0825 -32.75 15.0625 C-31.9375 12.125 -31.9375 12.125 -30.75 9.0625 C-29.76 8.7325 -28.77 8.4025 -27.75 8.0625 C-27.151875 7.60101563 -26.55375 7.13953125 -25.9375 6.6640625 C-23.33618173 4.75952591 -20.7333598 3.65321912 -17.75 2.4375 C-16.203125 1.79941406 -16.203125 1.79941406 -14.625 1.1484375 C-9.31493286 -0.85726721 -5.62468758 -0.85593072 0 0 Z " fill="#D1D1D2" transform="translate(91.75,39.9375)"/>
<path d="M0 0 C2.43768214 0.96174808 4.85814127 1.93638373 7.24951172 3.00878906 C13.80315176 5.87123468 20.0443537 6.98428125 27.125 7.75 C28.7028125 7.93755859 28.7028125 7.93755859 30.3125 8.12890625 C32.87383747 8.43160977 35.43591364 8.72172706 38 9 C38 9.33 38 9.66 38 10 C40.31 10.33 42.62 10.66 45 11 C45 11.33 45 11.66 45 12 C5.52473582 12.74148018 5.52473582 12.74148018 -4.828125 3.33984375 C-5.21484375 2.89769531 -5.6015625 2.45554688 -6 2 C-4.02 2 -2.04 2 0 2 C0 1.34 0 0.68 0 0 Z " fill="#EBECEC" transform="translate(76,132)"/>
<path d="M0 0 C4.86446674 1.24184553 6.87495155 2.56032216 9.6875 6.6875 C13.40185305 11.65194479 17.34648892 14.53501308 22.6796875 17.625 C25 19 25 19 27 21 C27 21.66 27 22.32 27 23 C24.35600389 24.02308474 23.22699462 24.08221853 20.51953125 23.1015625 C11.47797297 18.16980344 3.12555632 12.21015066 0 2 C0 1.34 0 0.68 0 0 Z " fill="#505052" transform="translate(50,118)"/>
<path d="M0 0 C11.74458178 0.86996902 20.01066928 5.2731926 28 14 C29.28125 16.28125 29.28125 16.28125 30 18 C29.21496094 17.51789063 28.42992187 17.03578125 27.62109375 16.5390625 C18.29568239 10.74064248 18.29568239 10.74064248 7.6875 9.0625 C2.79297949 8.97954203 -1.3918148 7.5576964 -6 6 C-6 5.67 -6 5.34 -6 5 C-3.69 5 -1.38 5 1 5 C0.67 3.35 0.34 1.7 0 0 Z " fill="#3F3F41" transform="translate(76,81)"/>
<path d="M0 0 C1.64838867 -0.02416992 1.64838867 -0.02416992 3.33007812 -0.04882812 C14.75802894 -0.05556233 24.51320566 2.13170084 34.1875 8.3125 C34.1875 8.9725 34.1875 9.6325 34.1875 10.3125 C33.50300781 10.02503906 32.81851563 9.73757812 32.11328125 9.44140625 C10.96080899 1.27977143 -10.21720167 1.70169439 -31.8125 8.3125 C-23.92418749 -0.16625506 -10.72293764 -0.03111706 0 0 Z " fill="#48484A" transform="translate(112.8125,42.6875)"/>
<path d="M0 0 C0.66 0.33 1.32 0.66 2 1 C1.34 6.61 0.68 12.22 0 18 C-0.33 18 -0.66 18 -1 18 C-1 16.35 -1 14.7 -1 13 C-1.99 13 -2.98 13 -4 13 C-4 14.98 -4 16.96 -4 19 C-6.56278699 19.05420701 -9.12441483 19.09377007 -11.6875 19.125 C-12.40873047 19.14175781 -13.12996094 19.15851563 -13.87304688 19.17578125 C-18.04876781 19.21391569 -21.2494138 18.8789919 -25 17 C-25 17.66 -25 18.32 -25 19 C-25.99 19.33 -26.98 19.66 -28 20 C-27.67 17.69 -27.34 15.38 -27 13 C-21.00325593 11.25324198 -15.72635779 10.74317158 -9.5 10.875 C-8.26636719 10.88853516 -8.26636719 10.88853516 -7.0078125 10.90234375 C-5.00507917 10.92563135 -3.00249846 10.96149041 -1 11 C-0.67 7.37 -0.34 3.74 0 0 Z M-19 13 C-19.33 13.99 -19.66 14.98 -20 16 C-17.35541621 17.32229189 -15.32238699 17.09677194 -12.375 17.0625 C-11.37210938 17.05347656 -10.36921875 17.04445312 -9.3359375 17.03515625 C-8.56507813 17.02355469 -7.79421875 17.01195312 -7 17 C-7 15.68 -7 14.36 -7 13 C-10.96 13 -14.92 13 -19 13 Z " fill="#999A9C" transform="translate(193,165)"/>
<path d="M0 0 C2 3 2 3 3 6 C5.41619823 6.25030977 5.41619823 6.25030977 8 6 C8.66 5.01 9.32 4.02 10 3 C10.10655578 9.44070471 9.96205088 15.62641289 9 22 C6.36 22 3.72 22 1 22 C0.67 14.74 0.34 7.48 0 0 Z " fill="#505052" transform="translate(164,81)"/>
<path d="M0 0 C0.99 0.33 1.98 0.66 3 1 C1.07423885 3.43929746 -0.80090595 5.80090595 -3 8 C-2.67 8.66 -2.34 9.32 -2 10 C-6.69409063 14.69409063 -10.25607033 17.8372535 -17 19 C-17.66 18.67 -18.32 18.34 -19 18 C-19.99 18.33 -20.98 18.66 -22 19 C-21.64240865 16.29811737 -21.24686948 15.21844929 -19.17407227 13.38427734 C-18.39604248 12.8733252 -17.6180127 12.36237305 -16.81640625 11.8359375 C-15.54893555 10.98902344 -15.54893555 10.98902344 -14.25585938 10.125 C-13.36705078 9.5475 -12.47824219 8.97 -11.5625 8.375 C-9.81269911 7.21781194 -8.06395058 6.05903054 -6.31640625 4.8984375 C-5.53724854 4.38974121 -4.75809082 3.88104492 -3.95532227 3.35693359 C-1.89320579 2.0117265 -1.89320579 2.0117265 0 0 Z " fill="#B8B8B9" transform="translate(123,166)"/>
<path d="M0 0 C-1.95313233 1.48004028 -3.90890285 2.93748596 -5.9296875 4.32421875 C-13.73997126 9.7976907 -18.09324568 15.95676433 -21 25 C-21.66 25 -22.32 25 -23 25 C-23.7838344 17.0310169 -22.0518467 11.31230745 -17 5 C-11.7177039 0.98406717 -6.57395314 -0.71456012 0 0 Z " fill="#232324" transform="translate(136,92)"/>
<path d="M0 0 C2.09748533 0.00536753 4.19475743 0.00002542 6.29223633 -0.00634766 C7.64575242 -0.00568691 8.99926838 -0.00440582 10.3527832 -0.00244141 C11.56393799 -0.00131348 12.77509277 -0.00018555 14.02294922 0.00097656 C17.590055 0.13234798 21.01453724 0.56279606 24.53637695 1.13037109 C24.53637695 1.46037109 24.53637695 1.79037109 24.53637695 2.13037109 C16.71664894 3.26366501 8.91825395 3.48041824 1.02856445 3.73583984 C-0.52217773 3.79191406 -0.52217773 3.79191406 -2.10424805 3.84912109 C-3.50465332 3.89456055 -3.50465332 3.89456055 -4.93334961 3.94091797 C-7.41922562 4.05416404 -7.41922562 4.05416404 -9.59643555 4.66918945 C-12.56558737 5.40254821 -15.22665331 4.70065595 -18.21362305 4.19287109 C-19.96932617 3.90089844 -19.96932617 3.90089844 -21.76049805 3.60302734 C-22.6525293 3.44705078 -23.54456055 3.29107422 -24.46362305 3.13037109 C-17.61370119 -1.43624348 -7.97160369 -0.02429512 0 0 Z " fill="#828284" transform="translate(110.463623046875,36.86962890625)"/>
<path d="M0 0 C0 2.31 0 4.62 0 7 C-6.93 7 -13.86 7 -21 7 C-20 3 -20 3 -17.25 1.25 C-11.77285842 -0.87425827 -5.76736488 -0.23416369 0 0 Z " fill="#434446" transform="translate(131,181)"/>
<path d="M0 0 C0 1.98 0 3.96 0 6 C-0.33 4.68 -0.66 3.36 -1 2 C-7.435 2.495 -7.435 2.495 -14 3 C-14.33 4.32 -14.66 5.64 -15 7 C-8.4 7.33 -1.8 7.66 5 8 C5 8.66 5 9.32 5 10 C1.06274674 10.11594584 -2.87406923 10.18716464 -6.8125 10.25 C-7.93205078 10.28351563 -9.05160156 10.31703125 -10.20507812 10.3515625 C-11.27822266 10.36445313 -12.35136719 10.37734375 -13.45703125 10.390625 C-14.9416687 10.4220459 -14.9416687 10.4220459 -16.45629883 10.45410156 C-19 10 -19 10 -20.84643555 8.22558594 C-22 6 -22 6 -22 2 C-14.66258031 -0.3479743 -7.65606218 -0.19355213 0 0 Z " fill="#696A6C" transform="translate(95,176)"/>
<path d="M0 0 C4.95 1.98 9.9 3.96 15 6 C14.01 6.495 14.01 6.495 13 7 C13.66 8.98 14.32 10.96 15 13 C12.91549283 12.7168444 10.83241633 12.42314331 8.75 12.125 C7.00976562 11.88136719 7.00976562 11.88136719 5.234375 11.6328125 C2.41806687 11.08179569 0.44782443 10.44203518 -2 9 C-2.33 9.66 -2.66 10.32 -3 11 C-2.67 9.68 -2.34 8.36 -2 7 C-1.34 7 -0.68 7 0 7 C-0.185625 6.030625 -0.37125 5.06125 -0.5625 4.0625 C-0.706875 3.051875 -0.85125 2.04125 -1 1 C-0.67 0.67 -0.34 0.34 0 0 Z " fill="#282829" transform="translate(63,74)"/>
<path d="M0 0 C8.53840518 4.03667521 13.71111938 10.67666389 18 19 C18.6953125 21.83984375 18.6953125 21.83984375 19 24 C16 20.25 16 20.25 16 18 C14.68 18.33 13.36 18.66 12 19 C11.67 18.01 11.34 17.02 11 16 C9.68 16.33 8.36 16.66 7 17 C5.90341064 13.71023192 6.20046862 12.28696233 7 9 C6.0925 8.938125 5.185 8.87625 4.25 8.8125 C0.26215824 7.81553956 -0.76592111 6.35111834 -3 3 C-2.01 2.67 -1.02 2.34 0 2 C0 1.34 0 0.68 0 0 Z " fill="#8C8C8D" transform="translate(159,47)"/>
<path d="M0 0 C7.26 0 14.52 0 22 0 C15.09270705 6.90729295 15.09270705 6.90729295 10.546875 7.29296875 C9.29390625 7.25816406 8.0409375 7.22335938 6.75 7.1875 C5.48671875 7.16042969 4.2234375 7.13335937 2.921875 7.10546875 C1.47554688 7.05326172 1.47554688 7.05326172 0 7 C0 4.69 0 2.38 0 0 Z " fill="#4D4E4F" transform="translate(103,163)"/>
<path d="M0 0 C0.33 0 0.66 0 1 0 C1.33 7.26 1.66 14.52 2 22 C1.67 20.68 1.34 19.36 1 18 C-1.86724686 18.57344937 -2.8614515 18.8614515 -5 21 C-6.00926479 16.84373632 -6.10239579 12.95634906 -6.0625 8.6875 C-6.05347656 7.43324219 -6.04445312 6.17898437 -6.03515625 4.88671875 C-6.01775391 3.45779297 -6.01775391 3.45779297 -6 2 C-4.02 2 -2.04 2 0 2 C0 1.34 0 0.68 0 0 Z " fill="#F5F5F5" transform="translate(50,84)"/>
<path d="M0 0 C0.33 0 0.66 0 1 0 C1.19335938 0.94101563 1.38671875 1.88203125 1.5859375 2.8515625 C1.84632812 4.09679687 2.10671875 5.34203125 2.375 6.625 C2.63023438 7.85476562 2.88546875 9.08453125 3.1484375 10.3515625 C3.92022273 13.65820196 4.86819375 16.80141713 6 20 C5.34 19.67 4.68 19.34 4 19 C4 18.34 4 17.68 4 17 C3.07767578 16.92265625 3.07767578 16.92265625 2.13671875 16.84375 C-0.45661426 16.47977344 -2.59639757 16.05264149 -5 15 C-7.38910914 11.58593354 -8 8.10700422 -8 4 C-5.36 4 -2.72 4 0 4 C0 2.68 0 1.36 0 0 Z " fill="#87888A" transform="translate(60,99)"/>
<path d="M0 0 C3.34373475 0.55728913 6.03312999 1.35173889 9 3 C9 3.66 9 4.32 9 5 C10.32 5.33 11.64 5.66 13 6 C13 7.65 13 9.3 13 11 C16.465 12.485 16.465 12.485 20 14 C20.33 12.68 20.66 11.36 21 10 C21.144375 10.763125 21.28875 11.52625 21.4375 12.3125 C21.9632594 15.08172908 21.9632594 15.08172908 23 18 C22.32195312 17.71898438 21.64390625 17.43796875 20.9453125 17.1484375 C18.83634511 16.32610804 16.70214466 15.56738155 14.5546875 14.8515625 C13.34039062 14.44679688 12.12609375 14.04203125 10.875 13.625 C9.65554687 13.22539063 8.43609375 12.82578125 7.1796875 12.4140625 C3.93947708 10.9730844 2.62355148 10.11332718 1 7 C1.27942455 5.32345271 1.60828247 3.65391846 2 2 C1.34 1.34 0.68 0.68 0 0 Z " fill="#D6D7D8" transform="translate(74,70)"/>
<path d="M0 0 C11.88 0 23.76 0 36 0 C36 0.33 36 0.66 36 1 C24.78 1.33 13.56 1.66 2 2 C2 8.93 2 15.86 2 23 C3.65 23 5.3 23 7 23 C7 18.05 7 13.1 7 8 C7.33 8 7.66 8 8 8 C8 13.61 8 19.22 8 25 C5.36 25 2.72 25 0 25 C0 16.75 0 8.5 0 0 Z " fill="#2D2E30" transform="translate(30,163)"/>
<path d="M0 0 C0.33 0 0.66 0 1 0 C1 6.93 1 13.86 1 21 C0.34 20.34 -0.32 19.68 -1 19 C-3.10820797 19.3185177 -3.10820797 19.3185177 -5 20 C-6.27603607 16.17189179 -5.86283987 12.76524893 -5.5625 8.8125 C-5.51029297 8.06291016 -5.45808594 7.31332031 -5.40429688 6.54101562 C-5.27486216 4.69362918 -5.13813482 2.84675629 -5 1 C-3.35 1.33 -1.7 1.66 0 2 C0 1.34 0 0.68 0 0 Z " fill="#2B2B2C" transform="translate(180,85)"/>
<path d="M0 0 C0.90878906 0.29003906 0.90878906 0.29003906 1.8359375 0.5859375 C3.09277344 0.97652344 3.09277344 0.97652344 4.375 1.375 C5.18710938 1.63023437 5.99921875 1.88546875 6.8359375 2.1484375 C8.40214844 2.56996094 8.40214844 2.56996094 10 3 C10.63631348 3.17934082 11.27262695 3.35868164 11.92822266 3.54345703 C20.70619158 5.68150998 29.65650108 5.21822033 38.625 5.125 C40.31379677 5.11494957 42.00259934 5.10582737 43.69140625 5.09765625 C47.79441594 5.07580739 51.89714282 5.04139154 56 5 C49.39144776 9.40570149 40.60924576 8.25429252 32.9375 8.3125 C31.69033203 8.34150391 30.44316406 8.37050781 29.15820312 8.40039062 C18.68076039 8.47122097 8.86211717 6.93006008 0 1 C0 0.67 0 0.34 0 0 Z " fill="#78797A" transform="translate(78,132)"/>
<path d="M0 0 C0.66 0.33 1.32 0.66 2 1 C1.773125 1.886875 1.54625 2.77375 1.3125 3.6875 C0.9419393 7.61544344 1.80284964 8.83610348 4 12 C4 12.66 4 13.32 4 14 C-0.38461538 17 -0.38461538 17 -3 17 C-3.2475 16.360625 -3.495 15.72125 -3.75 15.0625 C-4.81562433 12.81258459 -4.81562433 12.81258459 -7.125 12.25 C-7.74375 12.1675 -8.3625 12.085 -9 12 C-8.34 11.34 -7.68 10.68 -7 10 C-7 8.68 -7 7.36 -7 6 C-6.34 5.34 -5.68 4.68 -5 4 C-4.34 4 -3.68 4 -3 4 C-2.67 3.01 -2.34 2.02 -2 1 C-1.34 0.67 -0.68 0.34 0 0 Z " fill="#565658" transform="translate(165,55)"/>
<path d="M0 0 C2.17240606 3.25860909 2.23564158 3.82050803 1.8125 7.5 C1.73644531 8.2734375 1.66039062 9.046875 1.58203125 9.84375 C0.89158772 12.40163474 0.11471972 13.4253161 -2 15 C-2.99 15 -3.98 15 -5 15 C-5 15.66 -5 16.32 -5 17 C-5.78375 17.12375 -6.5675 17.2475 -7.375 17.375 C-10.14057822 17.79117993 -10.14057822 17.79117993 -12 20 C-11.80083984 19.02160156 -11.80083984 19.02160156 -11.59765625 18.0234375 C-10.65517178 13.3591713 -9.74231297 8.70131546 -9 4 C-8.67 5.32 -8.34 6.64 -8 8 C-5.36 8 -2.72 8 0 8 C0 5.36 0 2.72 0 0 Z " fill="#A8A9AA" transform="translate(173,95)"/>
<path d="M0 0 C7.92 0 15.84 0 24 0 C24 2.97 24 5.94 24 9 C22.68 8.67 21.36 8.34 20 8 C19.34 6.68 18.68 5.36 18 4 C12.06 3.67 6.12 3.34 0 3 C0 2.01 0 1.02 0 0 Z " fill="#E2E3E4" transform="translate(76,165)"/>
<path d="M0 0 C2.413125 -0.0825 4.82625 -0.165 7.3125 -0.25 C8.06829346 -0.28641602 8.82408691 -0.32283203 9.6027832 -0.36035156 C12.83496868 -0.41402653 14.54583253 -0.41812243 16.96875 1.8125 C18.3055994 4.64824115 18.21103932 6.90475667 18 10 C19.32 10 20.64 10 22 10 C21.67 10.99 21.34 11.98 21 13 C19.02 13 17.04 13 15 13 C15.04882812 9.97265625 15.04882812 9.97265625 15.09765625 6.9453125 C15.12649242 4.91814596 15.12649242 4.91814596 14 3 C10.01434954 2.39386091 6.02725031 2.25435265 2 2 C2 5.96 2 9.92 2 14 C1.01 14.495 1.01 14.495 0 15 C0 10.05 0 5.1 0 0 Z " fill="#424344" transform="translate(140,168)"/>
<path d="M0 0 C11.45449459 9.30883999 11.45449459 9.30883999 12.52734375 14.6015625 C12.78163596 17.07481549 12.94597678 19.51493208 13 22 C12.43796875 21.27554688 11.8759375 20.55109375 11.296875 19.8046875 C9.07224547 17.08821811 6.70303435 14.63414951 4.25 12.125 C-0.60258857 6.81971495 -0.60258857 6.81971495 -0.5625 2.875 C-0.376875 1.92625 -0.19125 0.9775 0 0 Z " fill="#848586" transform="translate(99,82)"/>
<path d="M0 0 C0.495 1.485 0.495 1.485 1 3 C1.66 3.66 2.32 4.32 3 5 C-0.64874912 4.56215011 -4.28299075 4.11741628 -7.91015625 3.5234375 C-18.57237787 1.82053202 -29.22107109 1.37956148 -40 1 C-40 0.67 -40 0.34 -40 0 C-39.22398438 -0.02505615 -38.44796875 -0.0501123 -37.6484375 -0.07592773 C-34.09882269 -0.19267745 -30.54942232 -0.3150431 -27 -0.4375 C-25.16888672 -0.49647461 -25.16888672 -0.49647461 -23.30078125 -0.55664062 C-15.78404347 -0.81035775 -15.78404347 -0.81035775 -8.30859375 -1.58203125 C-4.76703926 -2.02942951 -3.04108191 -1.84307995 0 0 Z " fill="#DDDDDE" transform="translate(140,40)"/>
<path d="M0 0 C2 2 2 2 2.3515625 4.02734375 C2.56554688 4.67832031 2.77953125 5.32929687 3 6 C4.98436045 7.0308756 4.98436045 7.0308756 7.375 7.5625 C10.73163885 8.442661 12.90849646 9.13261611 15 12 C15 13.32 15 14.64 15 16 C12.69 16 10.38 16 8 16 C8 16.99 8 17.98 8 19 C3.11574544 13.76687012 0 7.16987735 0 0 Z " fill="#E8E8E9" transform="translate(52,107)"/>
<path d="M0 0 C3.3 0 6.6 0 10 0 C11.35439668 2.70879335 11.06501451 5.00933268 11 8 C12.32 8 13.64 8 15 8 C16.60725635 11.21451269 16.05748185 14.43612536 16 18 C14.02 18 12.04 18 10 18 C10 13.05 10 8.1 10 3 C6.7 2.34 3.4 1.68 0 1 C0 0.67 0 0.34 0 0 Z " fill="#797A7D" transform="translate(54,169)"/>
<path d="M0 0 C0.33 0 0.66 0 1 0 C1.33 2.64 1.66 5.28 2 8 C3.65 8.33 5.3 8.66 7 9 C7.33 6.69 7.66 4.38 8 2 C8.33 2 8.66 2 9 2 C9 6.95 9 11.9 9 17 C6.36 17 3.72 17 1 17 C-0.22517308 11.33357449 -0.09228867 5.76291482 0 0 Z " fill="#3E3E3F" transform="translate(51,86)"/>
<path d="M0 0 C0 0.33 0 0.66 0 1 C-2.22907395 1.47959778 -4.45826297 1.9586608 -6.6875 2.4375 C-7.92886719 2.70433594 -9.17023438 2.97117187 -10.44921875 3.24609375 C-11.62097656 3.49488281 -12.79273437 3.74367188 -14 4 C-14.92167969 4.21527344 -15.84335938 4.43054687 -16.79296875 4.65234375 C-19.71914407 5.1132811 -21.35859202 4.25119325 -24 3 C-24.99 2.67 -25.98 2.34 -27 2 C-17.23429544 -2.40093204 -10.23540983 -2.06945445 0 0 Z " fill="#B1B2B4" transform="translate(99,41)"/>
<path d="M0 0 C0.80759766 -0.01224609 1.61519531 -0.02449219 2.44726562 -0.03710938 C6.81602255 -0.04784342 10.21004059 0.14632915 14.1875 2.1875 C13.8575 2.8475 13.5275 3.5075 13.1875 4.1875 C11.96933594 4.17589844 10.75117188 4.16429687 9.49609375 4.15234375 C7.87239738 4.14295822 6.24869933 4.13385884 4.625 4.125 C3.82513672 4.11662109 3.02527344 4.10824219 2.20117188 4.09960938 C-2.58413104 4.08007753 -7.09395051 4.38312982 -11.8125 5.1875 C-11.4375 3.25 -11.4375 3.25 -10.8125 1.1875 C-7.45228043 -0.49260978 -3.69152188 0.00290442 0 0 Z " fill="#C2C3C4" transform="translate(178.8125,172.8125)"/>
<path d="M0 0 C-3.87244457 5.08991767 -8.03046763 9.4185806 -14 12 C-14.66 11.67 -15.32 11.34 -16 11 C-15.67 10.34 -15.34 9.68 -15 9 C-12.9375 8.375 -12.9375 8.375 -11 8 C-13.31 8 -15.62 8 -18 8 C-15 6 -15 6 -12 5 C-12.66 4.67 -13.32 4.34 -14 4 C-11.61605071 0.72206973 -8.67917602 0.16979401 -4.9375 -0.765625 C-3 -1 -3 -1 0 0 Z " fill="#E7E8E9" transform="translate(165,125)"/>
<path d="M0 0 C0.18451025 15.74487472 0.18451025 15.74487472 -1 23 C-1.33 23 -1.66 23 -2 23 C-2.33 17.06 -2.66 11.12 -3 5 C-7.62 8.3 -12.24 11.6 -17 15 C-17.66 14.67 -18.32 14.34 -19 14 C-1.65989848 0 -1.65989848 0 0 0 Z " fill="#6E6E6F" transform="translate(135,165)"/>
<path d="M0 0 C1.67180274 0.94934513 3.33733936 1.90973313 5 2.875 C5.928125 3.40867188 6.85625 3.94234375 7.8125 4.4921875 C8.8953125 5.23855469 8.8953125 5.23855469 10 6 C10 6.66 10 7.32 10 8 C10.66 8 11.32 8 12 8 C11.34 9.65 10.68 11.3 10 13 C6.07279701 11.33849104 3.0720882 8.93555094 0 6 C-0.9375 3.25 -0.9375 3.25 -1 1 C-0.67 0.67 -0.34 0.34 0 0 Z " fill="#48484A" transform="translate(57,53)"/>
<path d="M0 0 C1.65 0 3.3 0 5 0 C5.33 1.98 5.66 3.96 6 6 C1.58970217 8.20949832 -2.48940324 8.2370648 -7.3125 8.125 C-8.05306641 8.11597656 -8.79363281 8.10695312 -9.55664062 8.09765625 C-11.37123467 8.07424213 -13.18566071 8.03837615 -15 8 C-15.33 7.34 -15.66 6.68 -16 6 C-12.6888987 4.89629957 -10.75251051 5.07326359 -7.3125 5.4375 C-6.31863281 5.53933594 -5.32476562 5.64117187 -4.30078125 5.74609375 C-3.54152344 5.82988281 -2.78226563 5.91367188 -2 6 C-1.855625 5.38125 -1.71125 4.7625 -1.5625 4.125 C-1 2 -1 2 0 0 Z " fill="#8E8F91" transform="translate(95,176)"/>
<path d="M0 0 C3.5361739 5.30426085 3.12967778 10.64764679 3.0625 16.8125 C3.05798828 17.60076172 3.05347656 18.38902344 3.04882812 19.20117188 C3.03711312 21.13414761 3.01917998 23.06708393 3 25 C2.67 25 2.34 25 2 25 C1.67 20.71 1.34 16.42 1 12 C-0.32 12.33 -1.64 12.66 -3 13 C-3.66 10.03 -4.32 7.06 -5 4 C-3.35 3.67 -1.7 3.34 0 3 C0 2.01 0 1.02 0 0 Z " fill="#868788" transform="translate(179,75)"/>
<path d="M0 0 C1.86785156 0.01353516 1.86785156 0.01353516 3.7734375 0.02734375 C5.18496094 0.04474609 5.18496094 0.04474609 6.625 0.0625 C6.625 2.3725 6.625 4.6825 6.625 7.0625 C2.335 7.0625 -1.955 7.0625 -6.375 7.0625 C-6.375 6.7325 -6.375 6.4025 -6.375 6.0625 C-2.745 6.0625 0.885 6.0625 4.625 6.0625 C4.625 4.7425 4.625 3.4225 4.625 2.0625 C-1.315 2.5575 -1.315 2.5575 -7.375 3.0625 C-7.375 4.0525 -7.375 5.0425 -7.375 6.0625 C-7.973125 5.7325 -8.57125 5.4025 -9.1875 5.0625 C-11.42886471 3.85462012 -11.42886471 3.85462012 -14.375 4.0625 C-14.045 3.0725 -13.715 2.0825 -13.375 1.0625 C-8.85684719 0.17972245 -4.59987306 -0.04339503 0 0 Z " fill="#676768" transform="translate(181.375,175.9375)"/>
<path d="M0 0 C-0.5625 2.875 -0.5625 2.875 -2 6 C-6.04350623 7.67843655 -9.64046453 8.26421427 -14 8 C-14 6.68 -14 5.36 -14 4 C-11.36711169 2.57385216 -8.65544851 1.41456868 -5.875 0.3125 C-5.19179687 0.04050781 -4.50859375 -0.23148438 -3.8046875 -0.51171875 C-2 -1 -2 -1 0 0 Z " fill="#AAABAC" transform="translate(146,133)"/>
<path d="M0 0 C0.33 0.99 0.66 1.98 1 3 C-1 5 -1 5 -3.06298828 5.13525391 C-3.89040527 5.08288574 -4.71782227 5.03051758 -5.5703125 4.9765625 C-6.46621094 4.925 -7.36210938 4.8734375 -8.28515625 4.8203125 C-9.22230469 4.75585938 -10.15945312 4.69140625 -11.125 4.625 C-12.06988281 4.56828125 -13.01476562 4.5115625 -13.98828125 4.453125 C-16.32626481 4.31142903 -18.66320944 4.16000217 -21 4 C-21.33 3.01 -21.66 2.02 -22 1 C-19.08340625 0.83196579 -16.16673658 0.66552033 -13.25 0.5 C-12.0125 0.42845703 -12.0125 0.42845703 -10.75 0.35546875 C-9.55117187 0.28779297 -9.55117187 0.28779297 -8.328125 0.21875 C-7.5949707 0.17685547 -6.86181641 0.13496094 -6.10644531 0.09179688 C-4.07266386 0.00316662 -2.03571175 0 0 0 Z " fill="#C2C3C4" transform="translate(129,139)"/>
<path d="M0 0 C2.475 0.495 2.475 0.495 5 1 C5.33 2.32 5.66 3.64 6 5 C10.95 5 15.9 5 21 5 C19 7 19 7 17.02880859 7.22705078 C16.24328613 7.21657715 15.45776367 7.20610352 14.6484375 7.1953125 C13.37226563 7.18564453 13.37226563 7.18564453 12.0703125 7.17578125 C10.73613281 7.15064453 10.73613281 7.15064453 9.375 7.125 C8.02921875 7.11146484 8.02921875 7.11146484 6.65625 7.09765625 C4.43723414 7.0740497 2.21874923 7.0411231 0 7 C0 4.69 0 2.38 0 0 Z " fill="#9FA0A2" transform="translate(135,177)"/>
<path d="M0 0 C0.33 3.3 0.66 6.6 1 10 C-1.64 10 -4.28 10 -7 10 C-7.36627907 4.50581395 -7.36627907 4.50581395 -5.6875 2.1875 C-3.91694233 0.94155201 -2.24898002 0 0 0 Z " fill="#4D4D4F" transform="translate(172,93)"/>
<path d="M0 0 C5.34373838 1.28559503 7.55901923 3.30417658 10.875 7.625 C11.65617187 8.62789062 12.43734375 9.63078125 13.2421875 10.6640625 C14.11230469 11.82035156 14.11230469 11.82035156 15 13 C14.01 13.33 13.02 13.66 12 14 C10.29159719 12.36587557 9.06546953 11.13093906 8 9 C7.030625 8.773125 6.06125 8.54625 5.0625 8.3125 C4.051875 7.879375 3.04125 7.44625 2 7 C0.625 3.375 0.625 3.375 0 0 Z " fill="#121213" transform="translate(50,118)"/>
<path d="M0 0 C0 0.33 0 0.66 0 1 C-6.27968549 1.92131536 -12.40694001 2.18303934 -18.75 2.1875 C-20.14798828 2.20586914 -20.14798828 2.20586914 -21.57421875 2.22460938 C-22.47269531 2.22654297 -23.37117188 2.22847656 -24.296875 2.23046875 C-25.10479492 2.23457764 -25.91271484 2.23868652 -26.74511719 2.24291992 C-29.22543123 1.97571415 -30.85358797 1.23999218 -33 0 C-21.88844641 -0.72009071 -11.09046577 -1.31547495 0 0 Z " fill="#A5A5A7" transform="translate(135,38)"/>
<path d="M0 0 C2.72545962 1.20193573 5.19299186 2.47929584 7.6484375 4.16796875 C7.6484375 4.82796875 7.6484375 5.48796875 7.6484375 6.16796875 C6.96394531 5.88050781 6.27945313 5.59304687 5.57421875 5.296875 C-2.43739776 2.20561042 -10.7799109 -0.14629912 -19.3515625 -0.83203125 C-12.9176948 -4.94970658 -6.56367425 -2.45432519 0 0 Z " fill="#575859" transform="translate(139.3515625,46.83203125)"/>
<path d="M0 0 C0 0.99 0 1.98 0 3 C-0.721875 3.12375 -1.44375 3.2475 -2.1875 3.375 C-5.03107259 3.919919 -5.03107259 3.919919 -7.6875 5.125 C-8.450625 5.41375 -9.21375 5.7025 -10 6 C-10.66 5.67 -11.32 5.34 -12 5 C-12.99 5.33 -13.98 5.66 -15 6 C-14.8125 4.125 -14.8125 4.125 -14 2 C-11.6875 0.8125 -11.6875 0.8125 -9 0 C-8.34 -0.226875 -7.68 -0.45375 -7 -0.6875 C-4.4708538 -1.08267909 -2.46549994 -0.61637498 0 0 Z " fill="#7F8083" transform="translate(116,179)"/>
<path d="M0 0 C4.44707035 3.93883373 7.80879837 8.42808727 10 14 C9.67 14.99 9.34 15.98 9 17 C8.34 15.02 7.68 13.04 7 11 C5.68 11.33 4.36 11.66 3 12 C2.67 11.01 2.34 10.02 2 9 C0.68 9.33 -0.64 9.66 -2 10 C-2.33 9.01 -2.66 8.02 -3 7 C-2.34 6.67 -1.68 6.34 -1 6 C-0.34227572 2.97065509 -0.34227572 2.97065509 0 0 Z " fill="#9C9D9F" transform="translate(168,54)"/>
<path d="M0 0 C5.28 0 10.56 0 16 0 C12 4 12 4 8.984375 4.390625 C7.38335937 4.32101563 7.38335937 4.32101563 5.75 4.25 C4.67234375 4.21390625 3.5946875 4.1778125 2.484375 4.140625 C1.66453125 4.09421875 0.8446875 4.0478125 0 4 C0 2.68 0 1.36 0 0 Z " fill="#D7D8D9" transform="translate(105,164)"/>
<path d="M0 0 C6.625 -0.25 6.625 -0.25 10 2 C9.21625 2.598125 8.4325 3.19625 7.625 3.8125 C4.85425677 5.91085249 4.85425677 5.91085249 3 9 C1.35 8.01 -0.3 7.02 -2 6 C-1.34 4.02 -0.68 2.04 0 0 Z " fill="#E1E2E3" transform="translate(61,49)"/>
<path d="M0 0 C-0.33 0.66 -0.66 1.32 -1 2 C-3.74716664 2.35872093 -6.4709277 2.44405709 -9.23828125 2.55859375 C-12.33823022 3.05405943 -13.60528268 4.05332656 -16 6 C-18.75 6.1875 -18.75 6.1875 -21 6 C-20 3 -20 3 -17.25 1.3125 C-11.77894527 -0.88968555 -5.78421662 -0.23484789 0 0 Z " fill="#B3B3B4" transform="translate(131,181)"/>
<path d="M0 0 C0.99 0.33 1.98 0.66 3 1 C2.46890625 1.4125 1.9378125 1.825 1.390625 2.25 C-3.62601819 6.35119735 -6.61111702 9.99007333 -9 16 C-9.4125 16.99 -9.825 17.98 -10.25 19 C-10.4975 19.66 -10.745 20.32 -11 21 C-11.33 21 -11.66 21 -12 21 C-12.7614407 15.03538116 -11.2205161 11.92294658 -7.72265625 7.09375 C-5.33989554 4.19769617 -3.1286493 2.0857662 0 0 Z " fill="#505052" transform="translate(126,96)"/>
<path d="M0 0 C0.33 0 0.66 0 1 0 C1.08096803 1.45742463 1.13917774 2.91612807 1.1875 4.375 C1.22230469 5.18710938 1.25710937 5.99921875 1.29296875 6.8359375 C1.19628906 7.55007812 1.09960938 8.26421875 1 9 C-2 11 -2 11 -5 11 C-5 7.7 -5 4.4 -5 1 C-2.525 1.495 -2.525 1.495 0 2 C0 1.34 0 0.68 0 0 Z " fill="#68686A" transform="translate(180,85)"/>
<path d="M0 0 C1.9375 1 1.9375 1 3.1875 3.5625 C3.435 4.366875 3.6825 5.17125 3.9375 6 C-0.8125 9 -0.8125 9 -3.0625 9 C-3.7225 7.02 -4.3825 5.04 -5.0625 3 C-2.6625 0 -2.6625 0 0 0 Z " fill="#070707" transform="translate(165.0625,63)"/>
<path d="M0 0 C0.99 0 1.98 0 3 0 C4.20272819 2.40545638 4.10071472 3.94996953 4.0625 6.625 C4.05347656 7.44226563 4.04445313 8.25953125 4.03515625 9.1015625 C4.02355469 9.72804687 4.01195312 10.35453125 4 11 C2.35 11 0.7 11 -1 11 C-1.0270043 9.54176788 -1.04639787 8.08339325 -1.0625 6.625 C-1.07410156 5.81289062 -1.08570312 5.00078125 -1.09765625 4.1640625 C-1 2 -1 2 0 0 Z " fill="#757779" transform="translate(33,175)"/>
<path d="M0 0 C0.99 0.99 1.98 1.98 3 3 C4.32 2.34 5.64 1.68 7 1 C10 6.75 10 6.75 10 9 C8.02 8.34 6.04 7.68 4 7 C4.33 8.32 4.66 9.64 5 11 C2.27042661 8.64264116 1.11106604 6.41866474 0 3 C0 2.01 0 1.02 0 0 Z " fill="#A7A8A9" transform="translate(46,111)"/>
<path d="M0 0 C3.3 0 6.6 0 10 0 C10.66 1.98 11.32 3.96 12 6 C9.36 5.34 6.72 4.68 4 4 C4.99 5.65 5.98 7.3 7 9 C4.60510457 8.25675659 3.29222384 7.52942646 2.06640625 5.30859375 C1.32780077 3.55926499 0.65950315 1.78065851 0 0 Z " fill="#C7C7C8" transform="translate(59,122)"/>
<path d="M0 0 C0.66 0.66 1.32 1.32 2 2 C4.60280568 1.67958603 4.60280568 1.67958603 7 1 C7 2.98 7 4.96 7 7 C4.69 7.33 2.38 7.66 0 8 C-0.66 6.02 -1.32 4.04 -2 2 C-1.34 2 -0.68 2 0 2 C0 1.34 0 0.68 0 0 Z " fill="#E0E1E2" transform="translate(45,79)"/>
<path d="M0 0 C2.64 0.33 5.28 0.66 8 1 C8 1.66 8 2.32 8 3 C8.66 3 9.32 3 10 3 C10.66 4.98 11.32 6.96 12 9 C11.34 8.67 10.68 8.34 10 8 C10 7.34 10 6.68 10 6 C5.545 5.01 5.545 5.01 1 4 C0.67 2.68 0.34 1.36 0 0 Z " fill="#A1A1A3" transform="translate(54,110)"/>
<path d="M0 0 C0 0.33 0 0.66 0 1 C-0.88300781 1.10957031 -1.76601562 1.21914063 -2.67578125 1.33203125 C-10.32736478 2.34292789 -17.61868591 3.74041406 -25 6 C-18.200572 -1.35406412 -9.1803022 -1.32604365 0 0 Z " fill="#747476" transform="translate(106,45)"/>
<path d="M0 0 C4.79908184 3.51932668 7.15141931 6.14616113 9 12 C9.1875 15.4375 9.1875 15.4375 9 18 C5.51578977 14.16736874 4.34949615 10.94815254 3 6 C2.04175747 4.63634717 1.05278825 3.29205831 0 2 C0 1.34 0 0.68 0 0 Z " fill="#3A3A3B" transform="translate(103,86)"/>
<path d="M0 0 C3.3063908 0.55106513 6.19982126 1.09987871 9 3 C9.9375 4.9375 9.9375 4.9375 10 7 C8.5625 8.75 8.5625 8.75 7 10 C5.68 9.01 4.36 8.02 3 7 C3.33 5.35 3.66 3.7 4 2 C2.68 1.34 1.36 0.68 0 0 Z " fill="#B4B5B6" transform="translate(83,74)"/>
<path d="M0 0 C1.32 0 2.64 0 4 0 C4 1.98 4 3.96 4 6 C4.66 6 5.32 6 6 6 C6 6.99 6 7.98 6 9 C0.06 7.515 0.06 7.515 -6 6 C-6 5.67 -6 5.34 -6 5 C-3.69 5 -1.38 5 1 5 C0.67 3.35 0.34 1.7 0 0 Z " fill="#555556" transform="translate(76,81)"/>
<path d="M0 0 C4.75 1.875 4.75 1.875 7 3 C7.40729228 5.32156597 7.74438677 7.6568787 8 10 C6.0625 9.625 6.0625 9.625 4 9 C3 7 3 7 3 3 C2.67 3.99 2.34 4.98 2 6 C1.01 5.67 0.02 5.34 -1 5 C-0.67 3.35 -0.34 1.7 0 0 Z " fill="#9B9C9E" transform="translate(92,78)"/>
<path d="M0 0 C0.99 0 1.98 0 3 0 C3.33 2.97 3.66 5.94 4 9 C2.35 9 0.7 9 -1 9 C-1.09765625 2.84765625 -1.09765625 2.84765625 -1 1 C-0.67 0.67 -0.34 0.34 0 0 Z " fill="#78797C" transform="translate(49,177)"/>
<path d="M0 0 C-1.72744016 0.65043719 -3.4570369 1.29514844 -5.1875 1.9375 C-6.15042969 2.29714844 -7.11335938 2.65679687 -8.10546875 3.02734375 C-12.22589501 4.41194043 -15.96796688 5.13613615 -20.3125 5.0625 C-22.1378125 5.0315625 -22.1378125 5.0315625 -24 5 C-22.68 4.34 -21.36 3.68 -20 3 C-20 2.34 -20 1.68 -20 1 C-18.2984375 1.3403125 -18.2984375 1.3403125 -16.5625 1.6875 C-12.16545274 2.27429456 -9.03282253 1.25772536 -4.98046875 -0.40625 C-3 -1 -3 -1 0 0 Z " fill="#DEDEDF" transform="translate(149,138)"/>
<path d="M0 0 C2.375 1.25 2.375 1.25 3.375 4.25 C4.035 4.91 4.695 5.57 5.375 6.25 C-2.375 5.375 -2.375 5.375 -4.625 4.25 C-5.25 2.1875 -5.25 2.1875 -5.625 0.25 C-2.625 -0.75 -2.625 -0.75 0 0 Z " fill="#CBCCCD" transform="translate(137.625,38.75)"/>
<path d="M0 0 C4.62 0.66 9.24 1.32 14 2 C14 2.33 14 2.66 14 3 C11.75256955 3.53181175 9.50192898 4.05007126 7.25 4.5625 C5.37054688 4.99755859 5.37054688 4.99755859 3.453125 5.44140625 C0.40526252 5.93444283 -1.17641828 6.07666879 -4 5 C-2.02 4.67 -0.04 4.34 2 4 C2 3.34 2 2.68 2 2 C1.34 2 0.68 2 0 2 C0 1.34 0 0.68 0 0 Z " fill="#D4D4D5" transform="translate(85,39)"/>
<path d="M0 0 C1.1055189 0.93590504 2.20935453 1.87379858 3.3125 2.8125 C3.92738281 3.33457031 4.54226562 3.85664062 5.17578125 4.39453125 C6.85424679 5.87172469 8.43882034 7.40039131 10 9 C9.67 9.66 9.34 10.32 9 11 C7.51180543 10.0980639 6.03467187 9.17785871 4.5625 8.25 C3.73878906 7.73953125 2.91507812 7.2290625 2.06640625 6.703125 C0 5 0 5 -0.84765625 2.859375 C-0.89792969 2.24578125 -0.94820313 1.6321875 -1 1 C-0.67 0.67 -0.34 0.34 0 0 Z " fill="#454647" transform="translate(96,88)"/>
<path d="M0 0 C0.99 0.33 1.98 0.66 3 1 C4.84466442 1.14889747 6.69357275 1.2479101 8.54296875 1.31640625 C10.15268555 1.37924805 10.15268555 1.37924805 11.79492188 1.44335938 C12.91447266 1.48267578 14.03402344 1.52199219 15.1875 1.5625 C16.31865234 1.60568359 17.44980469 1.64886719 18.61523438 1.69335938 C21.41003354 1.79949099 24.20492162 1.90154385 27 2 C27 2.33 27 2.66 27 3 C23.06328959 3.22561734 19.12571465 3.42752827 15.1875 3.625 C14.06794922 3.68945312 12.94839844 3.75390625 11.79492188 3.8203125 C10.72177734 3.871875 9.64863281 3.9234375 8.54296875 3.9765625 C7.0583313 4.05511475 7.0583313 4.05511475 5.54370117 4.13525391 C3 4 3 4 0 2 C0 1.34 0 0.68 0 0 Z " fill="#4E4E4F" transform="translate(166,184)"/>
<path d="M0 0 C0.33 0 0.66 0 1 0 C1.33 2.64 1.66 5.28 2 8 C3.65 8.33 5.3 8.66 7 9 C7.33 10.32 7.66 11.64 8 13 C5.69 13 3.38 13 1 13 C-0.32229189 10.35541621 -0.09677194 8.32238699 -0.0625 5.375 C-0.05347656 4.37210937 -0.04445312 3.36921875 -0.03515625 2.3359375 C-0.02355469 1.56507812 -0.01195312 0.79421875 0 0 Z " fill="#383839" transform="translate(51,86)"/>
<path d="M0 0 C1.98 0.66 3.96 1.32 6 2 C5.67 2.99 5.34 3.98 5 5 C1.66666667 5 -1.66666667 5 -5 5 C-3.35 3.35 -1.7 1.7 0 0 Z " fill="#A4A5A6" transform="translate(112,174)"/>
<path d="M0 0 C6.75 1.625 6.75 1.625 9 5 C9 5.99 9 6.98 9 8 C5.08158173 6.69386058 2.67359191 5.16870152 0 2 C0 1.34 0 0.68 0 0 Z " fill="#B3B3B5" transform="translate(62,125)"/>
<path d="M0 0 C0.33 0 0.66 0 1 0 C1 2.64 1 5.28 1 8 C-1.25 8.25 -1.25 8.25 -4 8 C-6.3125 6 -6.3125 6 -8 4 C-5.36 4 -2.72 4 0 4 C0 2.68 0 1.36 0 0 Z " fill="#6D6E70" transform="translate(60,99)"/>
<path d="M0 0 C1.32 0.33 2.64 0.66 4 1 C3.57847656 1.56847656 3.15695313 2.13695313 2.72265625 2.72265625 C-0.71928231 7.57376495 -2.74563017 11.02230894 -3 17 C-3.33 17 -3.66 17 -4 17 C-4.57374185 10.11509775 -3.4753869 5.97332123 0 0 Z " fill="#242324" transform="translate(117,100)"/>
<path d="M0 0 C0.66 0.33 1.32 0.66 2 1 C2 3.31 2 5.62 2 8 C0.02 8.33 -1.96 8.66 -4 9 C-3.35455571 5.51460083 -1.89865603 2.97180943 0 0 Z " fill="#C9CACA" transform="translate(52,59)"/>
<path d="M0 0 C0.66 0 1.32 0 2 0 C3.39151652 4.79300133 2.68662689 9.15135782 2 14 C1.34 13.67 0.68 13.34 0 13 C-0.4140625 11.0390625 -0.4140625 11.0390625 -0.625 8.625 C-0.69976562 7.83351563 -0.77453125 7.04203125 -0.8515625 6.2265625 C-0.96749782 4.48753275 -1 2.74288998 -1 1 C-0.67 0.67 -0.34 0.34 0 0 Z " fill="#C1C2C3" transform="translate(55,55)"/>
<path d="M0 0 C3.465 1.485 3.465 1.485 7 3 C7 3.99 7 4.98 7 6 C5.25 6.75 5.25 6.75 3 7 C0.75 5.0625 0.75 5.0625 -1 3 C-0.67 2.01 -0.34 1.02 0 0 Z " fill="#323232" transform="translate(70,135)"/>
<path d="M0 0 C1.44010481 0.25662245 2.8770687 0.53090821 4.3125 0.8125 C5.11300781 0.96332031 5.91351563 1.11414063 6.73828125 1.26953125 C9.23445587 2.07572236 10.32422106 3.02052002 12 5 C11.67 5.66 11.34 6.32 11 7 C9.34912153 6.40975852 7.70437593 5.80233994 6.0625 5.1875 C5.14597656 4.85105469 4.22945312 4.51460938 3.28515625 4.16796875 C1 3 1 3 0 0 Z " fill="#CCCDCE" transform="translate(55,114)"/>
<path d="M0 0 C0 0.66 0 1.32 0 2 C-5.2734375 5.22265625 -5.2734375 5.22265625 -7 6 C-7.66 5.67 -8.32 5.34 -9 5 C-8.67 4.34 -8.34 3.68 -8 3 C-5.9375 2.375 -5.9375 2.375 -4 2 C-6.31 2 -8.62 2 -11 2 C-6.98764085 -0.6749061 -4.6342454 -1.48957888 0 0 Z " fill="#D7D7D8" transform="translate(158,131)"/>
<path d="M0 0 C0.66 0.99 1.32 1.98 2 3 C1.125 5.6875 1.125 5.6875 0 8 C-1.65 7.67 -3.3 7.34 -5 7 C-5 6.01 -5 5.02 -5 4 C-3.35 3.67 -1.7 3.34 0 3 C0 2.01 0 1.02 0 0 Z " fill="#979799" transform="translate(179,75)"/>
<path d="M0 0 C1.32 0.66 2.64 1.32 4 2 C4 4.31 4 6.62 4 9 C2.0625 8.375 2.0625 8.375 0 7 C-0.8125 3.9375 -0.8125 3.9375 -1 1 C-0.67 0.67 -0.34 0.34 0 0 Z " fill="#0A0A0B" transform="translate(59,72)"/>
<path d="M0 0 C-0.33 0.66 -0.66 1.32 -1 2 C-1.99 2 -2.98 2 -4 2 C-4 2.66 -4 3.32 -4 4 C-4.78375 4.12375 -5.5675 4.2475 -6.375 4.375 C-9.14057822 4.79117993 -9.14057822 4.79117993 -11 7 C-10.67 5.02 -10.34 3.04 -10 1 C-6.59437148 0.22157062 -3.49234244 -0.09978121 0 0 Z " fill="#BEBFC0" transform="translate(172,108)"/>
<path d="M0 0 C0 0.66 0 1.32 0 2 C0.66 2 1.32 2 2 2 C1.67 3.65 1.34 5.3 1 7 C0.67 6.34 0.34 5.68 0 5 C-1.32 5.33 -2.64 5.66 -4 6 C-4.33 4.68 -4.66 3.36 -5 2 C-2 0 -2 0 0 0 Z " fill="#A4A5A6" transform="translate(78,172)"/>
<path d="M0 0 C1.258125 0.12375 2.51625 0.2475 3.8125 0.375 C4.87404297 0.47941406 4.87404297 0.47941406 5.95703125 0.5859375 C8 1 8 1 11 3 C11.33 3.99 11.66 4.98 12 6 C6 4 6 4 0 2 C0 1.34 0 0.68 0 0 Z " fill="#8C8D8E" transform="translate(83,89)"/>
<path d="M0 0 C0.33 0 0.66 0 1 0 C1 2.97 1 5.94 1 9 C0.67 8.34 0.34 7.68 0 7 C-1.32 7 -2.64 7 -4 7 C-3.67 5.35 -3.34 3.7 -3 2 C-2.01 2 -1.02 2 0 2 C0 1.34 0 0.68 0 0 Z " fill="#B2B3B4" transform="translate(162,171)"/>
<path d="M0 0 C-1.22053859 3.66161578 -2.36782304 4.16270474 -5.5625 6.1875 C-6.38878906 6.71730469 -7.21507813 7.24710938 -8.06640625 7.79296875 C-8.70449219 8.19128906 -9.34257813 8.58960938 -10 9 C-10.66 8.67 -11.32 8.34 -12 8 C-10.37982158 6.66081194 -8.75370657 5.3288031 -7.125 4 C-6.22007813 3.2575 -5.31515625 2.515 -4.3828125 1.75 C-2 0 -2 0 0 0 Z " fill="#3C3C3D" transform="translate(128,171)"/>
<path d="M0 0 C0.33 0 0.66 0 1 0 C0.67 2.64 0.34 5.28 0 8 C-0.66 7.67 -1.32 7.34 -2 7 C-3.99021521 7.09723451 -3.99021521 7.09723451 -6.125 7.4375 C-8.043125 7.7159375 -8.043125 7.7159375 -10 8 C-9.67 7.34 -9.34 6.68 -9 6 C-7.35 6 -5.7 6 -4 6 C-4 5.34 -4 4.68 -4 4 C-3.01 3.67 -2.02 3.34 -1 3 C-0.67 2.01 -0.34 1.02 0 0 Z " fill="#DDDDDE" transform="translate(172,106)"/>
<path d="M0 0 C3.55780196 0.60990891 6.6828589 1.5783681 10 3 C9.01 4.32 8.02 5.64 7 7 C4.86906094 5.93453047 3.63412443 4.70840281 2 3 C2.33 2.34 2.66 1.68 3 1 C2.01 0.67 1.02 0.34 0 0 Z " fill="#B4B5B6" transform="translate(137,39)"/>
<path d="M0 0 C0.33 0.99 0.66 1.98 1 3 C2.65 3.33 4.3 3.66 6 4 C6 4.99 6 5.98 6 7 C4.02 7 2.04 7 0 7 C0 4.69 0 2.38 0 0 Z " fill="#636366" transform="translate(64,180)"/>
<path d="M0 0 C0.99 1.485 0.99 1.485 2 3 C3.32 2.34 4.64 1.68 6 1 C6 1.66 6 2.32 6 3 C5.01 3.495 5.01 3.495 4 4 C3.31527335 5.88764903 3.31527335 5.88764903 2.875 8.0625 C2.70742187 8.79597656 2.53984375 9.52945313 2.3671875 10.28515625 C2.24601563 10.85105469 2.12484375 11.41695312 2 12 C0 10 0 10 -0.1953125 7.6171875 C-0.17210937 6.71226562 -0.14890625 5.80734375 -0.125 4.875 C-0.10695312 3.96492187 -0.08890625 3.05484375 -0.0703125 2.1171875 C-0.04710937 1.41851562 -0.02390625 0.71984375 0 0 Z " fill="#646566" transform="translate(164,171)"/>
<path d="M0 0 C0.99 0.33 1.98 0.66 3 1 C2.16855469 1.72316406 2.16855469 1.72316406 1.3203125 2.4609375 C0.59585938 3.09257813 -0.12859375 3.72421875 -0.875 4.375 C-1.59429687 5.00148438 -2.31359375 5.62796875 -3.0546875 6.2734375 C-4.4076598 7.47426834 -5.7208345 8.7208345 -7 10 C-7 6 -7 6 -5.57421875 4.26171875 C-4.64029297 3.48248047 -4.64029297 3.48248047 -3.6875 2.6875 C-2.76517578 1.88892578 -2.76517578 1.88892578 -1.82421875 1.07421875 C-0.92123047 0.54248047 -0.92123047 0.54248047 0 0 Z " fill="#6F6F71" transform="translate(126,96)"/>
<path d="M0 0 C3.17119503 1.09351553 4.00783543 2.0126988 5.8125 4.9375 C7 8 7 8 6 11 C5.34 9.02 4.68 7.04 4 5 C2.68 5.33 1.36 5.66 0 6 C0 4.02 0 2.04 0 0 Z " fill="#AEAEB0" transform="translate(171,60)"/>
<path d="M0 0 C2.475 0.99 2.475 0.99 5 2 C2.64722731 4.72426311 0.37503669 5.8141763 -3 7 C-3 3 -3 3 -1.5 1.25 C-1.005 0.8375 -0.51 0.425 0 0 Z " fill="#DCDCDD" transform="translate(75,43)"/>
<path d="M0 0 C0 0.66 0 1.32 0 2 C-5.445 4.475 -5.445 4.475 -11 7 C-11 6.01 -11 5.02 -11 4 C-9.5437455 3.32880451 -8.08492133 2.66318193 -6.625 2 C-5.81289062 1.62875 -5.00078125 1.2575 -4.1640625 0.875 C-2 0 -2 0 0 0 Z " fill="#B7B8B9" transform="translate(140,81)"/>
<path d="M0 0 C0.99 0.33 1.98 0.66 3 1 C3 3.31 3 5.62 3 8 C2.01 8.495 2.01 8.495 1 9 C1 7.35 1 5.7 1 4 C-0.65 3.67 -2.3 3.34 -4 3 C-2.68 2.67 -1.36 2.34 0 2 C0 1.34 0 0.68 0 0 Z " fill="#838487" transform="translate(165,52)"/>
<path d="M0 0 C1.43859375 0.27070312 1.43859375 0.27070312 2.90625 0.546875 C5.5 1.25 5.5 1.25 8.5 3.25 C2.89 2.59 -2.72 1.93 -8.5 1.25 C-4.89079501 -1.15613666 -4.1091365 -0.81740887 0 0 Z " fill="#A3A5A6" transform="translate(94.5,38.75)"/>
<path d="M0 0 C0.33 1.32 0.66 2.64 1 4 C3.64 4 6.28 4 9 4 C6.01353231 5.99097846 3.40312738 6.94124926 0 8 C0 5.36 0 2.72 0 0 Z " fill="#828385" transform="translate(164,99)"/>
<path d="M0 0 C1.65 0 3.3 0 5 0 C5.33 1.32 5.66 2.64 6 4 C5.01 4 4.02 4 3 4 C1.66018514 4.3062434 0.32488113 4.63451555 -1 5 C-0.67 3.35 -0.34 1.7 0 0 Z " fill="#2F2F31" transform="translate(167,87)"/>
<path d="M0 0 C0 0.99 0 1.98 0 3 C-1.98 3.99 -1.98 3.99 -4 5 C-5.32 3.68 -6.64 2.36 -8 1 C-3.375 -1.125 -3.375 -1.125 0 0 Z " fill="#9A9B9D" transform="translate(159,46)"/>
<path d="M0 0 C0 1.32 0 2.64 0 4 C-0.66 3.34 -1.32 2.68 -2 2 C-4.89223503 1.53603307 -4.89223503 1.53603307 -8.125 1.375 C-9.76855469 1.26285156 -9.76855469 1.26285156 -11.4453125 1.1484375 C-12.70988281 1.07496094 -12.70988281 1.07496094 -14 1 C-14 0.67 -14 0.34 -14 0 C-12.41773035 -0.19627391 -10.83410729 -0.38165538 -9.25 -0.5625 C-8.36828125 -0.66691406 -7.4865625 -0.77132812 -6.578125 -0.87890625 C-4.11567549 -0.99456676 -2.33461936 -0.73638695 0 0 Z " fill="#6F7071" transform="translate(156,169)"/>
<path d="M0 0 C0.33 0.99 0.66 1.98 1 3 C-2.96 2.67 -6.92 2.34 -11 2 C-6.78370866 -0.10814567 -4.60209225 -0.17700355 0 0 Z " fill="#757577" transform="translate(131,44)"/>
<path d="M0 0 C2.31 0 4.62 0 7 0 C6.67 1.65 6.34 3.3 6 5 C5.401875 4.67 4.80375 4.34 4.1875 4 C1.94613529 2.79212012 1.94613529 2.79212012 -1 3 C-0.67 2.01 -0.34 1.02 0 0 Z " fill="#545557" transform="translate(168,177)"/>
<path d="M0 0 C3.3 0 6.6 0 10 0 C10.33 1.32 10.66 2.64 11 4 C9.35232753 3.71890887 7.70686855 3.42481474 6.0625 3.125 C4.68771484 2.88136719 4.68771484 2.88136719 3.28515625 2.6328125 C2.53105469 2.42398438 1.77695312 2.21515625 1 2 C0.67 1.34 0.34 0.68 0 0 Z " fill="#CECFD0" transform="translate(59,122)"/>
<path d="M0 0 C0 0.99 0 1.98 0 3 C-2.31 3.33 -4.62 3.66 -7 4 C-6.67 3.01 -6.34 2.02 -6 1 C-4 0 -4 0 0 0 Z " fill="#737477" transform="translate(160,182)"/>
<path d="M0 0 C0.33 0.66 0.66 1.32 1 2 C2.32 1.67 3.64 1.34 5 1 C5.33 2.32 5.66 3.64 6 5 C4.68 4.67 3.36 4.34 2 4 C2 4.66 2 5.32 2 6 C1.01 6.33 0.02 6.66 -1 7 C-0.67 4.69 -0.34 2.38 0 0 Z " fill="#848587" transform="translate(166,178)"/>
<path d="M0 0 C0.99 0 1.98 0 3 0 C3.33 2.31 3.66 4.62 4 7 C2.68 6.67 1.36 6.34 0 6 C0 4.02 0 2.04 0 0 Z " fill="#737477" transform="translate(189,178)"/>
<path d="M0 0 C2.475 0.99 2.475 0.99 5 2 C3.75 3.5625 3.75 3.5625 2 5 C-0.1875 4.6875 -0.1875 4.6875 -2 4 C-2 3.34 -2 2.68 -2 2 C-1.34 2 -0.68 2 0 2 C0 1.34 0 0.68 0 0 Z " fill="#D6D7D8" transform="translate(76,132)"/>
<path d="M0 0 C1.65 0.33 3.3 0.66 5 1 C5 1.66 5 2.32 5 3 C5.99 3 6.98 3 8 3 C8 3.66 8 4.32 8 5 C5.36 4.34 2.72 3.68 0 3 C0 2.01 0 1.02 0 0 Z " fill="#B3B4B6" transform="translate(55,111)"/>
<path d="M0 0 C0.33 0.99 0.66 1.98 1 3 C-2 5 -2 5 -5 5 C-4.67 3.68 -4.34 2.36 -4 1 C-2.68 0.67 -1.36 0.34 0 0 Z " fill="#4F4F51" transform="translate(180,91)"/>
<path d="M0 0 C0.99 0.33 1.98 0.66 3 1 C2.67 3.97 2.34 6.94 2 10 C1.34 9.67 0.68 9.34 0 9 C0 6.03 0 3.06 0 0 Z " fill="#DEDFE0" transform="translate(57,60)"/>
<path d="M0 0 C1 3 1 3 1.4375 6 C1.82856035 9.16735776 1.82856035 9.16735776 4 12 C2.68 11.67 1.36 11.34 0 11 C-0.19491452 9.54263913 -0.38069358 8.08405407 -0.5625 6.625 C-0.66691406 5.81289062 -0.77132812 5.00078125 -0.87890625 4.1640625 C-1 2 -1 2 0 0 Z " fill="#313133" transform="translate(73,175)"/>
<path d="M0 0 C0.99 0 1.98 0 3 0 C3.33 2.31 3.66 4.62 4 7 C3.67 5.68 3.34 4.36 3 3 C2.01 3 1.02 3 0 3 C-0.33 4.32 -0.66 5.64 -1 7 C-0.67 4.69 -0.34 2.38 0 0 Z " fill="#9FA0A3" transform="translate(33,175)"/>
<path d="M0 0 C1.32 0 2.64 0 4 0 C4.33 1.65 4.66 3.3 5 5 C3.35 4.67 1.7 4.34 0 4 C0 2.68 0 1.36 0 0 Z " fill="#C0C1C2" transform="translate(135,173)"/>
<path d="M0 0 C2.31 0.33 4.62 0.66 7 1 C7 1.99 7 2.98 7 4 C4.625 3.6875 4.625 3.6875 2 3 C1.34 2.01 0.68 1.02 0 0 Z " fill="#373738" transform="translate(53,126)"/>
<path d="M0 0 C0.33 1.32 0.66 2.64 1 4 C-0.98 4.33 -2.96 4.66 -5 5 C-5 4.01 -5 3.02 -5 2 C-3.35 1.34 -1.7 0.68 0 0 Z " fill="#3A3A3B" transform="translate(180,94)"/>
<path d="M0 0 C0.99 0.33 1.98 0.66 3 1 C0.63707344 3.52588702 -0.66462511 4.88820837 -4 6 C-3.6875 4.125 -3.6875 4.125 -3 2 C-2.01 1.34 -1.02 0.68 0 0 Z " fill="#B1B1B2" transform="translate(105,179)"/>
<path d="M0 0 C1.5 1.1875 1.5 1.1875 3 3 C3.1875 5.6875 3.1875 5.6875 3 8 C1.35 6.35 -0.3 4.7 -2 3 C-1.34 2.01 -0.68 1.02 0 0 Z " fill="#797A7C" transform="translate(105,90)"/>
<path d="M0 0 C0.66 0.33 1.32 0.66 2 1 C1.979375 1.78375 1.95875 2.5675 1.9375 3.375 C1.81315937 5.98114961 1.81315937 5.98114961 3 8 C0.525 7.01 0.525 7.01 -2 6 C-2 5.34 -2 4.68 -2 4 C-1.34 4 -0.68 4 0 4 C0 2.68 0 1.36 0 0 Z " fill="#C3C4C5" transform="translate(94,80)"/>
<path d="M0 0 C1.5 1.1875 1.5 1.1875 3 3 C3.1875 5.6875 3.1875 5.6875 3 8 C0 6 0 6 -0.75 3.4375 C-0.8325 2.633125 -0.915 1.82875 -1 1 C-0.67 0.67 -0.34 0.34 0 0 Z " fill="#7E7F81" transform="translate(57,53)"/>
<path d="M0 0 C0 0.99 0 1.98 0 3 C-2.3125 3.6875 -2.3125 3.6875 -5 4 C-6.8125 2.5625 -6.8125 2.5625 -8 1 C-5.36 0.67 -2.72 0.34 0 0 Z " fill="#ACADAF" transform="translate(155,44)"/>
<path d="M0 0 C1.65 0.33 3.3 0.66 5 1 C5 1.99 5 2.98 5 4 C2.69 3.67 0.38 3.34 -2 3 C-1.34 2.01 -0.68 1.02 0 0 Z " fill="#666769" transform="translate(111,178)"/>
<path d="M0 0 C0 0.66 0 1.32 0 2 C-2.31 2 -4.62 2 -7 2 C-7 1.34 -7 0.68 -7 0 C-3.86650268 -1.04449911 -3.01031744 -0.93423645 0 0 Z " fill="#626265" transform="translate(173,101)"/>
<path d="M0 0 C1.134375 0.020625 2.26875 0.04125 3.4375 0.0625 C1.05176621 1.95463369 -0.63425348 3.08641783 -3.5625 4.0625 C-3.8925 3.0725 -4.2225 2.0825 -4.5625 1.0625 C-3.5625 0.0625 -3.5625 0.0625 0 0 Z " fill="#4B4B4D" transform="translate(132.5625,91.9375)"/>
<path d="M0 0 C0.66 0.33 1.32 0.66 2 1 C1.34 2.98 0.68 4.96 0 7 C-0.66 6.34 -1.32 5.68 -2 5 C-2 3.68 -2 2.36 -2 1 C-1.34 0.67 -0.68 0.34 0 0 Z " fill="#4A4A4D" transform="translate(165,55)"/>
<path d="" fill="#8F9091" transform="translate(0,0)"/>
<path d="" fill="#8F9091" transform="translate(0,0)"/>
<path d="" fill="#727376" transform="translate(0,0)"/>
<path d="" fill="#7C7C7C" transform="translate(0,0)"/>
<path d="" fill="#787A7D" transform="translate(0,0)"/>
<path d="" fill="#6C6C6D" transform="translate(0,0)"/>
<path d="" fill="#7C7C7C" transform="translate(0,0)"/>
<path d="" fill="#868686" transform="translate(0,0)"/>
<path d="" fill="#7C7C7C" transform="translate(0,0)"/>
</svg>
