<?xml version="1.0" encoding="UTF-8"?>
<svg version="1.1" xmlns="http://www.w3.org/2000/svg" width="148" height="148">
<path d="M0 0 C0.66 0 1.32 0 2 0 C3.04638672 1.41088867 3.04638672 1.41088867 4.1796875 3.41796875 C4.60846191 4.16804199 5.03723633 4.91811523 5.47900391 5.69091797 C5.93968262 6.51479004 6.40036133 7.33866211 6.875 8.1875 C7.85929562 9.9232221 8.84367374 11.65889742 9.828125 13.39453125 C10.6005957 14.76472412 10.6005957 14.76472412 11.38867188 16.16259766 C13.02389722 19.04208083 14.68734159 21.9034716 16.359375 24.76171875 C16.90480957 25.69927002 17.45024414 26.63682129 18.01220703 27.6027832 C19.07114225 29.42297839 20.13448414 31.24061845 21.20263672 33.05541992 C21.68490723 33.89049072 22.16717773 34.72556152 22.6640625 35.5859375 C23.09154785 36.3186084 23.5190332 37.0512793 23.95947266 37.80615234 C25.17916172 40.37774453 25.86478989 42.13655615 26 45 C24.88317072 47.444582 23.76086496 49.51871058 22.3359375 51.76953125 C21.94685211 52.40936447 21.55776672 53.04919769 21.15689087 53.7084198 C19.90984052 55.7518122 18.64289414 57.78198994 17.375 59.8125 C16.54423655 61.16649867 15.71479508 62.5213094 14.88671875 63.87695312 C10.9670283 70.27774546 6.97997592 76.63658878 3 83 C3.56074722 82.98810135 4.12149445 82.9762027 4.69923401 82.96394348 C10.55643284 82.85053771 16.41053506 82.81465982 22.26879883 82.82299805 C24.45221913 82.81603881 26.63567047 82.78956729 28.81860352 82.74291992 C46.81718888 82.37794519 46.81718888 82.37794519 51.71704102 86.01904297 C53.5790379 88.92548322 54.7515918 91.78395847 56 95 C57.35312791 97.42241978 58.84664677 99.75077737 60.33203125 102.09375 C61.07794237 103.3184464 61.8207714 104.54502515 62.56054688 105.7734375 C62.93042725 106.38541992 63.30030762 106.99740234 63.68139648 107.62792969 C64.05466064 108.24571289 64.4279248 108.86349609 64.8125 109.5 C65.9569891 111.39276249 67.10184667 113.2852994 68.2474823 115.17736816 C69.27364057 116.87230438 70.29859973 118.5679664 71.32348633 120.26367188 C72.50998791 122.20022492 73.7402047 124.11030704 75 126 C75 126.99 75 127.98 75 129 C68.09508853 129.12672146 61.19047656 129.21431806 54.28466797 129.2746582 C51.93527012 129.29981062 49.58595059 129.33393663 47.23681641 129.37719727 C43.86080617 129.43781426 40.48582989 129.46620295 37.109375 129.48828125 C35.53261993 129.52699089 35.53261993 129.52699089 33.92401123 129.56648254 C26.64585169 129.56928523 26.64585169 129.56928523 23.50610352 126.80175781 C23.00908936 125.87717773 22.5120752 124.95259766 22 124 C21.46270264 123.14849365 20.92540527 122.2969873 20.37182617 121.41967773 C19.59029175 120.06531616 19.59029175 120.06531616 18.79296875 118.68359375 C18.20580078 117.67103516 17.61863281 116.65847656 17.01367188 115.61523438 C16.41103516 114.56658203 15.80839844 113.51792969 15.1875 112.4375 C14.59646484 111.41591797 14.00542969 110.39433594 13.39648438 109.34179688 C12.2047529 107.28193386 11.01447976 105.22122642 9.82568359 103.15966797 C6.90031867 98.0968072 3.95035141 93.04832901 1 88 C-1.54573231 91.07653158 -3.76127712 94.09978338 -5.69921875 97.58984375 C-6.18221436 98.45061523 -6.66520996 99.31138672 -7.1628418 100.19824219 C-7.665979 101.10219727 -8.16911621 102.00615234 -8.6875 102.9375 C-21.27083333 125.27083333 -21.27083333 125.27083333 -25 129 C-26.47354348 129.09304018 -27.95150591 129.11746265 -29.42797852 129.11352539 C-30.36887833 129.11344986 -31.30977814 129.11337433 -32.27919006 129.11329651 C-33.30209641 129.10813522 -34.32500275 129.10297394 -35.37890625 129.09765625 C-36.941605 129.09553383 -36.941605 129.09553383 -38.53587341 129.09336853 C-41.87811094 129.0877508 -45.22028257 129.0751953 -48.5625 129.0625 C-50.82226466 129.05748728 -53.08203037 129.05292398 -55.34179688 129.04882812 C-60.89455391 129.03777561 -66.44727225 129.02102024 -72 129 C-72 124.7651712 -71.41532436 123.42896957 -69.4375 119.81640625 C-68.89134033 118.8119043 -68.34518066 117.80740234 -67.7824707 116.77246094 C-67.19425537 115.71317383 -66.60604004 114.65388672 -66 113.5625 C-65.40856201 112.48387695 -64.81712402 111.40525391 -64.20776367 110.29394531 C-60.4809623 103.54086532 -56.63654677 96.89283135 -52.48828125 90.390625 C-50.81597303 87.78703348 -50.81597303 87.78703348 -49 84 C-25.735 83.505 -25.735 83.505 -2 83 C-4.31 79.143125 -6.62 75.28625 -9 71.3125 C-9.74507812 70.06476807 -10.49015625 68.81703613 -11.2578125 67.53149414 C-15.4479961 60.52222357 -15.4479961 60.52222357 -19.8125 53.62109375 C-20.19277344 53.03223389 -20.57304688 52.44337402 -20.96484375 51.83666992 C-21.9231666 50.36776892 -22.89837607 48.90992236 -23.875 47.453125 C-25.28959061 44.36853158 -24.90308955 43.23309015 -24 40 C-22.76000977 37.4831543 -22.76000977 37.4831543 -21.19140625 34.82421875 C-20.32467285 33.34501953 -20.32467285 33.34501953 -19.44042969 31.8359375 C-18.82071289 30.79695313 -18.20099609 29.75796875 -17.5625 28.6875 C-16.61938965 27.09228516 -16.61938965 27.09228516 -15.65722656 25.46484375 C-13.78170304 22.30365601 -11.89351063 19.15044053 -10 16 C-9.46938965 15.11393066 -8.9387793 14.22786133 -8.39208984 13.31494141 C-7.02212885 11.0365134 -5.64021577 8.76611228 -4.25 6.5 C-3.84467041 5.83057373 -3.43934082 5.16114746 -3.02172852 4.47143555 C-2.07035972 2.94468679 -1.04314515 1.46557584 0 0 Z " fill="#070707" transform="translate(73,10)"/>
<path d="M0 0 C0.66 0 1.32 0 2 0 C3.04638672 1.41088867 3.04638672 1.41088867 4.1796875 3.41796875 C4.60846191 4.16804199 5.03723633 4.91811523 5.47900391 5.69091797 C5.93968262 6.51479004 6.40036133 7.33866211 6.875 8.1875 C7.85929562 9.9232221 8.84367374 11.65889742 9.828125 13.39453125 C10.34310547 14.30799316 10.85808594 15.22145508 11.38867188 16.16259766 C13.02389722 19.04208083 14.68734159 21.9034716 16.359375 24.76171875 C17.17752686 26.16804565 17.17752686 26.16804565 18.01220703 27.6027832 C19.07114225 29.42297839 20.13448414 31.24061845 21.20263672 33.05541992 C21.68490723 33.89049072 22.16717773 34.72556152 22.6640625 35.5859375 C23.09154785 36.3186084 23.5190332 37.0512793 23.95947266 37.80615234 C25.17916172 40.37774453 25.86478989 42.13655615 26 45 C24.88317072 47.444582 23.76086496 49.51871058 22.3359375 51.76953125 C21.94685211 52.40936447 21.55776672 53.04919769 21.15689087 53.7084198 C19.90984052 55.7518122 18.64289414 57.78198994 17.375 59.8125 C16.54423655 61.16649867 15.71479508 62.5213094 14.88671875 63.87695312 C13.30428038 66.46266232 11.7102893 69.04055228 10.10449219 71.61181641 C8.85186484 73.62851738 7.61283055 75.65392564 6.40332031 77.69677734 C3.31295764 82.89568079 3.31295764 82.89568079 0 84 C0 83.34 0 82.68 0 82 C-0.57814453 81.80051758 -1.15628906 81.60103516 -1.75195312 81.39550781 C-4.86139619 79.46527578 -6.22660248 76.7851322 -7.96875 73.671875 C-8.33093628 73.04524963 -8.69312256 72.41862427 -9.06628418 71.77301025 C-10.22093728 69.77093559 -11.36086896 67.76093958 -12.5 65.75 C-13.64205176 63.75515188 -14.78709471 61.76206126 -15.93371582 59.76983643 C-16.64495882 58.53178631 -17.35308709 57.2919395 -18.05749512 56.04998779 C-19.68654772 53.19317797 -21.34873842 50.52966006 -23.31054688 47.88378906 C-25 45 -25 45 -24.92553711 42.44848633 C-23.8952514 39.72289009 -22.67280606 37.33533553 -21.19140625 34.82421875 C-20.61358398 33.83808594 -20.03576172 32.85195313 -19.44042969 31.8359375 C-18.82071289 30.79695313 -18.20099609 29.75796875 -17.5625 28.6875 C-16.93375977 27.62402344 -16.30501953 26.56054688 -15.65722656 25.46484375 C-13.78170304 22.30365601 -11.89351063 19.15044053 -10 16 C-9.20408447 14.670896 -9.20408447 14.670896 -8.39208984 13.31494141 C-7.02212885 11.0365134 -5.64021577 8.76611228 -4.25 6.5 C-3.84467041 5.83057373 -3.43934082 5.16114746 -3.02172852 4.47143555 C-2.07035972 2.94468679 -1.04314515 1.46557584 0 0 Z " fill="#0E0E0E" transform="translate(73,10)"/>
<path d="M0 0 C6.60176043 -0.12687837 13.203206 -0.21438377 19.8059082 -0.2746582 C22.05147044 -0.29978723 24.296951 -0.33389615 26.54223633 -0.37719727 C29.77185218 -0.43791776 33.00038584 -0.46622631 36.23046875 -0.48828125 C37.23272995 -0.51408768 38.23499115 -0.5398941 39.2676239 -0.56648254 C46.25977553 -0.56928993 46.25977553 -0.56928993 50.06176758 2.35473633 C52.11551137 5.15764778 53.8501527 7.94028319 55.5 11 C59.62262928 18.51901917 64.16720691 25.75369788 68.78320312 32.97851562 C69.32912109 33.84541016 69.87503906 34.71230469 70.4375 35.60546875 C71.17806641 36.76792114 71.17806641 36.76792114 71.93359375 37.95385742 C73 40 73 40 73 43 C66.09508853 43.12672146 59.19047656 43.21431806 52.28466797 43.2746582 C49.93527012 43.29981062 47.58595059 43.33393663 45.23681641 43.37719727 C41.86080617 43.43781426 38.48582989 43.46620295 35.109375 43.48828125 C33.53261993 43.52699089 33.53261993 43.52699089 31.92401123 43.56648254 C24.64657492 43.56928495 24.64657492 43.56928495 21.50830078 40.80615234 C21.01056152 39.88012207 20.51282227 38.9540918 20 38 C19.45746582 37.13802002 18.91493164 36.27604004 18.35595703 35.38793945 C17.82856934 34.47230225 17.30118164 33.55666504 16.7578125 32.61328125 C16.16613281 31.59169922 15.57445313 30.57011719 14.96484375 29.51757812 C14.35769531 28.45990234 13.75054687 27.40222656 13.125 26.3125 C11.91987458 24.22491177 10.71415116 22.13766863 9.5078125 20.05078125 C8.63431152 18.53025146 8.63431152 18.53025146 7.74316406 16.97900391 C5.59913096 13.3149294 3.34833767 9.72208862 1.06201172 6.14526367 C0 4 0 4 0 0 Z " fill="#080808" transform="translate(75,96)"/>
<path d="M0 0 C0.56164856 0.16076523 1.12329712 0.32153046 1.70196533 0.48716736 C4.11833597 1.02640802 6.29454564 1.15876833 8.76855469 1.20532227 C10.17956451 1.2352401 10.17956451 1.2352401 11.61907959 1.26576233 C12.62650208 1.28247482 13.63392456 1.29918732 14.671875 1.31640625 C16.22820648 1.3475779 16.22820648 1.3475779 17.815979 1.37937927 C21.12725258 1.44471408 24.43860482 1.50368517 27.75 1.5625 C29.99610185 1.60570049 32.24219578 1.64931527 34.48828125 1.69335938 C39.99210457 1.80037903 45.49600598 1.90217522 51 2 C51 2.99 51 3.98 51 5 C35.49 4.67 19.98 4.34 4 4 C3.67 4.66 3.34 5.32 3 6 C2.34 6 1.68 6 1 6 C1 5.34 1 4.68 1 4 C-15.17 4.33 -31.34 4.66 -48 5 C-47.67 4.01 -47.34 3.02 -47 2 C-31.49 1.67 -15.98 1.34 0 1 C0 0.67 0 0.34 0 0 Z " fill="#939393" transform="translate(71,92)"/>
<path d="M0 0 C0.33 0.66 0.66 1.32 1 2 C16.51 2 32.02 2 48 2 C47.67 2.66 47.34 3.32 47 4 C31.49 4 15.98 4 0 4 C0 2.68 0 1.36 0 0 Z " fill="#A6A6A6" transform="translate(1,135)"/>
<path d="M0 0 C0.66 0.33 1.32 0.66 2 1 C2 1.99 2 2.98 2 4 C-14.17 4 -30.34 4 -47 4 C-47.33 3.34 -47.66 2.68 -48 2 C-32.16 2 -16.32 2 0 2 C0 1.34 0 0.68 0 0 Z " fill="#A0A0A0" transform="translate(146,135)"/>
</svg>
