<?xml version="1.0" encoding="UTF-8"?>
<svg version="1.1" xmlns="http://www.w3.org/2000/svg" width="300" height="261">
<path d="M0 0 C0.7616748 -0.00983917 1.52334961 -0.01967834 2.30810547 -0.02981567 C34.277852 -0.35792109 34.277852 -0.35792109 47.98828125 4.23828125 C48.73480957 4.48497559 49.48133789 4.73166992 50.25048828 4.98583984 C70.58546462 11.911551 87.34731442 22.4763109 102.98828125 37.23828125 C103.73722656 37.92277344 104.48617187 38.60726562 105.2578125 39.3125 C118.78034465 52.12456637 130.22098482 70.37758848 135.17578125 88.36328125 C136.45551588 92.72340877 136.45551588 92.72340877 140.42578125 95.23828125 C141.93920468 95.60378729 143.46176566 95.93202107 144.98828125 96.23828125 C147.26510615 96.88418902 149.53573514 97.55220938 151.80078125 98.23828125 C152.90035156 98.54765625 153.99992187 98.85703125 155.1328125 99.17578125 C158.03897925 100.25714562 159.14302106 100.81979293 160.98828125 103.23828125 C161.38269043 105.66014099 161.38269043 105.66014099 161.40820312 108.56420898 C161.42411499 109.65221298 161.44002686 110.74021698 161.4564209 111.8611908 C161.45672302 113.62372948 161.45672302 113.62372948 161.45703125 115.421875 C161.46464478 116.62892593 161.4722583 117.83597687 161.48010254 119.0796051 C161.49091588 121.63418507 161.49375167 124.1888093 161.48925781 126.7434082 C161.48828587 130.65716114 161.52989023 134.56895236 161.57421875 138.48242188 C161.57942573 140.96223548 161.58211394 143.44205593 161.58203125 145.921875 C161.59842651 147.09487656 161.61482178 148.26787811 161.63171387 149.47642517 C161.56264345 157.57564205 161.56264345 157.57564205 158.61669922 160.97436523 C155.76216359 162.34701347 153.76878488 162.76382412 150.61328125 162.86328125 C146.07364656 163.03335402 142.16749793 163.35763374 137.98828125 165.23828125 C136.28443883 167.90672461 135.49679462 170.77772161 134.61328125 173.80078125 C128.21770713 193.1399541 117.91913999 208.42252223 103.98828125 223.23828125 C103.12396484 224.21667969 103.12396484 224.21667969 102.2421875 225.21484375 C89.36156285 239.15690072 71.27894056 249.00330632 53.48828125 255.05078125 C52.67069336 255.32897705 51.85310547 255.60717285 51.01074219 255.89379883 C37.69859462 260.17680358 24.87634195 261.82669169 10.98828125 261.73828125 C10.22781494 261.73618652 9.46734863 261.7340918 8.68383789 261.73193359 C-16.61213051 261.58906336 -38.56131528 254.8653403 -60.2265625 241.90234375 C-62.89307632 240.26030617 -62.89307632 240.26030617 -65.30078125 239.1015625 C-67.28982083 238.09796034 -68.44066168 236.80933832 -70.01171875 235.23828125 C-70.77484375 234.82578125 -71.53796875 234.41328125 -72.32421875 233.98828125 C-75.37214093 232.00358773 -77.19895567 229.78197074 -79.48046875 226.98828125 C-81.26683943 224.94671476 -83.31967732 223.36394018 -85.4375 221.6796875 C-89.73142745 217.74802688 -93.08886451 212.71944365 -96.26171875 207.86328125 C-97.80757013 205.32830744 -97.80757013 205.32830744 -99.4296875 203.91015625 C-101.46089669 201.76359444 -102.68013497 199.46604636 -104.07421875 196.86328125 C-104.83412109 195.45949219 -104.83412109 195.45949219 -105.609375 194.02734375 C-109.01171875 187.26056537 -109.01171875 187.26056537 -109.01171875 184.23828125 C-109.67171875 183.90828125 -110.33171875 183.57828125 -111.01171875 183.23828125 C-111.7750867 181.30825662 -112.45001392 179.34269885 -113.07421875 177.36328125 C-113.58662109 175.75839844 -113.58662109 175.75839844 -114.109375 174.12109375 C-114.40714844 173.16976562 -114.70492187 172.2184375 -115.01171875 171.23828125 C-115.34171875 170.24828125 -115.67171875 169.25828125 -116.01171875 168.23828125 C-116.01171875 167.24828125 -116.01171875 166.25828125 -116.01171875 165.23828125 C-120.77834877 164.23220975 -125.46216289 163.24443668 -130.32421875 162.86328125 C-134.73817512 162.11515305 -136.11604344 161.66632193 -139.01171875 158.23828125 C-139.76381713 154.13937546 -139.66356352 150.07827406 -139.60546875 145.921875 C-139.60550903 144.71386734 -139.60554932 143.50585968 -139.60559082 142.26124573 C-139.60023043 139.70837194 -139.58262597 137.15549886 -139.55371094 134.6027832 C-139.51184034 130.68715212 -139.51264284 126.77323912 -139.51953125 122.85742188 C-139.50903983 120.37889425 -139.496102 117.90037552 -139.48046875 115.421875 C-139.48026733 114.24684921 -139.48006592 113.07182343 -139.4798584 111.8611908 C-139.46394653 110.7731868 -139.44803467 109.6851828 -139.43164062 108.56420898 C-139.41901184 107.12669533 -139.41901184 107.12669533 -139.40612793 105.66014099 C-138.94441571 102.82500859 -138.26610317 101.95711011 -136.01171875 100.23828125 C-134.05053711 99.4387207 -134.05053711 99.4387207 -131.8515625 98.8515625 C-131.05814453 98.63564453 -130.26472656 98.41972656 -129.44726562 98.19726562 C-128.62291016 97.98392578 -127.79855469 97.77058594 -126.94921875 97.55078125 C-125.70688477 97.21336914 -125.70688477 97.21336914 -124.43945312 96.86914062 C-118.34727631 95.23828125 -118.34727631 95.23828125 -116.01171875 95.23828125 C-115.90601562 94.59375 -115.8003125 93.94921875 -115.69140625 93.28515625 C-112.44066559 78.71287054 -105.69372301 66.23463239 -97.01171875 54.23828125 C-96.35429688 53.31789062 -95.696875 52.3975 -95.01953125 51.44921875 C-73.1617692 22.64950653 -36.84656489 0.3891151 0 0 Z M-65.01171875 68.23828125 C-69.74859313 74.22122628 -73.5750135 79.92816551 -76.01171875 87.23828125 C-18.92171875 87.23828125 38.16828125 87.23828125 96.98828125 87.23828125 C90.60998039 68.10337866 71.81465229 52.41068168 54.42578125 43.17578125 C12.9802111 23.08575297 -34.79385943 34.09353688 -65.01171875 68.23828125 Z M-77.01171875 172.23828125 C-70.04040842 193.15221224 -50.78237725 209.33474108 -31.62890625 218.93359375 C-6.34267781 230.39591598 20.45159578 230.92761846 46.43359375 221.671875 C66.91472347 213.4119029 85.71163208 198.02846209 95.98828125 178.23828125 C96.64828125 176.25828125 97.30828125 174.27828125 97.98828125 172.23828125 C40.23828125 172.23828125 -17.51171875 172.23828125 -77.01171875 172.23828125 Z " fill="#8A8A8C" transform="translate(139.01171875,-0.23828125)"/>
<path d="M0 0 C0.7616748 -0.00983917 1.52334961 -0.01967834 2.30810547 -0.02981567 C34.277852 -0.35792109 34.277852 -0.35792109 47.98828125 4.23828125 C48.73480957 4.48497559 49.48133789 4.73166992 50.25048828 4.98583984 C69.10854795 11.40854091 86.88869377 20.57720379 99.984375 35.921875 C101.69654072 37.90104512 103.44554673 39.65312357 105.36328125 41.42578125 C118.85342382 54.75942565 131.88936986 75.39547523 134.98828125 94.23828125 C133.66828125 94.56828125 132.34828125 94.89828125 130.98828125 95.23828125 C131.64828125 95.56828125 132.30828125 95.89828125 132.98828125 96.23828125 C132.98828125 96.89828125 132.98828125 97.55828125 132.98828125 98.23828125 C99.28010871 98.44467078 99.28010871 98.44467078 85.98828125 97.23828125 C85.98828125 96.57828125 85.98828125 95.91828125 85.98828125 95.23828125 C85.14118277 95.3082708 84.29408428 95.37826035 83.42131615 95.45037079 C74.89877499 96.11274671 66.43924967 96.39852477 57.89306641 96.42773438 C56.54751849 96.43570616 55.20197301 96.44409624 53.85643005 96.4528656 C50.98925124 96.47072787 48.12207706 96.48581066 45.25487137 96.49864197 C40.70425271 96.51913548 36.15369302 96.54674732 31.6031189 96.57531738 C21.93986764 96.63501464 12.27658049 96.68704183 2.61328125 96.73828125 C-7.81787334 96.79362109 -18.24900986 96.85039381 -28.68010676 96.91583014 C-32.45530212 96.93929662 -36.23048793 96.96088882 -40.00571823 96.97792053 C-60.02791076 97.00369544 -60.02791076 97.00369544 -80.01712036 98.0198822 C-84.84835836 98.37222921 -89.67050506 98.34753889 -94.51171875 98.30078125 C-95.44113281 98.29626953 -96.37054688 98.29175781 -97.328125 98.28710938 C-99.55606733 98.27562514 -101.78385081 98.2594031 -104.01171875 98.23828125 C-104.01171875 97.57828125 -104.01171875 96.91828125 -104.01171875 96.23828125 C-107.97171875 95.90828125 -111.93171875 95.57828125 -116.01171875 95.23828125 C-112.93927892 79.87608211 -106.12935232 66.83656277 -97.01171875 54.23828125 C-96.35429688 53.31789062 -95.696875 52.3975 -95.01953125 51.44921875 C-73.1617692 22.64950653 -36.84656489 0.3891151 0 0 Z M-65.01171875 68.23828125 C-69.74859313 74.22122628 -73.5750135 79.92816551 -76.01171875 87.23828125 C-18.92171875 87.23828125 38.16828125 87.23828125 96.98828125 87.23828125 C90.60998039 68.10337866 71.81465229 52.41068168 54.42578125 43.17578125 C12.9802111 23.08575297 -34.79385943 34.09353688 -65.01171875 68.23828125 Z " fill="#D9D9DA" transform="translate(139.01171875,-0.23828125)"/>
<path d="M0 0 C1.72060542 1.4648733 3.43033635 2.94269168 5.125 4.4375 C5.74761719 4.97632812 6.37023437 5.51515625 7.01171875 6.0703125 C17.17599565 15.50010786 28.55493446 31.56618737 31.125 45.4375 C30.135 45.1075 29.145 44.7775 28.125 44.4375 C25.62767407 44.33777537 23.15816634 44.29404979 20.66067505 44.29705811 C19.89393176 44.29408698 19.12718847 44.29111586 18.33721054 44.2880547 C15.76011506 44.27936187 13.18306601 44.27785897 10.60595703 44.27636719 C8.76143291 44.27173947 6.91690974 44.26671488 5.0723877 44.26132202 C0.05586105 44.2481926 -4.96065221 44.24175215 -9.97719336 44.23731136 C-13.10984954 44.23438186 -16.24250206 44.23027731 -19.3751564 44.22580719 C-29.1723475 44.2121316 -38.96953021 44.20246492 -48.76673019 44.1986053 C-60.08416418 44.19412251 -71.40147752 44.1765646 -82.71887481 44.1476047 C-91.46204339 44.1260068 -100.20517798 44.11590205 -108.94837296 44.11456418 C-114.17269979 44.11351491 -119.39691321 44.10758103 -124.62121201 44.08974457 C-129.53449192 44.07329631 -134.44757277 44.07109257 -139.36087036 44.07988358 C-141.1648423 44.08065566 -142.96882479 44.07628874 -144.77276993 44.06642532 C-147.23432106 44.05375485 -149.69516193 44.0595556 -152.15670776 44.07000732 C-152.87159548 44.06195092 -153.58648319 44.05389452 -154.32303417 44.04559398 C-158.72150146 44.08931334 -161.27531819 44.95601608 -164.875 47.4375 C-165.535 47.4375 -166.195 47.4375 -166.875 47.4375 C-161.81919795 24.58106155 -143.20139284 4.46618214 -124.16015625 -7.94921875 C-85.00308896 -32.4369565 -35.75149239 -28.58181641 0 0 Z M-142.875 18.4375 C-147.61187438 24.42044503 -151.43829475 30.12738426 -153.875 37.4375 C-96.785 37.4375 -39.695 37.4375 19.125 37.4375 C12.74669914 18.30259741 -6.04862896 2.60990043 -23.4375 -6.625 C-64.88307015 -26.71502828 -112.65714068 -15.70724437 -142.875 18.4375 Z " fill="#606062" transform="translate(216.875,49.5625)"/>
<path d="M0 0 C1.73525688 0.24349686 1.73525688 0.24349686 3.50556946 0.49191284 C10.62055457 1.27542839 17.76326329 1.13959933 24.91088867 1.12939453 C26.51196838 1.13075163 28.11304778 1.1325333 29.71412659 1.13470459 C34.04551901 1.13924696 38.3768875 1.13750125 42.70828032 1.1343255 C47.26770447 1.13177967 51.82712667 1.13414614 56.3865509 1.13571167 C64.05547449 1.13752929 71.72438843 1.13514023 79.39331055 1.13037109 C88.20389403 1.12495451 97.01445428 1.12667373 105.82503718 1.1321975 C113.42889864 1.13677058 121.03275318 1.1373581 128.63661557 1.13475883 C133.15991521 1.13321568 137.68320402 1.13294695 142.20650291 1.13629532 C167.68265943 1.16428576 167.68265943 1.16428576 193.13789368 0.21408081 C195.75554873 0.06898131 198.37832652 0 201 0 C200 2 200 2 198 5 C197.54882812 5.79019531 197.09765625 6.58039063 196.6328125 7.39453125 C194.92622915 10.11771569 193.0523925 12.32670705 190.875 14.6875 C189.69744141 15.97333984 189.69744141 15.97333984 188.49609375 17.28515625 C187.67238281 18.18105469 186.84867188 19.07695312 186 20 C184.31038911 21.87309805 182.62279243 23.74801554 180.9375 25.625 C179.625 27.08333333 178.3125 28.54166667 177 30 C176.34 29.67 175.68 29.34 175 29 C175.53109375 28.29875 176.0621875 27.5975 176.609375 26.875 C177.31578125 25.92625 178.0221875 24.9775 178.75 24 C179.44609375 23.071875 180.1421875 22.14375 180.859375 21.1875 C183.54490734 17.33483153 183.54490734 17.33483153 187 10 C129.25 10 71.5 10 12 10 C18.09160216 20.90593171 18.09160216 20.90593171 25 31 C24.67 31.66 24.34 32.32 24 33 C0 7.75548061 0 7.75548061 0 0 Z " fill="#696A6C" transform="translate(50,162)"/>
<path d="M0 0 C0.66 0 1.32 0 2 0 C2.22171875 0.57105469 2.4434375 1.14210937 2.671875 1.73046875 C6.19364582 9.7565334 11.57652026 15.31717628 17.58886719 21.51513672 C20.01913718 24.07238622 22.26028078 26.78789356 24.5 29.51171875 C25.94078698 31.09969418 25.94078698 31.09969418 27.94921875 31.95703125 C30.49236903 33.25040482 31.89928216 34.88678108 33.8125 37 C51.11892511 54.58920984 76.5039605 63.92018844 100.9375 64.25 C128.09607986 64.00727188 153.17268871 53.21662836 172.1875 33.875 C172.98027344 33.05257812 173.77304688 32.23015625 174.58984375 31.3828125 C177.76394805 28.24471911 181.20798169 25.55608964 184.734375 22.828125 C186.80895335 21.15415488 188.65346754 19.41824246 190.5 17.5 C191.325 16.675 192.15 15.85 193 15 C193.66 15 194.32 15 195 15 C195.33 14.01 195.66 13.02 196 12 C196.33 12.66 196.66 13.32 197 14 C195.83484252 16.37017562 194.62138735 18.56403984 193.25 20.8125 C192.64079712 21.81531006 192.64079712 21.81531006 192.01928711 22.83837891 C176.18719329 48.19252196 152.00108701 64.01446859 123.3125 71.0546875 C96.48050657 77.15913468 67.5611711 71.4118834 44.23828125 57.12109375 C27.83166446 46.3746608 15.43779817 32.4658224 6.1875 15.3125 C5.80182861 14.59940674 5.41615723 13.88631348 5.01879883 13.15161133 C2.75534954 8.83203246 1.17301035 4.73548621 0 0 Z " fill="#B4B6B8" transform="translate(48,163)"/>
<path d="M0 0 C6.27 0 12.54 0 19 0 C20.0725 2.289375 21.145 4.57875 22.25 6.9375 C22.5790332 7.63866943 22.90806641 8.33983887 23.24707031 9.06225586 C25.56319297 14.01633609 27.77773153 18.99989594 30 24 C30.33 16.41 30.66 8.82 31 1 C34.63 1 38.26 1 42 1 C42 12.22 42 23.44 42 35 C38.926875 35.103125 35.85375 35.20625 32.6875 35.3125 C31.72287842 35.35802002 30.75825684 35.40354004 29.7644043 35.45043945 C27.42977323 35.48859909 25.29538433 35.43997874 23 35 C21.0546875 32.890625 21.0546875 32.890625 20 30 C19.56558594 28.94683594 19.13117188 27.89367187 18.68359375 26.80859375 C18.27238281 25.69613281 17.86117187 24.58367187 17.4375 23.4375 C16.09546774 19.82112023 14.72865889 16.45731777 13 13 C12.67 20.59 12.34 28.18 12 36 C8.04 36 4.08 36 0 36 C0 24.12 0 12.24 0 0 Z " fill="#030303" transform="translate(226,113)"/>
<path d="M0 0 C3.63 0 7.26 0 11 0 C11 11.88 11 23.76 11 36 C4.73 36 -1.54 36 -8 36 C-8.63808594 34.50726563 -9.27617188 33.01453125 -9.93359375 31.4765625 C-10.76819742 29.52602808 -11.60283457 27.57550799 -12.4375 25.625 C-12.85837891 24.64015625 -13.27925781 23.6553125 -13.71289062 22.640625 C-14.11572266 21.69960937 -14.51855469 20.75859375 -14.93359375 19.7890625 C-15.4913147 18.48509521 -15.4913147 18.48509521 -16.06030273 17.15478516 C-16.67127388 15.75378974 -17.31646889 14.36706222 -18 13 C-18.33 20.26 -18.66 27.52 -19 35 C-24.94 35.495 -24.94 35.495 -31 36 C-31 24.45 -31 12.9 -31 1 C-24.73 1 -18.46 1 -12 1 C-10.741875 3.495625 -9.48375 5.99125 -8.1875 8.5625 C-7.79715576 9.33408447 -7.40681152 10.10566895 -7.00463867 10.90063477 C-6.6872876 11.53283936 -6.36993652 12.16504395 -6.04296875 12.81640625 C-5.56380005 13.76688843 -5.56380005 13.76688843 -5.07495117 14.73657227 C-3.62778037 17.78374929 -2.32883356 20.89938836 -1 24 C-0.67 16.08 -0.34 8.16 0 0 Z " fill="#030303" transform="translate(62,113)"/>
<path d="M0 0 C1.11181641 0.00644531 2.22363281 0.01289062 3.36914062 0.01953125 C5.09487305 0.04466797 5.09487305 0.04466797 6.85546875 0.0703125 C8.02529297 0.07933594 9.19511719 0.08835937 10.40039062 0.09765625 C13.28145928 0.12117518 16.16210864 0.15404398 19.04296875 0.1953125 C19.04296875 3.1653125 19.04296875 6.1353125 19.04296875 9.1953125 C11.45296875 9.1953125 3.86296875 9.1953125 -3.95703125 9.1953125 C-3.95703125 10.8453125 -3.95703125 12.4953125 -3.95703125 14.1953125 C-2.71566406 14.16050781 -1.47429687 14.12570313 -0.1953125 14.08984375 C1.44660101 14.06169666 3.08852921 14.03439749 4.73046875 14.0078125 C5.54708984 13.98267578 6.36371094 13.95753906 7.20507812 13.93164062 C13.48047636 13.85542121 16.77045452 14.98421758 21.35546875 19.4453125 C23.53678059 23.00004291 23.55675898 25.08499069 23.04296875 29.1953125 C21.37257831 32.87017147 19.49415711 35.10368319 16.04296875 37.1953125 C12.66264097 38.30085521 9.50515154 38.3103232 5.96484375 38.29296875 C4.22460938 38.28813477 4.22460938 38.28813477 2.44921875 38.28320312 C1.24265625 38.27482422 0.03609375 38.26644531 -1.20703125 38.2578125 C-2.4290625 38.25330078 -3.65109375 38.24878906 -4.91015625 38.24414062 C-7.92583071 38.23236065 -10.94140623 38.21591103 -13.95703125 38.1953125 C-13.95703125 34.8953125 -13.95703125 31.5953125 -13.95703125 28.1953125 C-5.70703125 28.1953125 2.54296875 28.1953125 11.04296875 28.1953125 C11.04296875 26.5453125 11.04296875 24.8953125 11.04296875 23.1953125 C9.09003906 23.28232422 9.09003906 23.28232422 7.09765625 23.37109375 C5.37112974 23.41801023 3.64456427 23.46350836 1.91796875 23.5078125 C1.06203125 23.54970703 0.20609375 23.59160156 -0.67578125 23.63476562 C-5.06533849 23.71918019 -8.02247879 23.64035101 -11.51171875 20.80078125 C-15.1285262 16.94709025 -15.30415677 14.57494702 -15.23828125 9.453125 C-14.81368519 6.0445622 -13.48407207 4.44915972 -10.95703125 2.1953125 C-7.18489183 0.34146425 -4.18047895 -0.04287671 0 0 Z " fill="#050505" transform="translate(153.95703125,111.8046875)"/>
<path d="M0 0 C1.60004883 0.00966797 1.60004883 0.00966797 3.23242188 0.01953125 C4.33521484 0.03628906 5.43800781 0.05304688 6.57421875 0.0703125 C7.69634766 0.07933594 8.81847656 0.08835937 9.97460938 0.09765625 C12.73719784 0.12116764 15.49934807 0.15403095 18.26171875 0.1953125 C18.26171875 3.1653125 18.26171875 6.1353125 18.26171875 9.1953125 C10.67171875 9.1953125 3.08171875 9.1953125 -4.73828125 9.1953125 C-4.73828125 10.8453125 -4.73828125 12.4953125 -4.73828125 14.1953125 C-3.50851563 14.16050781 -2.27875 14.12570313 -1.01171875 14.08984375 C0.62108002 14.06169205 2.25389365 14.03439337 3.88671875 14.0078125 C5.09908203 13.97010742 5.09908203 13.97010742 6.3359375 13.93164062 C11.42073301 13.86963092 14.85484922 14.36621107 19.26171875 17.1953125 C22.16306853 20.58022058 22.85703461 23.73176071 22.6796875 28.19921875 C21.90175157 31.91440807 20.02193984 33.61910615 17.26171875 36.1953125 C13.37200102 38.16374415 10.19691895 38.43166511 5.8671875 38.390625 C4.66513672 38.38417969 3.46308594 38.37773437 2.22460938 38.37109375 C0.97873047 38.35433594 -0.26714844 38.33757812 -1.55078125 38.3203125 C-3.44860352 38.30677734 -3.44860352 38.30677734 -5.38476562 38.29296875 C-8.50279689 38.26943644 -11.62044222 38.23655795 -14.73828125 38.1953125 C-14.73828125 34.8953125 -14.73828125 31.5953125 -14.73828125 28.1953125 C-6.48828125 28.1953125 1.76171875 28.1953125 10.26171875 28.1953125 C10.26171875 26.5453125 10.26171875 24.8953125 10.26171875 23.1953125 C9.03195313 23.24171875 7.8021875 23.288125 6.53515625 23.3359375 C4.90236815 23.37347286 3.26955364 23.40987112 1.63671875 23.4453125 C0.82847656 23.47882813 0.02023438 23.51234375 -0.8125 23.546875 C-6.30198351 23.63613489 -9.40914785 22.89838661 -13.73828125 19.1953125 C-16.41504102 15.18017285 -16.55110195 11.91464903 -15.73828125 7.1953125 C-11.53796303 1.55488517 -6.85403823 -0.07330522 0 0 Z " fill="#050506" transform="translate(113.73828125,111.8046875)"/>
<path d="M0 0 C5.28 0 10.56 0 16 0 C19.78916531 7.37351087 23.14464034 14.84081931 26.3125 22.5 C26.76689453 23.5828125 27.22128906 24.665625 27.68945312 25.78125 C28.11806641 26.8125 28.54667969 27.84375 28.98828125 28.90625 C29.56896362 30.30327148 29.56896362 30.30327148 30.16137695 31.72851562 C31 34 31 34 31 36 C27.37 36 23.74 36 20 36 C17 30.375 17 30.375 17 27 C11.06 27 5.12 27 -1 27 C-1.99 30.3 -2.98 33.6 -4 37 C-7.3 37 -10.6 37 -14 37 C-13.31505439 32.74276082 -11.92280977 29.01281418 -10.3125 25.01953125 C-9.91865112 24.03843636 -9.91865112 24.03843636 -9.5168457 23.03752136 C-8.681933 20.9608621 -7.8409576 18.88671758 -7 16.8125 C-6.43451774 15.40705311 -5.86940966 14.0014556 -5.3046875 12.59570312 C-1.19730546 2.39461091 -1.19730546 2.39461091 0 0 Z " fill="#030304" transform="translate(192,113)"/>
<path d="M0 0 C60.72 0 121.44 0 184 0 C181 4 181 4 177.87775517 4.49777794 C176.58045695 4.4966884 175.28315874 4.49559887 173.94654846 4.49447632 C173.22401868 4.49930515 172.5014889 4.50413398 171.75706428 4.50910914 C169.32929594 4.5204057 166.902575 4.50304261 164.47485352 4.48583984 C162.73707798 4.48798511 160.99930385 4.4918619 159.26153564 4.49734497 C154.53624805 4.50705501 149.81133714 4.49171384 145.08609509 4.47143888 C140.14585616 4.45389542 135.20562934 4.45739245 130.2653656 4.4581604 C121.96712934 4.45628608 113.66903917 4.43890555 105.37084961 4.41162109 C95.77270406 4.38017925 86.17471861 4.36962448 76.57652527 4.3710922 C67.35063042 4.37231254 58.12478779 4.36210298 48.89890862 4.34550858 C44.96956919 4.33844208 41.04024825 4.33478195 37.11090279 4.33372116 C32.48407752 4.33171339 27.85738691 4.31951282 23.23060608 4.29938889 C21.53104413 4.29354247 19.83146668 4.29108743 18.13189507 4.29224396 C15.81459818 4.29322418 13.49767943 4.28192608 11.18043518 4.26742554 C9.88275994 4.26407385 8.58508471 4.26072216 7.24808598 4.25726891 C4.22083121 4.01749123 2.53179749 3.60485056 0 2 C0 1.34 0 0.68 0 0 Z " fill="#4C4C4E" transform="translate(57,168)"/>
<path d="M0 0 C0.66 0.33 1.32 0.66 2 1 C1.34 2.32 0.68 3.64 0 5 C0.9197527 5.00238835 1.83950541 5.00477671 2.7871294 5.00723743 C25.14505146 5.06631934 47.50286511 5.14182552 69.86066914 5.23571491 C80.67264648 5.28072078 91.48459053 5.32012432 102.29663086 5.34643555 C111.71809512 5.3693769 121.13945444 5.40273143 130.56083554 5.44870156 C135.55148621 5.47268604 140.54203261 5.4913805 145.53273964 5.49761391 C150.22688781 5.50364122 154.92076903 5.52355521 159.61481857 5.55427551 C161.3405885 5.56309366 163.06639327 5.56677056 164.79218483 5.56500816 C167.1430032 5.56336499 169.49299841 5.57997152 171.84370422 5.60127258 C173.1609464 5.60588155 174.47818857 5.61049051 175.83534718 5.61523914 C179 6 179 6 182 9 C119.63 9.33 57.26 9.66 -7 10 C-5.02 7.36 -3.04 4.72 -1 2 C-0.67 1.34 -0.34 0.68 0 0 Z " fill="#87898B" transform="translate(62,84)"/>
<path d="M0 0 C9.04731223 3.34934358 14.61190002 17.67957597 18.6875 25.90625 C20 29 20 29 21 34 C28.26 34 35.52 34 43 34 C43 34.66 43 35.32 43 36 C9.29182746 36.20638953 9.29182746 36.20638953 -4 35 C-4 34.34 -4 33.68 -4 33 C-89.14 33.495 -89.14 33.495 -176 34 C-175 32 -175 32 -172 31 C-169.49810978 30.90238218 -167.02417701 30.86091125 -164.5222168 30.86628723 C-163.75406238 30.86402167 -162.98590796 30.86175612 -162.19447613 30.85942191 C-159.61270851 30.85307638 -157.03099332 30.85391162 -154.44921875 30.85473633 C-152.60144991 30.85174523 -150.75368169 30.84834281 -148.90591431 30.84455872 C-143.88125405 30.83571065 -138.85661081 30.83338029 -133.83194351 30.83274293 C-129.64181049 30.83179458 -125.45168145 30.82811723 -121.26154995 30.82457083 C-111.37976823 30.8164236 -101.49799563 30.81398689 -91.61621094 30.81469727 C-81.41026104 30.8152985 -71.20436392 30.80473826 -60.99842739 30.7889536 C-52.24509907 30.7758962 -43.49178804 30.77051259 -34.73845005 30.77115268 C-29.50639047 30.77140815 -24.2743778 30.76852991 -19.04232788 30.75797462 C-14.12416038 30.7483236 -9.20608494 30.74819377 -4.28791428 30.75549126 C-2.4798812 30.75654076 -0.67184248 30.75415266 1.13618088 30.7481308 C3.59830258 30.74045954 6.06010246 30.74502308 8.5222168 30.75276184 C9.24293019 30.74761828 9.96364359 30.74247471 10.70619678 30.73717529 C14.36832803 30.76273122 15.86315116 30.90876744 19 33 C14.23598165 22.16088468 9.05954019 12.52012681 2 3 C1.01 1.515 1.01 1.515 0 0 Z " fill="#B8B9BC" transform="translate(229,62)"/>
<path d="M0 0 C63.03 0 126.06 0 191 0 C187.40340921 2.3977272 184.8426253 2.27489114 180.69184875 2.24050903 C179.9419954 2.24221788 179.19214204 2.24392673 178.41956586 2.24568737 C175.89981279 2.24898906 173.38032435 2.23796748 170.8605957 2.22705078 C169.05722052 2.22648681 167.25384488 2.22680294 165.45046997 2.22793579 C160.54787139 2.22851087 155.64537018 2.21673148 150.74279428 2.20278788 C145.62184403 2.19030634 140.50089169 2.18911205 135.37992859 2.18673706 C125.67957347 2.1805147 115.97926329 2.16409367 106.27892798 2.14403808 C95.23675315 2.12170258 84.19457619 2.11069157 73.1523844 2.10064721 C50.43489799 2.0797281 27.71745151 2.04453745 5 2 C5 2.66 5 3.32 5 4 C5.7425 4.19207031 6.485 4.38414062 7.25 4.58203125 C10.91654636 6.47259422 12.18466621 9.15107607 14 12.6875 C14.68464448 13.95597247 15.37212411 15.222919 16.0625 16.48828125 C16.39121094 17.09494629 16.71992187 17.70161133 17.05859375 18.32666016 C18.79393056 21.41120333 20.85849545 24.18927528 23 27 C22.67 27.66 22.34 28.32 22 29 C0 5.85919056 0 5.85919056 0 0 Z " fill="#626365" transform="translate(52,166)"/>
<path d="M0 0 C3.63 0 7.26 0 11 0 C11 11.88 11 23.76 11 36 C7.37 36 3.74 36 0 36 C0 24.12 0 12.24 0 0 Z " fill="#000000" transform="translate(81,113)"/>
<path d="M0 0 C0.55476892 0.07079236 1.10953785 0.14158472 1.68111795 0.2145223 C6.87449869 0.8401079 11.9537393 1.14196526 17.18153381 1.12025452 C17.95284793 1.12110894 18.72416204 1.12196337 19.51884931 1.12284368 C22.07517205 1.12447645 24.63142756 1.11901359 27.18774414 1.11352539 C29.03141274 1.11324302 30.87508146 1.11340223 32.71875 1.1139679 C37.70360519 1.11425391 42.68843615 1.10838888 47.67328572 1.10139394 C52.89029774 1.09512775 58.10731036 1.09455402 63.32432556 1.09336853 C73.19446126 1.09026483 83.06458583 1.08206442 92.93471664 1.07201904 C104.17533876 1.06082803 115.41596142 1.05533993 126.65658772 1.05032361 C149.77106464 1.03988099 172.88553169 1.02230019 196 1 C195.67 1.66 195.34 2.32 195 3 C170.00085239 3.02333165 145.00170641 3.04098049 120.00255013 3.05181217 C108.39573936 3.05697456 96.78893534 3.06401618 85.18212891 3.07543945 C75.06892069 3.08538802 64.95571736 3.09185384 54.84250438 3.09408849 C49.4846892 3.0953953 44.12688801 3.09847931 38.7690773 3.10573006 C33.7311438 3.11249299 28.69323012 3.1146164 23.65529251 3.11310768 C21.8016906 3.11338389 19.94808805 3.11538739 18.09449005 3.11920547 C15.5728258 3.12414697 13.05123737 3.12299657 10.52957153 3.12025452 C9.41771695 3.12462378 9.41771695 3.12462378 8.28340065 3.12908131 C3.22824242 3.11412121 3.22824242 3.11412121 1 2 C0.67 2.66 0.34 3.32 0 4 C0 2.68 0 1.36 0 0 Z " fill="#747678" transform="translate(50,162)"/>
<path d="M0 0 C15.48586714 7.09193267 26.25233169 26.32940584 33.9375 40.6875 C34.62912231 41.96959351 34.62912231 41.96959351 35.3347168 43.27758789 C38.47155 49.34027219 40.44599694 55.35959182 42 62 C39.6365302 59.86911119 38.42793942 58.08210327 37.30859375 55.11328125 C37.00912842 54.34773926 36.70966309 53.58219727 36.40112305 52.79345703 C36.08312744 51.97474121 35.76513184 51.15602539 35.4375 50.3125 C27.83993514 31.62693348 16.23233778 16.74346722 1.80078125 2.828125 C0 1 0 1 0 0 Z " fill="#A3A4A7" transform="translate(233,30)"/>
<path d="M0 0 C9.04731223 3.34934358 14.61190002 17.67957597 18.6875 25.90625 C20 29 20 29 21 34 C28.26 34 35.52 34 43 34 C43 34.66 43 35.32 43 36 C32.77 36 22.54 36 12 36 C12 35.67 12 35.34 12 35 C14.97 34.505 14.97 34.505 18 34 C17.36633787 29.37694392 15.51623089 25.49717091 13.4375 21.375 C12.91047485 20.3219165 12.91047485 20.3219165 12.37280273 19.24755859 C9.5582552 13.77347302 6.33114968 8.91628393 2.56640625 4.0390625 C1 2 1 2 0 0 Z " fill="#ACAEB0" transform="translate(229,62)"/>
<path d="M0 0 C1.27875 0.165 2.5575 0.33 3.875 0.5 C13.04292466 1.54656073 13.04292466 1.54656073 22 0 C23.58033192 -0.08705429 25.16410378 -0.11767952 26.74682617 -0.11352539 C27.70759567 -0.11344986 28.66836517 -0.11337433 29.6582489 -0.11329651 C30.69270645 -0.10813522 31.727164 -0.10297394 32.79296875 -0.09765625 C34.38471672 -0.09553383 34.38471672 -0.09553383 36.00862122 -0.09336853 C39.40160935 -0.08776606 42.79453177 -0.07521314 46.1875 -0.0625 C48.48632717 -0.05748532 50.78515538 -0.05292236 53.08398438 -0.04882812 C58.72267872 -0.03779583 64.36133466 -0.0210553 70 0 C70 0.33 70 0.66 70 1 C69.14470703 1.02505615 68.28941406 1.0501123 67.40820312 1.07592773 C63.43871739 1.19376182 59.46933026 1.31455911 55.5 1.4375 C54.42724823 1.47059769 54.42724823 1.47059769 53.33282471 1.50436401 C45.67103622 1.74365324 38.02149544 2.00377904 30.375 2.5625 C20.92765352 3.23580754 11.46534874 3.08973857 2 3 C2 2.34 2 1.68 2 1 C1.34 0.67 0.68 0.34 0 0 Z " fill="#D6D7D9" transform="translate(33,95)"/>
<path d="M0 0 C0.66 0 1.32 0 2 0 C2.67305018 1.60149886 3.33822227 3.20631029 4 4.8125 C4.37125 5.70582031 4.7425 6.59914063 5.125 7.51953125 C6 10 6 10 6 13 C2.37 13 -1.26 13 -5 13 C-2.05357143 3.89285714 -2.05357143 3.89285714 0 0 Z " fill="#ABACAE" transform="translate(199,121)"/>
<path d="M0 0 C3.5210863 0.14008671 7.04179712 0.28810982 10.5625 0.4375 C11.55314453 0.47681641 12.54378906 0.51613281 13.56445312 0.55664062 C18.77598637 0.78172346 23.85353238 1.14105239 29 2 C23.58317356 5.61121763 16.38732727 5.61812845 10 5 C6.59776113 4.18270239 3.30078731 3.15768741 0 2 C0 1.34 0 0.68 0 0 Z " fill="#3D3E3F" transform="translate(10,160)"/>
<path d="M0 0 C2 3 2 3 1 11 C-9.395 11.495 -9.395 11.495 -20 12 C-15.05 12.33 -10.1 12.66 -5 13 C-5 13.33 -5 13.66 -5 14 C-10.94 14 -16.88 14 -23 14 C-23 12.35 -23 10.7 -23 9 C-15.41 9 -7.82 9 0 9 C0 6.03 0 3.06 0 0 Z " fill="#B7B9BB" transform="translate(132,112)"/>
<path d="M0 0 C0.33 0 0.66 0 1 0 C1 3.63 1 7.26 1 11 C-9.395 11.495 -9.395 11.495 -20 12 C-15.05 12.33 -10.1 12.66 -5 13 C-5 13.33 -5 13.66 -5 14 C-10.94 14 -16.88 14 -23 14 C-23 12.35 -23 10.7 -23 9 C-15.41 9 -7.82 9 0 9 C0 6.03 0 3.06 0 0 Z " fill="#BABBBD" transform="translate(173,112)"/>
<path d="M0 0 C-7.74946163 5.16630775 -16.04590179 5.43750513 -25 4 C-20.93126657 0.0955808 -18.07884788 -0.57260954 -12.5 -0.8125 C-11.2109375 -0.88082031 -9.921875 -0.94914063 -8.59375 -1.01953125 C-5.53052151 -1.00288327 -2.95577775 -0.74462863 0 0 Z " fill="#414142" transform="translate(287,161)"/>
<path d="M0 0 C2.12161334 2.12161334 2.92986249 3.7733159 4.125 6.5 C4.47820312 7.2940625 4.83140625 8.088125 5.1953125 8.90625 C6 11 6 11 6 13 C4.02 14.32 2.04 15.64 0 17 C0 11.39 0 5.78 0 0 Z " fill="#76787A" transform="translate(240,128)"/>
<path d="M0 0 C2.92127688 1.32099084 5.00909384 2.7530554 7.27734375 5.01171875 C7.87353516 5.60533203 8.46972656 6.19894531 9.08398438 6.81054688 C9.69564453 7.42994141 10.30730469 8.04933594 10.9375 8.6875 C11.54529297 9.28755859 12.15308594 9.88761719 12.77929688 10.50585938 C16.66994077 14.41329138 19.91005698 18.43251307 23 23 C22.01 23 21.02 23 20 23 C18.125 20.98046875 18.125 20.98046875 16 18.1875 C11.70998449 12.73840287 7.06818169 7.93845853 2.08984375 3.1171875 C0 1 0 1 0 0 Z " fill="#BABCBE" transform="translate(233,30)"/>
<path d="M0 0 C4.86609531 5.80188288 9.36207788 11.86504874 12 19 C7.39584807 15.65152587 3.3081587 11.6428625 0 7 C0 4.66666667 0 2.33333333 0 0 Z " fill="#797A7C" transform="translate(63,176)"/>
<path d="M0 0 C2.95064148 -0.2208564 5.68368231 -0.28060989 8.625 -0.1875 C9.42679688 -0.17396484 10.22859375 -0.16042969 11.0546875 -0.14648438 C13.03674378 -0.11109051 15.01845551 -0.05728234 17 0 C17 0.33 17 0.66 17 1 C15.44539063 0.9690625 15.44539063 0.9690625 13.859375 0.9375 C6.42320207 0.64496593 6.42320207 0.64496593 0.18359375 3.8125 C-0.85678848 5.9616365 -0.85678848 5.9616365 -1.45703125 8.1875 C-1.63621094 8.785625 -1.81539062 9.38375 -2 10 C-2.99 10.495 -2.99 10.495 -4 11 C-4.66 10.34 -5.32 9.68 -6 9 C-5.01 9 -4.02 9 -3 9 C-2.87625 8.071875 -2.7525 7.14375 -2.625 6.1875 C-2 3 -2 3 0 0 Z " fill="#B6B7BA" transform="translate(191,141)"/>
<path d="M0 0 C0.33 0.99 0.66 1.98 1 3 C-2.21060458 8.02529412 -7.61474816 13.30737408 -13 16 C-11.63107063 12.90296672 -10.07882641 10.88238392 -7.625 8.5625 C-4.83854727 5.86330571 -2.34766619 3.09891937 0 0 Z " fill="#989A9D" transform="translate(246,170)"/>
<path d="M0 0 C0.99 0.33 1.98 0.66 3 1 C0.03 3.97 -2.94 6.94 -6 10 C-6.33 9.34 -6.66 8.68 -7 8 C-4.69 5.36 -2.38 2.72 0 0 Z " fill="#EBEBEC" transform="translate(53,41)"/>
<path d="M0 0 C1.8871875 0.2475 1.8871875 0.2475 3.8125 0.5 C8.44295504 1.03569448 12.96357271 1.00557077 17.6171875 0.83984375 C20 1 20 1 23 3 C16.07 3 9.14 3 2 3 C2 2.34 2 1.68 2 1 C1.34 0.67 0.68 0.34 0 0 Z " fill="#C3C4C6" transform="translate(33,95)"/>
<path d="M0 0 C1.258125 -0.020625 2.51625 -0.04125 3.8125 -0.0625 C4.52019531 -0.07410156 5.22789063 -0.08570313 5.95703125 -0.09765625 C8 0 8 0 11 1 C11 1.99 11 2.98 11 4 C3.375 3.125 3.375 3.125 0 2 C0 1.34 0 0.68 0 0 Z " fill="#383839" transform="translate(10,160)"/>
<path d="M0 0 C0.33 1.32 0.66 2.64 1 4 C-0.43359375 6.140625 -0.43359375 6.140625 -2.4375 8.25 C-3.09621094 8.95640625 -3.75492188 9.6628125 -4.43359375 10.390625 C-5.20896484 11.18726563 -5.20896484 11.18726563 -6 12 C-6.66 11.67 -7.32 11.34 -8 11 C-5.36 7.37 -2.72 3.74 0 0 Z " fill="#7C7C7F" transform="translate(233,180)"/>
<path d="M0 0 C2.00720923 0.28674418 4.0085944 0.61866701 6 1 C6.33 1.99 6.66 2.98 7 4 C4.36 4 1.72 4 -1 4 C-1 1 -1 1 0 0 Z " fill="#A4A6A9" transform="translate(29,95)"/>
<path d="M0 0 C6.93 0.495 6.93 0.495 14 1 C10.49337515 3.3377499 9.12370255 3.3298962 5 3 C2.125 2 2.125 2 0 1 C0 0.67 0 0.34 0 0 Z " fill="#4D4D4F" transform="translate(25,161)"/>
<path d="M0 0 C-3.08888522 2.05925681 -3.70935927 2.2390374 -7.1875 2.125 C-9.0746875 2.063125 -9.0746875 2.063125 -11 2 C-10.67 1.34 -10.34 0.68 -10 0 C-6.35346727 -1.11421833 -3.66708957 -0.94296589 0 0 Z " fill="#3B3B3C" transform="translate(287,161)"/>
<path d="M0 0 C-0.66 0.474375 -1.32 0.94875 -2 1.4375 C-2.99 2.2109375 -2.99 2.2109375 -4 3 C-4 3.33 -4 3.66 -4 4 C-6.31 4 -8.62 4 -11 4 C-7.26280719 0.48264206 -5.13496308 -0.47767098 0 0 Z " fill="#4B4C4D" transform="translate(273,161)"/>
<path d="M0 0 C5.57142857 5.14285714 5.57142857 5.14285714 6 9 C1.2 5.67692308 1.2 5.67692308 0.1875 2.25 C0.125625 1.5075 0.06375 0.765 0 0 Z " fill="#8D8F91" transform="translate(69,186)"/>
<path d="M0 0 C0.99 0 1.98 0 3 0 C4.38671875 1.53125 4.38671875 1.53125 5.6875 3.5 C6.12449219 4.1496875 6.56148437 4.799375 7.01171875 5.46875 C7.33785156 5.9740625 7.66398438 6.479375 8 7 C7.01 7 6.02 7 5 7 C3.61328125 5.46875 3.61328125 5.46875 2.3125 3.5 C1.87550781 2.8503125 1.43851563 2.200625 0.98828125 1.53125 C0.49908203 0.77328125 0.49908203 0.77328125 0 0 Z " fill="#B2B4B6" transform="translate(248,46)"/>
</svg>
